<svg xmlns="http://www.w3.org/2000/svg" viewBox="0 0 900.48 900.48"><defs><style>.cls-1{fill:#63b3e7;}.cls-2{fill:#dead70;}.cls-3{fill:#a37844;}.cls-4{fill:#4b3f99;}.cls-5{fill:#ffcea5;}.cls-6{fill:#d0b9d8;}.cls-7{fill:#8773b4;}.cls-8{fill:#f7a69b;}.cls-9{fill:#fff;}.cls-10{fill:#a084bd;}.cls-11{fill:#9f84bc;}</style></defs><g id="Layer_2" data-name="Layer 2"><circle class="cls-1" cx="444.28" cy="405.1" r="219.21"/></g><g id="Layer_0_Image" data-name="Layer 0 Image"><path d="M666.19,736.3c-6.91,2.47-13.88,4.82-20.73,7.45-9.85,3.78-19.62,8-30.22,9-8.49.85-17.06,1-25.59,1.41-20.19,1-40.39,1.88-60.56,3.19-15.22,1-30.41,2.56-45.61,3.95-16.15,1.48-32.28,3.23-48.44,4.56-15.37,1.26-30.76,2.53-46.16,3.09-18.92.68-37.88.71-56.82.86-19.77.17-38.8-4.54-57.79-9.29a293.15,293.15,0,0,1-52.07-17.86c-1.49-.69-1.91-1.3-1.59-3,2.56-13.88,1.56-27.67-1.38-41.37-3.95-18.43-11.12-35.76-18.25-53.11-6.22-15.13-12.24-30.33-15.86-46.35A121.56,121.56,0,0,1,182,572a3,3,0,0,1,2.13-3.21q57.48-23.85,116.72-42.9c.53-.17,1.08-.27,1.62-.4-.62,3.33-1.2,6.66-1.88,10-3.14,15.26-4.83,30.58-2.15,46.11,3.13,18.12,12.21,32.49,27.12,43.21,12.3,8.84,26.18,14.21,40.67,18A407,407,0,0,0,438.49,655c15.74,1.22,31.44.91,47-2.07,20.94-4,39.45-13,54.35-28.3,10.62-10.9,20.48-22.58,30.34-34.19,7.06-8.31,13-17.42,16.17-28s3.57-21.17-1.09-31.54a5.8,5.8,0,0,1-.22-1.58c14.36,8.69,28.6,17.57,43.09,26a918.94,918.94,0,0,0,92.56,46.77c4.13,1.82,7.94,4.36,11.9,6.56-.84,1.25-1.76,2.46-2.53,3.76-2.14,3.64-4.22,7.32-6.32,11q-14.43,25.1-28.85,50.2c-9,15.62-17.65,31.46-28.29,46.07-2.46,3.39-2.68,7-1.23,10.88C666,732.32,665.94,734.37,666.19,736.3Z"/><path class="cls-2" d="M570.76,411.45c-.83,11.75-1.5,23.52-2.54,35.26-.81,9.26-4.45,17.51-9.77,25.13-5.57,8-10.74,16.21-16.21,24.24-2.87,4.21-6,8.23-9,12.34-.14.13-.27.27-.41.41l0,0-.88,1c-7.65,6.25-15.33,12.48-23,18.77-10.29,8.49-21,15.88-34.45,19-9.06,2.1-17.9,3.91-27.16,2.44-16.82-2.66-31.77-10.13-46.12-18.69-5.15-3.07-9.23-8-13.58-12.32-5.68-5.61-11.21-11.38-16.68-17.2a76.63,76.63,0,0,1-4.9-6.39c-.12-.63-.24-1.26-.35-1.89l-.58-.45-.21.07A32.39,32.39,0,0,0,356.78,478c-10.87-11.55-16.38-25.5-17.92-41.16-.58-5.94-1.28-11.87-1.95-17.81a11.61,11.61,0,0,0-.46-1.6v-1.26c-.41-4.66-.83-9.32-1.21-14-.33-4-.62-8-.92-12.06l1.06-.29L334.09,388c-.15-3.58-.39-7.16-.45-10.75-.09-5.35,0-10.71-.09-16.06a24.94,24.94,0,0,0-.46-3.3l0-.72c-.72-4.46-1.22-9-2.22-13.36-.9-3.93-2.35-7.73-3.56-11.58.19-.61.71-1.38.51-1.79-2.65-5.33-5.85-10.25-11-13.52.3-2.61.7-5.2.88-7.82,1.26-17.77,1-35.41-3.95-52.73a62.11,62.11,0,0,1-2.67-22,34.57,34.57,0,0,1,12.51-24.25,2.46,2.46,0,0,1,.89-.3,53.89,53.89,0,0,0-2.15,6.55,28.5,28.5,0,0,0-.07,5.47c.65-.25.8-.53.79-.82-.15-6.89,2.89-12.41,7.84-16.79,3.81-3.37,8.1-6.19,12.17-9.26l1.68-1.25-.51-.68a72.34,72.34,0,0,0-16.47,12.48c-4.3-.5-7.43-2.28-9.12-5.47,2.6-.66,5.09-1.37,7.62-1.89,1.62-.34,2.13-1.08,2.14-2.77A22.25,22.25,0,0,1,336.77,178c4.18-3.49,8.85-6.4,13-9.32l-5.12-1.94c9.06-8.3,18.94-14,29.62-18.59l-4.2-2.83.11-.84c2.57-.63,5.11-1.36,7.69-1.87,16.2-3.17,32.39-6.37,48.62-9.4,5.87-1.09,11.81-1.84,17.75-2.55s11.11,1.87,16,4.75c6.53,3.81,13.71,5,21.06,5.75,9,.88,18.11.76,26.46,4.73a35.62,35.62,0,0,1,7.9,5.28c4.22,3.65,8,7.8,12.26,11.41a20.92,20.92,0,0,0,6.59,3.3c3.12,1.11,5.35,2.95,6.11,6.18,1.35,5.74,4.65,10.14,8.73,14.28A31.79,31.79,0,0,1,558.27,203c.17,1.87.34,3.74.49,5.61.64,8.17-1.73,15.95-3.15,23.85a14.24,14.24,0,0,0,0,2.53l.67,0c1.59-8.23,3.88-16.34,4-24.83,3.6,4.94,7.58,9.65,10.73,14.86a78.39,78.39,0,0,1,10.39,29.15c1.42,9.44,3.72,18.79,3.24,28.46-.53,10.64-1,21.29-1.59,31.93a5.76,5.76,0,0,1-.42,1.36l-.18,0-1.31-5.63c-.12,0,1.61,5.65,1.49,5.67.41,2.12.53-1.16-.78.68-.54.78-2.14,1.42-2.68,2.19l1.22.44c.13,3.07.24,6.14.4,9.21.1,2,.28,4.05.42,6.08l-1.21,2L578,334c-.18,3.9-.29,7.59-.52,11.27-.27,4.44-.64,8.86-1,13.29.19.43.37.87.55,1.3-.47,1.85-.95,3.7-1.55,6-.58-1.73-1-3-1.66-4.92-1.8,11.1-4.45,21.35-3.21,32.11.65,5.67.16,11.46.18,17.2ZM344.2,281.24l.47-.4c3.17.28,4.08,1.39,3.48,4.53-.74,3.84-1.39,7.71-2.41,11.47-3.22,11.87-6.6,23.7-9.89,35.55-.41,1.48-.61,3-1,5.17l4-2.78c-.15,2.38-.37,4.43-.39,6.49-.13,13.18-.46,26.38,1.42,39.47,1.61,11.2,3.55,22.35,5.4,33.52a8,8,0,0,0,1.08,2.35,26.73,26.73,0,0,1,2.05,3.53c1.31,3.59,2.38,7.27,3.72,10.85a5.72,5.72,0,0,0,2.08,2.38,6.17,6.17,0,0,1,3,4.37,3.37,3.37,0,0,0,1.45,2.14,7.73,7.73,0,0,1,3.84,6.27,10.14,10.14,0,0,0,1.15,2.64c.57,1.34,1.7,2.78,1.54,4-.61,4.76,1.48,8.47,4,12.24l1.25-3.77,3.57,8.56,2.44-3.66,8.5,9.58c1-1.59,1.72-2.88,2.62-4.37,1,2.09,1.79,3.79,2.79,5.88,1.16-2.39,2.1-4.29,3-6.19l.72.2v6.11c.81-.61,1.23-.94,2-1.54-1.53,5.51.59,10,1.81,14.94l1.73-1.55c-1.19,4.91,2,7.46,4.12,10.47a2.23,2.23,0,0,0,.73.49,13.75,13.75,0,0,1,2,1.22,20,20,0,0,1,1.78,2l.66-2.84,12.47,8.63c2.3-.8,3.37-.44,5.21,2,1.35,1.77,3.37,3.44,5.27,2,2.88-2.12,5.55-1.19,8.37-.67a13.81,13.81,0,0,1,2.83,1.26c2.46-1.56,5.46-1.34,7.51,3.17,3.21-3.18,3.78-3.19,7-.17l2,1.93c1.07-1.46,1.76-3.38,3-3.84s3.12.44,4.47.7c1-1.2,1.95-3.39,3.33-3.7,1.56-.35,3.5,1,5.42,1.64.18-.77.33-1.37.48-2,.64-2.61.94-2.82,3.36-1.5,1.76,1,3.36,2.22,5.06,3.37.09-1.61.18-3.26.28-5.14l8,1.25c-.32-2.42-.6-4.51-.9-6.8l4.46-.37c-.26-1.9-.51-3.65-.75-5.41l.43-.12,1.21,2.25.65-2.17,2.64,2.5.9-3,2.63,1.59c1-2.61,1.87-5,2.8-7.47l2.05,1.21c.42-2.51.86-4.57,1.1-6.66s.22-4.46.54-6.66a9.61,9.61,0,0,1,1.33-2.66l2.3,1.3c.58-2.21,1.14-4.38,1.8-6.91l.51,2,.58,0,1.9-8.7c.4,2.19.88,4.87,1.43,8l1.94-2.42c.26,1.44-.23,3.26,2,2.25.12,1.55.21,2.89.34,4.68l2-3.42c.12,1.57.18,2.48.3,4l2.56-5c.17,1.05.29,1.76.52,3.18l4-10a5.2,5.2,0,0,0,.42.57l3.21-5.39,1.68,1.83c.36-1.7.62-3,.94-4.34.69-2.84,2.64-4.47,4.53-4.1l4.8-10.65,2.49,1.63,5.56-9.31c2.47,1.51,3.88.93,4.38-2,.85-4.94,1.6-9.92,2.12-14.91.54-5.31,1-10.65,1.07-16,.09-7.88,0-15.78-.39-23.65-.25-5.65-1.29-11.26-1.52-16.91-.28-6.86-.4-13.77,0-20.62.75-13.38,1.89-26.73,2.89-40.08a7.83,7.83,0,0,1,.48-1.59,21.14,21.14,0,0,0,1.32-4.66c.23-4.55.19-9.1.25-13.65,3.73,3.38,7,7.09,7,12.49.08,9.11,0,18.22,0,27.33a17.44,17.44,0,0,0,.38,2.46l.62-.06a7.49,7.49,0,0,0,.32-1.52c0-9.59.29-19.2-.1-28.77-.26-6.27-4.54-10.62-8.94-14.65-1.41-6.42-2.75-12.86-4.28-19.26-.9-3.76-2.11-7.44-3.18-11.16,5.31,1.24,9.52,4.07,12.06,8.95,1.35,2.6,2.26,5.43,3.39,8.15.3.72.65,1.42,1,2.13l.95-.4c-1.32-3.35-2.43-6.8-4-10-2.87-5.85-7.9-8.94-14.16-10.24-7.46-23-24.85-37.36-43.86-50.92l-.46,4.5-2.46-1.58c-.27,2.8-.28,2.79-2.75,3.64s-4.8,1.78-7.24,2.53c-1.4.43-1.51,1.12-1.34,2.47a20.13,20.13,0,0,1,.11,6.83c-1.39,5.76-8.59,10.75-15.37,11.08s-13.39.89-20.08.84c-11.33-.08-22.68-.31-34-1a26.53,26.53,0,0,1-15.27-5.77c-2.22-1.81-4.27-3.84-6.42-5.76a18.44,18.44,0,0,0-8-4.63c.28,1.94.52,3.59.75,5.23l-.65.32A25,25,0,0,0,392,204.67a24,24,0,0,0-14.54-2.36c.53.58.83.93,1.14,1.28,2.54,2.84,2.13,4.28-1.47,5.25-3,.8-6,1.62-8.27,2.26.28,1.84.91,3.5.67,5-.29,1.86-2.15,1.81-3.7,1.79-4.31,2-8.91,2-13.54,1.94s-4.84-.37-4.77-4.94c0-1-.15-2.06-.23-3.09l-.7.08c-.14,1.31-.31,2.62-.42,3.94-.28,3.27,1.29,5.1,4.61,5.34,1.5.1,3,.16,4.51.24a46,46,0,0,0-4,2.85c-.63.56-1.39,1.6-1.28,2.29.68,4.16-1.67,7.24-3.58,10.43-1.52,2.55-3.43,4.87-5.16,7.29l-.07.22.12-.16c2.59-.95,4.76-3.2,8.42-2.66l-6,7.44-.11.1.09-.12,4.14-.51c-.9,1.38-1.46,2.21-2,3.05-1.37,2.19-2.72,4.38-4.09,6.57l-.07.2.12-.16,3.84-1.71c-1.42,5.1-2.74,9.86-4.18,15.05l3.85-1.39c-.24,3.78-.46,7.17-.68,10.56l-.57,0a9.57,9.57,0,0,0-1.68,1.55c-2,2.89-4,5.79-5.84,8.77-4.07,6.51-7.93,13.13-9.35,20.84a16.49,16.49,0,0,0-.13,2.11c.77-.27,1.12-.62,1.17-1,.86-6.41,3.8-12,7-17.43C338.1,290.77,341.2,286,344.2,281.24Zm121-126.3c1.52.48,3.09.86,4.55,1.47,5.38,2.25,10.88,4.29,16.05,7,8.95,4.61,17.91,9.26,26.43,14.58,6.66,4.15,12,9.84,13.83,18,.05.25.3.46.45.69l.63-.19a28.23,28.23,0,0,0-.89-3.92c-3-7.86-8.88-13.31-15.9-17.34-9.06-5.22-18.36-10.07-27.77-14.63a148.26,148.26,0,0,0-33-11.49c-1-.22-2-.26-3-.39l-.3.8q35.07,9.74,54.56,40.44a3.36,3.36,0,0,0-.47-2.09,84.63,84.63,0,0,0-21-23.15c-4.55-3.47-9.56-6.35-14.36-9.5Zm-133,31.79.35.8c1-.35,2-.66,2.9-1.07,7.74-3.44,15.38-7.13,23.23-10.3,16.15-6.53,32.73-10.73,50.42-9.22,15.28,1.31,28.57,7,39.32,17.82,6.16,6.21,11.43,13.31,17.1,20,.46.53.93,1,1.4,1.56l.61-.49a23.37,23.37,0,0,0-1.3-2.08c-4.08-5.12-8-10.41-12.32-15.29A67.86,67.86,0,0,0,431,171.31c-10.25-4.58-21-6.19-32.21-5.8a106.33,106.33,0,0,0-33.86,7c-8.37,3.15-16.56,6.78-24.79,10.29C337.44,184,334.83,185.42,332.16,186.73Zm117.46,37.56.54-.56c-.37-.49-.72-1-1.12-1.47a145.61,145.61,0,0,0-23.45-21.48c-6.61-4.92-13.6-9.07-22-10.05-5.3-.61-10.63-1.15-16-1.41-8.4-.41-16.73.17-24,5-5,3.38-9.69,7.3-14.5,11-.1.08,0,.42,0,1.11.86-.52,1.53-.85,2.11-1.29,2.34-1.8,4.74-3.54,7-5.47,7.19-6.27,15.46-9.5,25-9.12,5.18.21,10.35.64,15.52.89a41.55,41.55,0,0,1,22,7.38A155.6,155.6,0,0,1,448.21,223C448.64,223.48,449.15,223.87,449.62,224.29Zm44.92-3.86c2.07-2.15,2.65-6.94,2-11-1.4-9.29-6.53-16.46-13.34-22.37-7.24-6.27-14.82-12.16-22.51-17.86-8.92-6.62-18.67-11.73-29.72-13.9-2.07-.41-4.2-.56-6.3-.83l-.14.9a7.26,7.26,0,0,0,1.65.5,50.92,50.92,0,0,1,19.63,5.8,159.85,159.85,0,0,1,40.68,30.46c6.2,6.3,9.71,14,8.84,23.21C495.21,217.08,494.83,218.75,494.54,220.43ZM338.19,246h.69a13.42,13.42,0,0,0,.19-2.09c-.39-7.4-.9-14.81-1.22-22.21a28.8,28.8,0,0,1,4.28-16.46,7.27,7.27,0,0,0,.52-1.42l-.51-.32a14.11,14.11,0,0,0-1.47,1.84,29.45,29.45,0,0,0-4.12,15.09c.09,6.85.62,13.7,1,20.55C337.67,242.67,338,244.34,338.19,246Zm5.09,6.18-.19-.32a12,12,0,0,0-1.71,1.27c-2.31,2.42-4.71,4.78-6.83,7.36-4.29,5.21-7.9,10.84-9.31,17.59a26,26,0,0,0-.25,4.16l.78.09a31.43,31.43,0,0,1,6.33-16.48C335.59,261.14,339.53,256.74,343.28,252.2Z"/><path d="M180.41,570.38c.17,2,.41,3.7.43,5.35.2,15.28,3.81,29.91,9,44.12,5.69,15.5,12,30.78,18,46.18,5.27,13.56,9.65,27.38,11.76,41.83a93.74,93.74,0,0,1-.17,30.77c-.13.69-.38,1.35-.68,2.4-3.46-1.78-6.72-3.4-9.93-5.11-14.92-7.91-28.24-18.11-41.39-28.58-12.26-9.77-24.74-19.26-36.83-29.22A109,109,0,0,1,108.1,653a4,4,0,0,1-.61-3c5.35-14,11-27.78,18.86-40.59,9.83-16,23.94-26.56,41.08-33.53C171.7,574.18,175.91,572.3,180.41,570.38Z"/><path d="M532,509.76l.88-1v3.46c3.35,1.73,6.37.09,9.27-.72,7.76-2.18,14,.21,20,5.08,2.84,2.31,6.36,3.8,9.59,5.63,3.69,2.1,7.4,4.16,11.1,6.24a9.27,9.27,0,0,0,.52,2.21A36.27,36.27,0,0,1,586.94,552a56.9,56.9,0,0,1-11.13,27.88c-5.83,7.83-11.94,15.46-18.14,23-8,9.72-16.37,19-26.15,27.09A99.69,99.69,0,0,1,500,647.63a111.57,111.57,0,0,1-26.6,5.73c-8.13.68-16.22,1.87-24.45,1s-16.64-1.17-24.93-2c-7.16-.75-14.32-1.71-21.4-3-9.18-1.65-18.32-3.59-27.42-5.62-13.6-3.05-26.78-7.29-39.07-14.07-9.61-5.3-18-12-24.62-20.77a64.76,64.76,0,0,1-12.89-36.34,135.07,135.07,0,0,1,0-14.51,116,116,0,0,1,1.64-14.16c1.16-6.44,2.73-12.8,4.13-19.19q24.15-7.93,48.32-15.89c3.59-1.19,7.15-2.47,10.65-3.9a3,3,0,0,0,1.53-2.18c.17-3.19.08-6.4.08-9.6l.21-.07.58.45c.11.63.23,1.26.35,1.89-.09,13.2-.1,26.39-.28,39.58-.08,5.56-1.55,10.73-5.51,14.94a1.73,1.73,0,0,1,.14-1.4c3.17-4.16,4.32-9,4.39-14.07.11-7.83.09-15.67.11-23.51,0-.82-.13-1.63-.21-2.74-8.63,3.52-17.26,6-24.52,11.55-5.09,3.87-10.2,7.73-15.41,11.44-5,3.53-7.54,8.31-7,14.28a98,98,0,0,0,3,17.31A87.44,87.44,0,0,0,349,606.55a106.51,106.51,0,0,0,26.16,16.1c17.37,7.6,35.76,10.93,54.53,12.29a189.08,189.08,0,0,0,21.69.09c7.54-.33,15.1-.89,22.57-2,20-2.86,37-11.88,51.46-25.91a196.84,196.84,0,0,0,26.06-31.9c7.2-10.72,13.24-21.92,12-35.53-.49-5.59-2.2-10.76-6-14.93a30.79,30.79,0,0,0-14.4-8.84c-3.48-1-7-1.77-10.93-2.74-.47,9.35-1.11,18-1.29,26.64-.19,9.22,1.32,18.16,6,26.33a14.15,14.15,0,0,1,.72,1.93c-.66-.35-.94-.4-1.05-.56-.44-.67-.86-1.35-1.24-2-5.6-10.44-5.85-21.81-5.37-33.2C530.34,524.78,531.29,517.28,532,509.76Z"/><path d="M733.83,609.31c6.28,5.31,9.91,12.46,13.58,19.57q14,26.94,27.82,53.9a27,27,0,0,1,2.19,5.56c1.22,4.74-.2,8.24-4.84,10.9-4.91,2.83-10,5.43-15.12,7.8-17.35,8-35.66,13.12-54,18.28-11.84,3.33-23.63,6.86-35.44,10.3a35.41,35.41,0,0,0-1.37-5.77,8.85,8.85,0,0,1,1.14-9.24c1.3-1.82,2.66-3.61,3.82-5.51,8.22-13.58,16.54-27.11,24.56-40.81,10.35-17.7,20.44-35.55,30.67-53.32C729.13,617,731.51,613.19,733.83,609.31Z"/><path d="M580,336.51l1.21-2c1.18-2,2.53-3.78,5.06-4.37v6.7h-.55c-.09-1.62-.18-3.25-.28-5.14a8.46,8.46,0,0,0-4.2,6.29c-1.17,6.37,2,11.83,3.59,17.63.45-2.73.79-5.42,1-8.12.59-7.79,1.24-15.58,1.59-23.38a9.67,9.67,0,0,0-1.59-5.34c-1.51-2.3-4.29-1.91-5.44.44l-1.22-.44,1.61-2.32,1.67-.59.18,0c4.58,1.37,6.16,3.27,6,8.66-.21,6.78-.76,13.56-1.4,20.32-1.27,13.36-2.69,26.71-4.06,40.07-.47,4.61-.81,9.24-1.51,13.82-1,6.42-4.57,10.77-10.91,12.66l0-1.17c5.39-1.84,8.83-5.51,9.61-11.16,1-7,1.58-14,2.33-20.95.32-3,.6-6,.93-9.41-2.47,4-4.74,7.56-6.9,11.18-1.91,3.18-1.69,6.18.93,9a10,10,0,0,1,2,3.2,8.73,8.73,0,0,1,.07,2.9,43.12,43.12,0,0,0-3.38-5.83c-2.28-2.85-2.65-5.8-1-8.92a73.47,73.47,0,0,1,4.25-6.93c4.57-6.84,5.81-14,2.69-21.84A29.61,29.61,0,0,1,580,336.51Z"/><path d="M316.81,316.87c5.19,3.27,8.39,8.19,11,13.52.2.41-.32,1.18-.51,1.79-.77-1.39-1.54-2.78-2.33-4.16-2.19-3.83-4.48-7.6-8.48-9.86-5.08-2.87-9.84-1-11.42,4.64a17,17,0,0,0-.72,5.9c.51,5.55,1.24,11.1,2.06,16.61,1.5,10.09,3.2,20.15,4.66,30.25.66,4.51.92,9.13,3.72,13a24.25,24.25,0,0,1,4.41,11.73,14.24,14.24,0,0,0,8.93,12.1c2.78,1.22,5.52,2.51,8.28,3.77v1.26c-3.26-1.5-6.55-2.95-9.78-4.52a14.38,14.38,0,0,1-8.37-11.51,33.86,33.86,0,0,0-4.71-12.88,24.22,24.22,0,0,1-3.25-10.6c-.68-12.43-3.76-24.43-5.73-36.62A106.31,106.31,0,0,1,303.45,326a13.91,13.91,0,0,1,1.82-6.34C307.41,315.68,311.26,314.89,316.81,316.87Z"/><path class="cls-3" d="M327.75,205.45A72.34,72.34,0,0,1,344.22,193l.51.68-1.68,1.25c-4.07,3.07-8.36,5.89-12.17,9.26-4.95,4.38-8,9.9-7.84,16.79,0,.29-.14.57-.79.82a28.5,28.5,0,0,1,.07-5.47,53.89,53.89,0,0,1,2.15-6.55C325.56,208.31,326.66,206.88,327.75,205.45Z"/><path class="cls-3" d="M560.31,210.16c-.17,8.49-2.46,16.6-4,24.83l-.67,0a14.24,14.24,0,0,1,0-2.53c1.42-7.9,3.79-15.68,3.15-23.85-.15-1.87-.32-3.74-.49-5.61.54,1.47,1.14,2.92,1.59,4.42A21.32,21.32,0,0,1,560.31,210.16Z"/><path class="cls-4" d="M532.79,508.83c.14-.14.27-.28.41-.41C533.06,508.55,532.93,508.69,532.79,508.83Z"/><path class="cls-5" d="M343.69,249.13l6-7.44c-3.66-.54-5.83,1.71-8.42,2.66l-.05-.06c1.73-2.42,3.64-4.74,5.16-7.29,1.91-3.19,4.26-6.27,3.58-10.43-.11-.69.65-1.73,1.28-2.29a46,46,0,0,1,4-2.85c2.93-.54,5.88-1,8.78-1.69.69-.17,1.18-1.19,1.76-1.82,1.55,0,3.41.07,3.7-1.79.24-1.53-.39-3.19-.67-5,2.31-.64,5.29-1.46,8.27-2.26,3.6-1,4-2.41,1.47-5.25-.31-.35-.61-.7-1.14-1.28A24,24,0,0,1,392,204.67a25,25,0,0,1,10.62,9.69l.65-.32c-.23-1.64-.47-3.29-.75-5.23a18.44,18.44,0,0,1,8,4.63c2.15,1.92,4.2,3.95,6.42,5.76A26.53,26.53,0,0,0,432.17,225c11.3.68,22.65.91,34,1,6.69,0,13.39-.53,20.08-.84s14-5.32,15.37-11.08a20.13,20.13,0,0,0-.11-6.83c-.17-1.35-.06-2,1.34-2.47,2.44-.75,4.83-1.7,7.24-2.53s2.48-.84,2.75-3.64l2.46,1.58.46-4.5c19,13.56,36.4,27.93,43.86,50.92l.8,1.43c1.07,3.72,2.28,7.4,3.18,11.16,1.53,6.4,2.87,12.84,4.28,19.26.22.91.45,1.81.67,2.72-.06,4.55,0,9.1-.25,13.65a21.14,21.14,0,0,1-1.32,4.66,7.83,7.83,0,0,0-.48,1.59c-1,13.35-2.14,26.7-2.89,40.08-.38,6.85-.26,13.76,0,20.62.23,5.65,1.27,11.26,1.52,16.91.36,7.87.48,15.77.39,23.65-.07,5.34-.53,10.68-1.07,16-.52,5-1.27,10-2.12,14.91-.5,2.94-1.91,3.52-4.38,2l-5.56,9.31-2.49-1.63-4.8,10.65c-1.89-.37-3.84,1.26-4.53,4.1-.32,1.31-.58,2.64-.94,4.34L538,460.15l-3.21,5.39a5.2,5.2,0,0,1-.42-.57l-4,10c-.23-1.42-.35-2.13-.52-3.18l-2.56,5c-.12-1.56-.18-2.47-.3-4l-2,3.42c-.13-1.79-.22-3.13-.34-4.68-2.22,1-1.73-.81-2-2.25l-1.94,2.42c-.55-3.12-1-5.8-1.43-8l-1.9,8.7-.58,0-.51-2c-.66,2.53-1.22,4.7-1.8,6.91l-2.3-1.3a9.61,9.61,0,0,0-1.33,2.66c-.32,2.2-.29,4.45-.54,6.66s-.68,4.15-1.1,6.66l-2.05-1.21c-.93,2.48-1.83,4.86-2.8,7.47l-2.63-1.59-.9,3-2.64-2.5-.65,2.17-1.21-2.25-.43.12c.24,1.76.49,3.51.75,5.41l-4.46.37c.3,2.29.58,4.38.9,6.8l-8-1.25c-.1,1.88-.19,3.53-.28,5.14-1.7-1.15-3.3-2.41-5.06-3.37-2.42-1.32-2.72-1.11-3.36,1.5-.15.6-.3,1.2-.48,2-1.92-.65-3.86-2-5.42-1.64-1.38.31-2.33,2.5-3.33,3.7-1.35-.26-3.17-1.18-4.47-.7s-1.94,2.38-3,3.84l-2-1.93c-3.21-3-3.78-3-7,.17-2.05-4.51-5.05-4.73-7.51-3.17a13.81,13.81,0,0,0-2.83-1.26c-2.82-.52-5.49-1.45-8.37.67-1.9,1.4-3.92-.27-5.27-2-1.84-2.42-2.91-2.78-5.21-2l-12.47-8.63-.66,2.84a20,20,0,0,0-1.78-2,13.75,13.75,0,0,0-2-1.22,2.23,2.23,0,0,1-.73-.49c-2.13-3-5.31-5.56-4.12-10.47l-1.73,1.55c-1.22-4.91-3.34-9.43-1.81-14.94-.78.6-1.2.93-2,1.54V471.3l-.72-.2c-.93,1.9-1.87,3.8-3,6.19-1-2.09-1.8-3.79-2.79-5.88-.9,1.49-1.67,2.78-2.62,4.37l-8.5-9.58L374,469.86l-3.57-8.56-1.25,3.77c-2.52-3.77-4.61-7.48-4-12.24.16-1.26-1-2.7-1.54-4a10.14,10.14,0,0,1-1.15-2.64,7.73,7.73,0,0,0-3.84-6.27,3.37,3.37,0,0,1-1.45-2.14,6.17,6.17,0,0,0-3-4.37,5.72,5.72,0,0,1-2.08-2.38c-1.34-3.58-2.41-7.26-3.72-10.85a26.73,26.73,0,0,0-2.05-3.53,8,8,0,0,1-1.08-2.35c-1.85-11.17-3.79-22.32-5.4-33.52-1.88-13.09-1.55-26.29-1.42-39.47,0-2.06.24-4.11.39-6.49l-4,2.78c.42-2.15.62-3.69,1-5.17,3.29-11.85,6.67-23.68,9.89-35.55,1-3.76,1.67-7.63,2.41-11.47.6-3.14-.31-4.25-3.48-4.53l-.06-.07c.22-3.39.44-6.78.68-10.56l-3.85,1.39c1.44-5.19,2.76-10,4.18-15.05l-3.84,1.71,0,0c1.37-2.19,2.72-4.38,4.09-6.57.53-.84,1.09-1.67,2-3.05l-4.14.51Zm45.89,103.15,5.94,2a8.86,8.86,0,0,0,1.83.95c7.21,1.76,14.27.81,21.24-1.31.53-.16.94-.7,1.41-1.07l5-2,10,3.79.31-.66c-1.36-.7-2.68-1.49-4.09-2.08a114.46,114.46,0,0,0-10.93-4.27A48.22,48.22,0,0,0,410,345.71a50.41,50.41,0,0,0-10,.47c-5.15.67-9.18,3.87-13.4,6.56-.07.05,0,.29,0,.76Zm108.13,2.42c.2.13.39.36.59.37,8.82.09,17.61-.14,26.07-3.09.49-.17.83-.79,1.24-1.21l0-.78a36,36,0,0,0,3.71,1.5c3.11.9,6.25,1.74,9.41,2.44a6.4,6.4,0,0,0,2.45-.49l0-.75c-6.31,1-11.31-2.1-16.44-4.82-.84-.45-1.7-.89-2.58-1.27-8.51-3.68-16.87-4.43-25.22.7-4.35,2.67-9,4.83-13.52,7.24a14.53,14.53,0,0,0-1.47,1l.42.66,9.68-4.88C493,354.21,493.82,354.69,497.71,354.7ZM444,418.61a25.64,25.64,0,0,0-4.75-.46c-6.24.53-11.94-4-11.24-12.24.09-1,.14-1.91.23-3.13-3.44,2.89-6.24,5.87-9.61,7.94-6.37,3.92-13.12,7.22-19.6,11a51.17,51.17,0,0,0-6.82,5.14c-.58.48-.71,1.51-1.05,2.28l.56.4c2.91-5.29,8.21-7.07,13.19-9.31a76.32,76.32,0,0,0,19.48-12.54l2.25-2c.08.73.14,1,.15,1.34.32,8.11,4.45,12.26,12.45,12.27a9.6,9.6,0,0,1,7.93,3.61c5.31,6.3,13.13,7.31,19.94,2.58,3.29-2.29,6.54-4.26,10.79-3.68a8.45,8.45,0,0,0,2.83-.39c6.24-1.35,13.13-11.05,6.83-18.38a74.09,74.09,0,0,1-4.61-6.69,5.27,5.27,0,0,0-.76-.73l-.51.27a10.85,10.85,0,0,0,.82,2c1.56,2.32,3.14,4.62,4.79,6.88a7.83,7.83,0,0,1,1.36,6.8c-1.68,6.9-8.41,10.73-15.44,8.64l1.58-2.51L474,417c-1.56,1.66-3.23,3.22-4.64,5a13.66,13.66,0,0,1-21.13.41,51.74,51.74,0,0,1-3.73-6.12,19.27,19.27,0,0,0-1.25-1.61l-.57.4,1.56,3.32ZM409,452.56l6.6-1.24a9.5,9.5,0,0,0,1.29,1.65c2.07,1.74,4.24,3.37,6.31,5.11C435,468,448.6,471.81,463.78,469.83a64,64,0,0,0,32.85-14.46,69.65,69.65,0,0,0,5-5m-6.28-.6a6.47,6.47,0,0,0-1.32-.46c-4-.47-7.89-1.18-11.85-1.31-5.34-.17-10.69,0-16,.23-3.08.12-6.32,1.34-9.18.69-9.3-2.13-18.51-1.56-27.79-.35m45.74-109.29c-.18,2.55,1.38,1.91,2.82,1.55,10.81-2.73,21.54-6,32.92-4.84,5.95.6,11.9,1.07,17.84,1.71,5,.54,9.88,1.25,14.73,1.87a17.88,17.88,0,0,0-14.35-9.69c-2.77-.32-5.54-.66-8.28-1.16a20.23,20.23,0,0,1-3.53-1.29,8.44,8.44,0,0,0-2.43-.95c-2.76-.12-5.54-.05-8.43-.05l.49-2.38c-5.32.83-10.26,1.57-15.18,2.4-3.72.63-7.37,1.51-10.12,4.41-.31,0-.73-.19-.91-.05-3.85,3-7.72,6.44-7.94,11.45a125.26,125.26,0,0,0,3.25,33.51,4.7,4.7,0,0,0,.73,1.22,2.16,2.16,0,0,0,.33-1.68,132.64,132.64,0,0,1-3.17-32.09C473.74,341.89,474.51,340.58,474.94,339.27ZM471.87,444a33,33,0,0,0,4.55.92c.5,0,1.07-.85,1.6-1.32l.13-.13c.39.08.77.19,1.16.25.89.14,1.78.25,2.67.38v-3l9.83.77c0-.47-.09-1.33-.15-2.27l7.72,4.27.56-2.94,2.24,1.34.09-.75a11.33,11.33,0,0,1,2.54,0c1.75.41,3.66,1.55,3.82-1.35l7.42,3.43.79-.67c-1.15-2.36-2-5-3.53-7-2.29-3-5.69-4.6-9.3-5.6-5.27-1.47-10.3-4.28-16-3.51-2.65.36-5,.61-7.2-1.51l-1.35,1.89-2.4-1.89c-.42.37-.93.61-1.08,1-1,2.49-4-.63-5,1.81a10.68,10.68,0,0,0-1.09-.25c-1.08,0-2.42-.24-3.18.29a11.2,11.2,0,0,1-7.95,1.94c-2.93-.31-5.89-.45-8.77-1a11.94,11.94,0,0,0-8.76,1.25c-2.19-2.21-4.83-1.83-7.44-1.75.19-1.25.35-2.34.59-4l-9.87,2.58c.07-.37.17-.89.26-1.41l.07-.15-.07.15c-2.43.62-5.23.68-7.21,2a30,30,0,0,1-8.18,4.23c-4.77,1.4-7.34,5-9,10a11.25,11.25,0,0,0,2.49-.5c1.35-.69,2.6-1.56,3.92-2.3.61-.34,1.6-1,1.89-.77,2,1.45,3.83.18,5.73,0,.45,0,1.06-.13,1.36.1,2.82,2.28,6.57.57,9.66,2.43,1.64,1,4.52-.56,6,2,.15.26.72.34,1.1.39,2.22.24,4.43.59,6.65.62s4.54-1.68,6.63.5c.2.2.78.11,1.17.05,2.51-.39,5-.7,7.51-1.27,1.94-.45,4.14-.91,3.75-3.83.72,1.66,1.43,3.33,2.14,5l.68-.17.37-4.38c2.83,1.57,5.36,3.06,8,4.35.61.3,1.55-.08,2.33-.14ZM438.36,340.13c.76-4.52-.84-8.21-4.63-10-9.46-4.36-19.06-8-29.84-7.8-4.25.08-8.32.18-12.06,2.06-4.5,2.26-8.76,5-13.75,6.22-.54.13-1.33.71-1.39,1.16-.28,2.11-1.85,2.06-3.32,2.24a10.31,10.31,0,0,0-2.81.39c-.5.21-.73,1.09-1.08,1.67l.4.41-8.46,3.75c3.25,2,6.57,1.59,11.52.25,6.48-1.75,12.89-3.74,19.34-5.58,7.13-2,14.28-3.46,21.62-.77a10.8,10.8,0,0,0,3.78.35A36.88,36.88,0,0,1,438.36,340.13Zm-3.73,142.1.65.22,2.84-1.82,5.05,6.81,1-1.25,1.71,1.46,1.9-2.45,3.05,6,2-4.69.46.14c.19,1,.38,2.06.64,3.45,1.06-1.5,1.85-2.63,2.62-3.71l4.21,3.86c1.34-2.07,2.68-4.12,4.14-6.39l1.23,1.85,3.33-2.66,1.3,4.1,4.35-5.9,1.26,2.76,1.38-2.42,1.77,1.07c.7-4.35,4.27-8.24.39-12.88l-5.29,5-2.12-1.93-1.08,1.8-.35-.66a21.48,21.48,0,0,1-3.87,1.18,97.67,97.67,0,0,1-11.68,1c-5.13,0-10.25-.54-15.37-.92a5.34,5.34,0,0,1-2.1-.91A24.27,24.27,0,0,1,436,472.5C435.45,476.15,435,479.19,434.63,482.23ZM371.14,354.6l.46.75a20.91,20.91,0,0,0,2.48-1.18q4.92-3.21,9.78-6.52a17.71,17.71,0,0,1,8.55-2.71,154.65,154.65,0,0,0,17-2.45c4.56-1,8.89-1.08,13.1.9,2.81,1.33,5.46,3,8.18,4.51l1.89,1,.49-.79c-2-1.28-4-2.61-6-3.83A23.36,23.36,0,0,0,408,341.66c-4.72,1.3-9.75,1.44-14.64,2.14-2.28.32-4.85.19-6.76,1.24C381.26,348,376.26,351.38,371.14,354.6Zm164.26-4.17.36-.73c-.78-.46-1.54-1-2.34-1.38-10.74-5.62-22.26-7.74-34.25-7.41a13.26,13.26,0,0,0-6.23,1.89c-4.5,2.72-8.77,5.82-13.11,8.78-.14.09-.12.42-.29,1.11a19.67,19.67,0,0,0,2.76-1.23c3.83-2.59,7.57-5.33,11.46-7.84a9.19,9.19,0,0,1,4.4-1.55c12.41-.39,24.33,1.64,35.4,7.58A19.9,19.9,0,0,0,535.4,350.43Zm-106.92,8.82c-3.68,1.68-6.5,3.39-9.55,4.24a28.61,28.61,0,0,1-9.7,1.17c-5.71-.46-11.35-1.64-17-2.49-2.12-.31-4.26-.54-6.38-.8l-.13.93c1.82.28,3.65.47,5.44.85,6.95,1.47,13.86,3.25,21.08,2.59,4.8-.44,9.56-1.05,13.63-3.95A27.58,27.58,0,0,0,428.48,359.25Zm69.91,50.58-.69.6a8.58,8.58,0,0,0,1.28,1.71,92.08,92.08,0,0,0,7.74,6c3.76,2.41,7.82,4.34,11.58,6.74,4.52,2.89,8.26,6.54,9.69,12,.06.23.36.4.54.6l.55-.23a28,28,0,0,0-.91-3.2c-2-4.87-5.89-8.07-10.19-10.79C511.3,419,503.59,416.31,498.39,409.83Zm-13.23-48.29-.16.61c7,4.26,29.35,7.15,32,4.51-5.13-.41-10.61-.52-16-1.38S490.44,362.82,485.16,361.54Zm-51.59,6.81a8.35,8.35,0,0,0,7-7.47c.1-3-1.46-5.86-4-6.56C441.73,360.44,439.44,364.79,433.57,368.35Zm52.74-1.27.41-1.11c-1.36-.55-2.7-1.2-4.09-1.63-2.75-.86-4.75-2.25-4.5-5.53,0-.05-.25-.12-.39-.17-.89,1.85-.9,3.73.59,4.62C480.85,364.76,483.63,365.83,486.31,367.08ZM482.18,477l-.1.15.15,0Z"/><path class="cls-5" d="M532,509.76c-.66,7.52-1.61,15-1.92,22.55-.48,11.39-.23,22.76,5.37,33.2.38.7.8,1.38,1.24,2,.11.16.39.21,1.05.56a14.15,14.15,0,0,0-.72-1.93c-4.68-8.17-6.19-17.11-6-26.33.18-8.65.82-17.29,1.29-26.64,3.89,1,7.45,1.72,10.93,2.74a30.79,30.79,0,0,1,14.4,8.84c3.76,4.17,5.47,9.34,6,14.93,1.19,13.61-4.85,24.81-12,35.53a196.84,196.84,0,0,1-26.06,31.9C511,621.19,494,630.21,474,633.07c-7.47,1.07-15,1.63-22.57,2a189.08,189.08,0,0,1-21.69-.09c-18.77-1.36-37.16-4.69-54.53-12.29A106.51,106.51,0,0,1,349,606.55a87.44,87.44,0,0,1-28.18-43.81,98,98,0,0,1-3-17.31c-.58-6,2-10.75,7-14.28,5.21-3.71,10.32-7.57,15.41-11.44,7.26-5.52,15.89-8,24.52-11.55.08,1.11.21,1.92.21,2.74,0,7.84,0,15.68-.11,23.51-.07,5.1-1.22,9.91-4.39,14.07a1.73,1.73,0,0,0-.14,1.4c4-4.21,5.43-9.38,5.51-14.94.18-13.19.19-26.38.28-39.58a76.63,76.63,0,0,0,4.9,6.39c5.47,5.82,11,11.59,16.68,17.2,4.35,4.3,8.43,9.25,13.58,12.32,14.35,8.56,29.3,16,46.12,18.69,9.26,1.47,18.1-.34,27.16-2.44,13.44-3.11,24.16-10.5,34.45-19C516.62,522.24,524.3,516,532,509.76ZM470.1,570.39c-7.86,5.55-16.35,6.65-25.43,3.53C450.86,579,466.69,576.34,470.1,570.39Z"/><path class="cls-5" d="M336.45,416.12c-2.76-1.26-5.5-2.55-8.28-3.77a14.24,14.24,0,0,1-8.93-12.1,24.25,24.25,0,0,0-4.41-11.73c-2.8-3.83-3.06-8.45-3.72-13-1.46-10.1-3.16-20.16-4.66-30.25-.82-5.51-1.55-11.06-2.06-16.61a17,17,0,0,1,.72-5.9c1.58-5.62,6.34-7.51,11.42-4.64,4,2.26,6.29,6,8.48,9.86.79,1.38,1.56,2.77,2.33,4.16,1.21,3.85,2.66,7.65,3.56,11.58,1,4.39,1.5,8.9,2.22,13.36l-7.51-4.74c-.7,2.81-1.6,5.7-2.1,8.66a44.75,44.75,0,0,0-.86,9.21c.21,5.16,2,7.1,6.88,8.57a2.63,2.63,0,0,1,2,3.1,11.12,11.12,0,0,1-.55,2.33c-.67,2.09-.81,3.9,1.92,4.63.54.15,1,.79,1.43,1.2.3,4,.59,8,.92,12.06C335.62,406.8,336,411.46,336.45,416.12Zm-28.27-87.77c3.34,1.5,5.35,4.67,6.22,8.47,1.31,5.69.46,11.31-.75,16.86-2.37,10.83-2.71,21.07,6.25,29.61,1.41,1.34,1.43,4.18,2,6.36a4.47,4.47,0,0,1-.23,1.65l.69.18A15.21,15.21,0,0,0,323,389c.32-3.51-1.49-6.15-3.8-8.46a19.48,19.48,0,0,1-5.81-16.37c.48-4.92,1.38-9.79,2.16-14.68,1-6.1,1.09-12.1-1.95-17.75a12.64,12.64,0,0,0-5.81-5.77c-1.94,8.65,3.63,16.14,2.76,24.41a3.18,3.18,0,0,0,.87-2.29c-.47-3.39-1.06-6.76-1.63-10.14C309.3,334.73,308.74,331.54,308.18,328.35Z"/><path class="cls-5" d="M580,336.51a29.61,29.61,0,0,0,2.27,15c3.12,7.82,1.88,15-2.69,21.84a73.47,73.47,0,0,0-4.25,6.93c-1.61,3.12-1.24,6.07,1,8.92a43.12,43.12,0,0,1,3.38,5.83,8.73,8.73,0,0,0-.07-2.9,10,10,0,0,0-2-3.2c-2.62-2.81-2.84-5.81-.93-9,2.16-3.62,4.43-7.18,6.9-11.18-.33,3.4-.61,6.41-.93,9.41-.75,7-1.37,14-2.33,20.95-.78,5.65-4.22,9.32-9.61,11.16,0-5.74.47-11.53-.18-17.2-1.24-10.76,1.41-21,3.21-32.11.64,1.89,1.08,3.19,1.66,4.92.6-2.32,1.08-4.17,1.55-6,3.09,1.94,3.56,4.37,1.54,7.44q-2.69,4.08-5.2,8.26a8.89,8.89,0,0,0-.67,2.23,86.7,86.7,0,0,0,7.78-11.9c1.55-3-.51-6.25-4-7.33.33-4.43.7-8.85,1-13.29.23-3.68.34-7.37.52-11.27Z"/><path class="cls-5" d="M333.09,357.84a24.94,24.94,0,0,1,.46,3.3c.07,5.35,0,10.71.09,16.06.06,3.59.3,7.17.45,10.75-2.06-.37-2.9-1.37-2-3.5a8.48,8.48,0,0,0,.53-2.8c.11-2.1-.78-3.67-3-3.89-3.62-.37-4.84-2.8-5.63-5.86-1.59-6.17,1.09-11.63,2.52-17.52a17.88,17.88,0,0,0,2.36,1.7C330.25,356.75,331.68,357.27,333.09,357.84Z"/><path class="cls-3" d="M465,155.15c4.8,3.15,9.81,6,14.36,9.5a84.63,84.63,0,0,1,21,23.15,3.36,3.36,0,0,1,.47,2.09q-19.56-30.66-54.56-40.44l.3-.8c1,.13,2,.17,3,.39a148.26,148.26,0,0,1,33,11.49c9.41,4.56,18.71,9.41,27.77,14.63,7,4,12.89,9.48,15.9,17.34a28.23,28.23,0,0,1,.89,3.92l-.63.19c-.15-.23-.4-.44-.45-.69-1.82-8.14-7.17-13.83-13.83-18-8.52-5.32-17.48-10-26.43-14.58-5.17-2.66-10.67-4.7-16.05-7-1.46-.61-3-1-4.55-1.47l-.69-.1Zm-1.67-.87a.58.58,0,0,0-.17-.06s0,.09-.06.13a.7.7,0,0,0,.17.06S463.33,154.32,463.35,154.28Z"/><path class="cls-3" d="M332.16,186.73c2.67-1.31,5.28-2.75,8-3.91,8.23-3.51,16.42-7.14,24.79-10.29a106.33,106.33,0,0,1,33.86-7c11.21-.39,22,1.22,32.21,5.8a67.86,67.86,0,0,1,22.84,17.16c4.35,4.88,8.24,10.17,12.32,15.29a23.37,23.37,0,0,1,1.3,2.08l-.61.49c-.47-.52-.94-1-1.4-1.56-5.67-6.7-10.94-13.8-17.1-20-10.75-10.82-24-16.51-39.32-17.82-17.69-1.51-34.27,2.69-50.42,9.22-7.85,3.17-15.49,6.86-23.23,10.3-.94.41-1.93.72-2.9,1.07Z"/><path class="cls-5" d="M580.42,319.23c1.15-2.35,3.93-2.74,5.44-.44a9.67,9.67,0,0,1,1.59,5.34c-.35,7.8-1,15.59-1.59,23.38-.21,2.7-.55,5.39-1,8.12-1.58-5.8-4.76-11.26-3.59-17.63a8.46,8.46,0,0,1,4.2-6.29c.1,1.89.19,3.52.28,5.14h.55v-6.7c-2.53.59-3.88,2.38-5.06,4.37-.14-2-.32-4-.42-6.08C580.66,325.37,580.55,322.3,580.42,319.23Z"/><path class="cls-3" d="M449.62,224.29c-.47-.42-1-.81-1.41-1.27a155.6,155.6,0,0,0-27.45-24.18,41.55,41.55,0,0,0-22-7.38c-5.17-.25-10.34-.68-15.52-.89-9.57-.38-17.84,2.85-25,9.12-2.22,1.93-4.62,3.67-7,5.47-.58.44-1.25.77-2.11,1.29,0-.69-.09-1,0-1.11,4.81-3.69,9.47-7.61,14.5-11,7.23-4.86,15.56-5.44,24-5,5.33.26,10.66.8,16,1.41,8.38,1,15.37,5.13,22,10.05A145.61,145.61,0,0,1,449,222.26c.4.46.75,1,1.12,1.47Z"/><path class="cls-3" d="M494.54,220.43c.29-1.68.67-3.35.83-5,.87-9.17-2.64-16.91-8.84-23.21a159.85,159.85,0,0,0-40.68-30.46,50.92,50.92,0,0,0-19.63-5.8,7.26,7.26,0,0,1-1.65-.5l.14-.9c2.1.27,4.23.42,6.3.83,11.05,2.17,20.8,7.28,29.72,13.9,7.69,5.7,15.27,11.59,22.51,17.86,6.81,5.91,11.94,13.08,13.34,22.37C497.19,213.49,496.61,218.28,494.54,220.43Z"/><path d="M333.09,357.84c-1.41-.57-2.84-1.09-4.21-1.76a17.88,17.88,0,0,1-2.36-1.7c-1.43,5.89-4.11,11.35-2.52,17.52.79,3.06,2,5.49,5.63,5.86,2.21.22,3.1,1.79,3,3.89a8.48,8.48,0,0,1-.53,2.8c-.9,2.13-.06,3.13,2,3.5l1.29,1.84-1.06.29c-.47-.41-.89-1.05-1.43-1.2-2.73-.73-2.59-2.54-1.92-4.63a11.12,11.12,0,0,0,.55-2.33,2.63,2.63,0,0,0-2-3.1c-4.9-1.47-6.67-3.41-6.88-8.57a44.75,44.75,0,0,1,.86-9.21c.5-3,1.4-5.85,2.1-8.66l7.51,4.74Z"/><path class="cls-3" d="M568.53,281.14c-.22-.91-.45-1.81-.67-2.72,4.4,4,8.68,8.38,8.94,14.65.39,9.57.11,19.18.1,28.77a7.49,7.49,0,0,1-.32,1.52l-.62.06a17.44,17.44,0,0,1-.38-2.46c0-9.11,0-18.22,0-27.33C575.5,288.23,572.26,284.52,568.53,281.14Z"/><path class="cls-3" d="M338.19,246c-.21-1.68-.52-3.35-.62-5-.4-6.85-.93-13.7-1-20.55a29.45,29.45,0,0,1,4.12-15.09,14.11,14.11,0,0,1,1.47-1.84l.51.32a7.27,7.27,0,0,1-.52,1.42,28.8,28.8,0,0,0-4.28,16.46c.32,7.4.83,14.81,1.22,22.21a13.42,13.42,0,0,1-.19,2.09Z"/><path class="cls-3" d="M344.2,281.24c-3,4.79-6.1,9.53-9,14.4-3.21,5.44-6.15,11-7,17.43,0,.39-.4.74-1.17,1a16.49,16.49,0,0,1,.13-2.11c1.42-7.71,5.28-14.33,9.35-20.84,1.86-3,3.85-5.88,5.84-8.77a9.57,9.57,0,0,1,1.68-1.55A2.23,2.23,0,0,0,344.2,281.24Z"/><path class="cls-3" d="M343.28,252.2c-3.75,4.54-7.69,8.94-11.18,13.67a31.43,31.43,0,0,0-6.33,16.48l-.78-.09a26,26,0,0,1,.25-4.16c1.41-6.75,5-12.38,9.31-17.59,2.12-2.58,4.52-4.94,6.83-7.36a12,12,0,0,1,1.71-1.27Z"/><path class="cls-3" d="M560.4,248l-.8-1.43c6.26,1.3,11.29,4.39,14.16,10.24,1.58,3.22,2.69,6.67,4,10l-.95.4c-.32-.71-.67-1.41-1-2.13-1.13-2.72-2-5.55-3.39-8.15C569.92,252.07,565.71,249.24,560.4,248Z"/><path class="cls-3" d="M365.82,217.92c-.58.63-1.07,1.65-1.76,1.82-2.9.71-5.85,1.15-8.78,1.69-1.51-.08-3-.14-4.51-.24-3.32-.24-4.89-2.07-4.61-5.34.11-1.32.28-2.63.42-3.94l.7-.08c.08,1,.24,2.06.23,3.09-.07,4.57.26,4.87,4.77,4.94S361.51,220,365.82,217.92Z"/><path d="M576.48,358.57c3.49,1.08,5.55,4.31,4,7.33a86.7,86.7,0,0,1-7.78,11.9,8.89,8.89,0,0,1,.67-2.23q2.52-4.19,5.2-8.26c2-3.07,1.55-5.5-1.54-7.44C576.85,359.44,576.67,359,576.48,358.57Z"/><path class="cls-6" d="M344.2,281.24a2.23,2.23,0,0,1-.16-.43l.57,0,.06.07Z"/><path class="cls-6" d="M341.78,258.26l-.12.16c0-.07,0-.13.07-.2Z"/><path class="cls-7" d="M365.75,493.47l-.58-.45Z"/><polygon class="cls-6" points="343.67 249.11 343.58 249.23 343.69 249.13 343.67 249.11"/><path class="cls-6" d="M341.3,244.35l-.12.16c0-.07.05-.14.07-.22Z"/><path class="cls-2" d="M424.8,425.76l-.26,1.41,9.87-2.58c-.24,1.62-.4,2.71-.59,4,2.61-.08,5.25-.46,7.44,1.75a11.94,11.94,0,0,1,8.76-1.25c2.88.57,5.84.71,8.77,1a11.2,11.2,0,0,0,7.95-1.94c.76-.53,2.1-.26,3.18-.29a10.68,10.68,0,0,1,1.09.25c1-2.44,4,.68,5-1.81.15-.38.66-.62,1.08-1l2.4,1.89,1.35-1.89c2.15,2.12,4.55,1.87,7.2,1.51,5.69-.77,10.72,2,16,3.51,3.61,1,7,2.63,9.3,5.6,1.57,2,2.38,4.66,3.53,7l-.79.67-7.42-3.43c-.16,2.9-2.07,1.76-3.82,1.35a11.33,11.33,0,0,0-2.54,0l-.09.75-2.24-1.34-.56,2.94-7.72-4.27c.06.94.12,1.8.15,2.27l-9.83-.77v3c-.89-.13-1.78-.24-2.67-.38-.39-.06-.77-.17-1.16-.25l-.27,0,.14.17c-.53.47-1.1,1.36-1.6,1.32a33,33,0,0,1-4.55-.92c0-.13-.07-.26-.11-.4l-.21.14.26.31c-.78.06-1.72.44-2.33.14-2.62-1.29-5.15-2.78-8-4.35l-.37,4.38-.68.17c-.71-1.66-1.42-3.33-2.14-5,.39,2.92-1.81,3.38-3.75,3.83-2.47.57-5,.88-7.51,1.27-.39.06-1,.15-1.17-.05-2.09-2.18-4.41-.47-6.63-.5s-4.43-.38-6.65-.62c-.38-.05-1-.13-1.1-.39-1.51-2.52-4.39-1-6-2-3.09-1.86-6.84-.15-9.66-2.43-.3-.23-.91-.14-1.36-.1-1.9.18-3.75,1.45-5.73,0-.29-.21-1.28.43-1.89.77-1.32.74-2.57,1.61-3.92,2.3a11.25,11.25,0,0,1-2.49.5c1.65-5,4.22-8.61,9-10a30,30,0,0,0,8.18-4.23c2-1.31,4.78-1.37,7.21-2Zm52.32,16.32.16.1-.16-.1L477,442Z"/><path class="cls-8" d="M501.64,450.36a69.65,69.65,0,0,1-5,5,64,64,0,0,1-32.85,14.46c-15.18,2-28.76-1.84-40.54-11.75-2.07-1.74-4.24-3.37-6.31-5.11a9.5,9.5,0,0,1-1.29-1.65,31.21,31.21,0,0,1,14.26,2.3c12.39,5.31,25.35,7.45,38.63,4.74,9.35-1.9,18.47-4.95,27.72-7.39A36.89,36.89,0,0,1,501.64,450.36Z"/><path class="cls-2" d="M438.36,340.13a36.88,36.88,0,0,0-20.68-5.61,10.8,10.8,0,0,1-3.78-.35c-7.34-2.69-14.49-1.27-21.62.77-6.45,1.84-12.86,3.83-19.34,5.58-4.95,1.34-8.27,1.7-11.52-.25l8.46-3.75-.4-.41c.35-.58.58-1.46,1.08-1.67a10.31,10.31,0,0,1,2.81-.39c1.47-.18,3-.13,3.32-2.24.06-.45.85-1,1.39-1.16,5-1.19,9.25-4,13.75-6.22,3.74-1.88,7.81-2,12.06-2.06,10.78-.19,20.38,3.44,29.84,7.8C437.52,331.92,439.12,335.61,438.36,340.13Z"/><path class="cls-2" d="M481.42,330.85c2.75-2.9,6.4-3.78,10.12-4.41,4.92-.83,9.86-1.57,15.18-2.4l-.49,2.38c2.89,0,5.67-.07,8.43.05a8.44,8.44,0,0,1,2.43.95,20.23,20.23,0,0,0,3.53,1.29c2.74.5,5.51.84,8.28,1.16a17.88,17.88,0,0,1,14.35,9.69c-4.85-.62-9.78-1.33-14.73-1.87-5.94-.64-11.89-1.11-17.84-1.71-11.38-1.15-22.11,2.11-32.92,4.84-1.44.36-3,1-2.82-1.54a43.19,43.19,0,0,1,2.35-3.72C478.58,333.92,480,332.41,481.42,330.85Z"/><path class="cls-8" d="M420.62,449.57c1.26-.76,6.93-.8,8.58-1,9.28-1.21,18.49-1.78,27.79.35,2.86.65,6.1-.57,9.18-.69,5.33-.2,10.68-.4,16-.23,4,.13,7.9.84,11.85,1.31a6.47,6.47,0,0,1,1.32.46c-5.06,1.66-10.08,3.45-15.19,5-12.43,3.66-25,4.74-37.77,1.75C436,455,426.16,453.23,420.62,449.57Z"/><path class="cls-2" d="M434.63,482.23c.41-3,.82-6.08,1.32-9.73a24.27,24.27,0,0,0,2.16,1.76,5.34,5.34,0,0,0,2.1.91c5.12.38,10.24.89,15.37.92a97.67,97.67,0,0,0,11.68-1,21.48,21.48,0,0,0,3.87-1.18l.35.66,1.08-1.8,2.12,1.93,5.29-5c3.88,4.64.31,8.53-.39,12.88l-1.77-1.07L476.43,484l-1.26-2.76-4.35,5.9-1.3-4.1-3.33,2.66L465,483.82c-1.46,2.27-2.8,4.32-4.14,6.39l-4.21-3.86c-.77,1.08-1.56,2.21-2.62,3.71-.26-1.39-.45-2.42-.64-3.45l-.46-.14-2,4.69-3.05-6-1.9,2.45-1.71-1.46-1,1.25-5.05-6.81-2.84,1.82Z"/><path d="M444.2,418.37l-1.56-3.32.57-.4a19.27,19.27,0,0,1,1.25,1.61,51.74,51.74,0,0,0,3.73,6.12,13.66,13.66,0,0,0,21.13-.41c1.41-1.76,3.08-3.32,4.64-5l.78.62-1.58,2.51c7,2.09,13.76-1.74,15.44-8.64a7.83,7.83,0,0,0-1.36-6.8c-1.65-2.26-3.23-4.56-4.79-6.88a10.85,10.85,0,0,1-.82-2l.51-.27a5.27,5.27,0,0,1,.76.73,74.09,74.09,0,0,0,4.61,6.69c6.3,7.33-.59,17-6.83,18.38a8.45,8.45,0,0,1-2.83.39c-4.25-.58-7.5,1.39-10.79,3.68-6.81,4.73-14.63,3.72-19.94-2.58a9.6,9.6,0,0,0-7.93-3.61c-8,0-12.13-4.16-12.45-12.27,0-.3-.07-.61-.15-1.34l-2.25,2a76.32,76.32,0,0,1-19.48,12.54c-5,2.24-10.28,4-13.19,9.31l-.56-.4c.34-.77.47-1.8,1.05-2.28a51.17,51.17,0,0,1,6.82-5.14c6.48-3.75,13.23-7.05,19.6-11,3.37-2.07,6.17-5.05,9.61-7.94-.09,1.22-.14,2.17-.23,3.13-.7,8.28,5,12.77,11.24,12.24a25.64,25.64,0,0,1,4.75.46l.33.15Zm28.4,2.18-.15.12s.08.13.13.13.1-.07.15-.11Z"/><path d="M492,351.36l-9.68,4.88-.42-.66a14.53,14.53,0,0,1,1.47-1c4.51-2.41,9.17-4.57,13.52-7.24,8.35-5.13,16.71-4.38,25.22-.7.88.38,1.74.82,2.58,1.27,5.13,2.72,10.13,5.85,16.44,4.82l0,.75a6.4,6.4,0,0,1-2.45.49c-3.16-.7-6.3-1.54-9.41-2.44a36,36,0,0,1-3.71-1.5l-6.93-3.9c-.17,2.51-.29,4.36-.43,6.44l3.7-.89,3.69-.87c-.41.42-.75,1-1.24,1.21-8.46,2.95-17.25,3.18-26.07,3.09-.2,0-.39-.24-.59-.37l3.26-.89-1.38-2L503,352c.81.46,1.61,1.28,2.42,1.29,2.54,0,5.07-.3,7.61-.44,3-.16,3.44-.76,3.51-3.76.06-2.18-1.3-2.7-3-3s-2.41.73-2.48,2.35a2.44,2.44,0,0,1-.4,1.36c-.4.54-.94,1.27-1.48,1.32s-1.21-.57-1.66-1.05a4.75,4.75,0,0,1-.65-1.52c-.51-1.29-1-2.64-2.8-2.27s-2.68,1.32-2.44,3.19l-2.2.52-.4-2.54Z"/><path d="M420.88,449.69c1.55.08,15.14,5.28,21.52,6.78,12.75,3,25.34,1.91,37.77-1.75,5.11-1.51,10.13-3.3,15.19-5,.22-.06.07,0,2.59-.46,1-.12,3.36-.26,4.46-.34.46,0,1.06-.21,1.14.4,0,.24,0,.73-.47.8-1.08.17-.32.07-1.44.2a36.89,36.89,0,0,0-5.39.61c-9.25,2.44-18.37,5.49-27.72,7.39-13.28,2.71-26.24.57-38.63-4.74a31.21,31.21,0,0,0-14.26-2.3c-2.2.41-1.92-.82-1.08-1.44A14.35,14.35,0,0,1,420.88,449.69Z"/><path d="M420,352.8c-.47.37-.88.91-1.41,1.07-7,2.12-14,3.07-21.24,1.31a8.86,8.86,0,0,1-1.83-.95l2.7-.21-.19-1.83,2.26.66c.59,2,2.39,1.67,3.76,1.73,2.21.1,4.46-.4,6.66-.25,2.45.16,3.19-1,3.48-3.13s-.7-3.12-2.6-3.55-2.47.65-2.95,2.24a9.21,9.21,0,0,1-1.82,2.46,10.14,10.14,0,0,1-2.1-2.44c-.57-1.42-1-2.82-2.83-2.62a2.56,2.56,0,0,0-2.55,3.08c-2.23.69-1.66-1.3-2.14-2.69l-7.62,4.6-3,1.22c0-.47-.06-.71,0-.76,4.22-2.69,8.25-5.89,13.4-6.56a50.41,50.41,0,0,1,10-.47,48.22,48.22,0,0,1,10.25,1.89,114.46,114.46,0,0,1,10.93,4.27c1.41.59,2.73,1.38,4.09,2.08l-.31.66-10-3.79-8.34-3.54c-.53,2.37-1,4.32-1.39,6.23Z"/><path d="M371.14,354.6c5.12-3.22,10.12-6.65,15.41-9.56,1.91-1.05,4.48-.92,6.76-1.24,4.89-.7,9.92-.84,14.64-2.14A23.36,23.36,0,0,1,427,344.31c2,1.22,4,2.55,6,3.83l-.49.79-1.89-1c-2.72-1.51-5.37-3.18-8.18-4.51-4.21-2-8.54-1.87-13.1-.9a154.65,154.65,0,0,1-17,2.45,17.71,17.71,0,0,0-8.55,2.71q-4.86,3.3-9.78,6.52a20.91,20.91,0,0,1-2.48,1.18Z"/><path d="M535.4,350.43a19.9,19.9,0,0,1-1.84-.78c-11.07-5.94-23-8-35.4-7.58a9.19,9.19,0,0,0-4.4,1.55c-3.89,2.51-7.63,5.25-11.46,7.84a19.67,19.67,0,0,1-2.76,1.23c.17-.69.15-1,.29-1.11,4.34-3,8.61-6.06,13.11-8.78a13.26,13.26,0,0,1,6.23-1.89c12-.33,23.51,1.79,34.25,7.41.8.42,1.56.92,2.34,1.38Z"/><path d="M481.42,330.85c-1.38,1.56-2.84,3.07-4.13,4.71a43.19,43.19,0,0,0-2.35,3.72c-.43,1.3-1.2,2.61-1.23,3.93a132.64,132.64,0,0,0,3.17,32.09,2.16,2.16,0,0,1-.33,1.68,4.7,4.7,0,0,1-.73-1.22,125.26,125.26,0,0,1-3.25-33.51c.22-5,4.09-8.46,7.94-11.45C480.69,330.66,481.11,330.83,481.42,330.85Z"/><path d="M428.48,359.25a27.58,27.58,0,0,1-2.63,2.54c-4.07,2.9-8.83,3.51-13.63,3.95-7.22.66-14.13-1.12-21.08-2.59-1.79-.38-3.62-.57-5.44-.85l.13-.93c2.12.26,4.26.49,6.38.8,5.67.85,11.31,2,17,2.49a28.61,28.61,0,0,0,9.7-1.17C422,362.64,424.8,360.93,428.48,359.25Z"/><path d="M498.39,409.83c5.2,6.48,12.91,9.15,19.59,13.39,4.3,2.72,8.16,5.92,10.19,10.79a28,28,0,0,1,.91,3.2l-.55.23c-.18-.2-.48-.37-.54-.6-1.43-5.46-5.17-9.11-9.69-12-3.76-2.4-7.82-4.33-11.58-6.74a92.08,92.08,0,0,1-7.74-6,8.58,8.58,0,0,1-1.28-1.71Z"/><path class="cls-9" d="M503,352l-3.38-.19,1.38,2-3.26.89c-3.89,0-4.72-.49-5.71-3.34l7-3.91.4,2.54,2.2-.52,3.32.8-.05.59Z"/><path d="M485.16,361.54c5.28,1.28,10.5,2.88,15.85,3.74s10.83,1,16,1.38c-2.62,2.64-25-.25-32-4.51Z"/><path class="cls-9" d="M389.58,352.28l7.62-4.6c.48,1.39-.09,3.38,2.14,2.69l3.24.84,0,.6-2.26,1-2.26-.66.19,1.83-2.7.21Z"/><path class="cls-9" d="M420,352.8l-4.72.71c.42-1.91.86-3.86,1.39-6.23l8.34,3.54Z"/><path class="cls-9" d="M525.61,350.77l-3.69.87-3.7.89c.14-2.08.26-3.93.43-6.44l6.93,3.9Z"/><path d="M433.57,368.35c5.87-3.56,8.16-7.91,3.07-14,2.51.7,4.07,3.58,4,6.56A8.35,8.35,0,0,1,433.57,368.35Z"/><path d="M486.31,367.08c-2.68-1.25-5.46-2.32-8-3.82-1.49-.89-1.48-2.77-.59-4.63.14.06.4.13.39.18-.25,3.28,1.75,4.67,4.5,5.53,1.39.43,2.73,1.08,4.09,1.63Z"/><polygon class="cls-10" points="482.18 477 482.23 477.18 482.08 477.15 482.18 477"/><path class="cls-10" d="M424.8,425.76l.07-.15-.07.15Z"/><path d="M470.1,570.39c-3.41,6-19.24,8.61-25.43,3.53C453.75,577,462.24,575.94,470.1,570.39Z"/><path d="M308.18,328.35c.56,3.19,1.12,6.38,1.65,9.58.57,3.38,1.16,6.75,1.63,10.14a3.18,3.18,0,0,1-.87,2.29c.87-8.27-4.7-15.76-2.76-24.41a12.64,12.64,0,0,1,5.81,5.77c3,5.65,2.92,11.65,1.95,17.75-.78,4.89-1.68,9.76-2.16,14.68a19.48,19.48,0,0,0,5.81,16.37c2.31,2.31,4.12,5,3.8,8.46a15.21,15.21,0,0,1-.68,2.5l-.69-.18a4.47,4.47,0,0,0,.23-1.65c-.57-2.18-.59-5-2-6.36-9-8.54-8.62-18.78-6.25-29.61,1.21-5.55,2.06-11.17.75-16.86C313.53,333,311.52,329.85,308.18,328.35Z"/><path class="cls-11" d="M465,155.15l-.51-.31.69.1Z"/><path class="cls-6" d="M471.81,444l-.26-.31.21-.14c0,.14.08.27.11.4Z"/><path class="cls-6" d="M477.12,442.08,477,442l.17.08Z"/><path class="cls-6" d="M477.12,442.08l.16.1-.16-.1Z"/><path class="cls-6" d="M478,443.57l-.14-.17.27,0Z"/><path class="cls-6" d="M444.2,418.37l.08.39-.33-.15Z"/><path class="cls-6" d="M472.6,420.55l.13.14c-.05,0-.1.11-.15.11s-.09-.09-.13-.13Z"/><path class="cls-1" d="M503,352l1.93-1.1.05-.59-3.32-.8c-.24-1.87.72-2.84,2.44-3.19s2.29,1,2.8,2.27a4.75,4.75,0,0,0,.65,1.52c.45.48,1.14,1.1,1.66,1.05s1.08-.78,1.48-1.32a2.44,2.44,0,0,0,.4-1.36c.07-1.62.68-2.64,2.48-2.35s3,.78,3,3c-.07,3-.55,3.6-3.51,3.76-2.54.14-5.07.46-7.61.44C504.58,353.24,503.78,352.42,503,352Z"/><path class="cls-1" d="M400.29,352.85l2.26-1,0-.6-3.24-.84a2.56,2.56,0,0,1,2.55-3.08c1.87-.2,2.26,1.2,2.83,2.62a10.14,10.14,0,0,0,2.1,2.44,9.21,9.21,0,0,0,1.82-2.46c.48-1.59,1.07-2.67,2.95-2.24s2.89,1.43,2.6,3.55-1,3.29-3.48,3.13c-2.2-.15-4.45.35-6.66.25C402.68,354.52,400.88,354.83,400.29,352.85Z"/><polygon points="296.34 527.34 307.78 523.54 303.49 571.62 307.07 592.3 317.01 609.41 328.74 619.67 338.19 624.88 352.03 634.17 366.86 637.75 374.68 639.38 382.66 641.99 390.48 643.13 473.06 645.41 537.9 616.09 570.64 573.5 579.76 534.48 579.76 526.77 589.78 532.17 594.59 540.83 594.59 550.5 592.47 563.47 580.58 607.78 553.7 643.62 529.75 658.44 494.57 671.63 460.52 675.87 417.52 671.47 369.3 657.3 318.64 645.9 305.93 625.53 281.66 590.68 296.34 527.34"/></g></svg>