<svg xmlns="http://www.w3.org/2000/svg" viewBox="0 0 460.05217 525.29589">
  <defs>
    <style>
      .cls-1 {
        fill: #63b3e7;
      }

      .cls-2 {
        fill: #ffcea5;
      }

      .cls-3 {
        fill: #dead70;
      }

      .cls-4 {
        fill: #a37844;
      }

      .cls-5 {
        fill: #4b3f99;
      }

      .cls-6 {
        fill: #f7a69b;
      }

      .cls-7 {
        fill: #fff;
      }
    </style>
  </defs>
  <g id="Layer_2" data-name="Layer 2">
    <path class="cls-1" d="M214.64593,425.60854a229.73312,229.73312,0,0,1,96.27279-187.16363,198.757,198.757,0,0,1,6.68,38.50807c.9275,12.25322,2.35168,22.70174-.78929,39.91484-3.18592,17.45945,48.03112,217.54474,101.6042,209.29647,46.28271-7.12581,71.58973,21.39656,133.12124-65.81534,2.328-3.29964,9.408-10.18069,11.14911-18.24164,12.1876-56.42669,6.45285-210.22163,14.43238-204.59264A229.74957,229.74957,0,0,1,674.6981,425.60854c0,127.0399-102.98619,230.02608-230.02609,230.02608S214.64593,552.64844,214.64593,425.60854Z" transform="translate(-214.64593 -130.53453)"/>
  </g>
  <g id="Layer_2_copy" data-name="Layer 2 copy">
    <path d="M304.37572,524.66c38.72543-7.20119,60.58121,32.785,187.62112,32.785s69.17837-37.61821,90.80689-28.96553c5.71584,2.28667,52.098,12.874,58.71347,16.20613,0,0-3.90553,7.3294-14.10068,20.64376a230.0543,230.0543,0,0,1-363.88328,2.07254c-7.65679-9.76771-13.12312-17.28113-15.968-23.06738-3.20051-6.50952,52.31544-17.79224,56.8105-19.67448" transform="translate(-214.64593 -130.53453)"/>
  </g>
  <g id="Layer_5" data-name="Layer 5">
    <path class="cls-2" d="M570.78885,342.22c0,34.36422,3.72093,68.649-6.74815,92.79343-12.73114,29.36134-19.43331,59.94905-40.47294,59.94905-20.32406,0-69.2634,28.82985-69.2634,28.82985S375.905,529.7315,375.905,493.946c0-38.07676-64.98623-255.5011-64.98623-255.5011s113.92832-15.89054,133.0988-15.89054c16.84982,0,133.09881,14.9603,133.09881,14.9603S570.78885,299.53388,570.78885,342.22Z" transform="translate(-214.64593 -130.53453)"/>
  </g>
  <g id="Layer_0_Image" data-name="Layer 0 Image">
    <g>
      <path class="cls-3" d="M577.96535,334.00787c-.17326,3.90349-.2867,7.5936-.51346,11.27672-.27281,4.43194-.64207,8.85791-.96955,13.28648q.27466.65008.54938,1.30014c-.476,1.85095-.95192,3.70187-1.54729,6.01714-.58453-1.72582-1.02632-3.03029-1.66441-4.91432-1.8044,11.09321-4.44879,21.344-3.20895,32.10753.65262,5.66546.15832,11.463.18194,17.201q-.01423.58145-.02854,1.16285c-.83051,11.75555-1.50592,23.52481-2.54086,35.26231-.81679,9.264-4.44961,17.51-9.77677,25.13443-5.56524,7.96509-10.73549,16.205-16.2085,24.23613-2.86951,4.21061-6.01758,8.23143-9.0399,12.33785q-.20373.206-.40764.412l.03674-.03761q-.43788.48357-.8758.96715c-7.65627,6.25546-15.336,12.48246-22.96307,18.77338-10.2934,8.49035-21.00378,15.87656-34.451,18.9938-9.05593,2.09918-17.90233,3.90282-27.16187,2.43668-16.81128-2.66179-31.76546-10.13548-46.11949-18.69521-5.14793-3.0699-9.22389-8.01539-13.57875-12.31781-5.68026-5.61188-11.20937-11.3809-16.67985-17.19856a76.82331,76.82331,0,0,1-4.90231-6.38719c-.11619-.63152-.70124-.72034-.81738-1.35187-.19216-.14783.08015-.37507-.112-.52284l-.20768-.39726a32.38986,32.38986,0,0,0-8.17336-15.1403c-10.87728-11.54792-16.382-25.497-17.921-41.15561-.58424-5.94445-1.28608-11.87751-1.95873-17.813a9.80605,9.80605,0,0,0-.45891-1.60417q.0003-.63018.00108-1.25954c-.40421-4.66034-.82511-9.31927-1.20758-13.9814-.32959-4.01754-.61541-8.03863-.92148-12.0576,0,0-1.02666-1.44891-.67182-1.545-.4297-.61283.44647-.58124.44647-.58124-.1565-3.58365-.3922-7.166-.45094-10.75125-.08771-5.35257-.02475-10.70754-.08827-16.06069a25.1874,25.1874,0,0,0-.46163-3.296l.02789-.72826c-.71792-4.45772-1.21638-8.96558-2.21924-13.35826-.89651-3.92681-2.34946-7.72658-3.55687-11.5824.18545-.60437.7093-1.37693.50516-1.78755-2.6511-5.33282-5.8512-10.248-11.03965-13.5206.30033-2.60458.70008-5.20216.885-7.81491,1.25724-17.76876.99193-35.40826-3.95781-52.73777a62.2447,62.2447,0,0,1-2.66926-22.01284,34.60648,34.60648,0,0,1,12.51043-24.25547,2.59836,2.59836,0,0,1,.88972-.30075,53.96159,53.96159,0,0,0-2.14473,6.55809,28.37568,28.37568,0,0,0-.07049,5.46853c.64968-.25175.79734-.53673.791-.81822-.15635-6.89313,2.88472-12.41278,7.84078-16.79516,3.80728-3.36658,8.09412-6.19084,12.16846-9.2553.55869-.4202,1.12157-.83483,1.68252-1.252l-.51026-.68026a72.01057,72.01057,0,0,0-16.47032,12.47759c-4.30585-.49477-7.43816-2.28315-9.11983-5.47161,2.59474-.65519,5.08524-1.36845,7.6149-1.89244,1.62153-.33586,2.12608-1.07791,2.14371-2.76708a22.21573,22.21573,0,0,1,8.3756-17.33056c4.17958-3.4914,8.848-6.39759,12.94843-9.31412-1.16857-.44268-2.86521-1.08538-5.121-1.93993,9.06255-8.30711,18.9467-13.963,29.61967-18.59285l-4.19092-2.83454.1091-.83933c2.56134-.62625,5.10246-1.35548,7.68727-1.862,16.1985-3.17422,32.39273-6.37393,48.61916-9.4,5.871-1.09487,11.81382-1.84437,17.74772-2.55093,5.971-.711,11.10753,1.864,16.035,4.74144,6.53151,3.81416,13.70215,5.03459,21.05833,5.75563,8.94475.87674,18.10931.75516,26.45646,4.73062a35.73787,35.73787,0,0,1,7.902,5.27482c4.21594,3.65518,8.00508,7.806,12.25734,11.41414a21.077,21.077,0,0,0,6.5952,3.29738c3.11273,1.1083,5.34293,2.94909,6.10441,6.17814,1.35428,5.743,4.65358,10.14237,8.73,14.2858a31.83334,31.83334,0,0,1,8.94756,16.63334c.16184,1.87049.337,3.73973.48334,5.61122.63944,8.17523-1.72758,15.95207-3.14765,23.85631a14.50782,14.50782,0,0,0-.01969,2.52736l.67418.03027c1.58677-8.23318,3.87521-16.34285,4.04109-24.82618,3.60709,4.93511,7.58813,9.64421,10.738,14.85562a78.46193,78.46193,0,0,1,10.38633,29.14784c1.41961,9.445,3.72187,18.79544,3.24263,28.45949q-.79181,15.96849-1.58865,31.93675a5.712,5.712,0,0,1-.42738,1.35651c.005-.00416-.1735-.04026-.1735-.04026l-1.30922-5.62848c-.12257.02013,1.60529,5.64861,1.48272,5.66874.41012,2.11769.53654-1.15945-.77738.68337-.53521.77506-2.1434,1.41528-2.67866,2.1903M344.205,281.23611l.46424-.39981c3.16986.2811,4.07722,1.397,3.47686,4.531-.73538,3.83886-1.38738,7.70874-2.40814,11.47506-3.21718,11.87066-6.60226,23.69572-9.88708,35.54819-.41083,1.48236-.61023,3.02329-1.03251,5.173l3.99067-2.78718c-.14976,2.38028-.37388,4.43628-.39328,6.49418-.12416,13.17729-.451,26.37811,1.42673,39.467,1.60679,11.20054,3.54794,22.35348,5.39508,33.51855a7.9035,7.9035,0,0,0,1.08726,2.35292,27.07885,27.07885,0,0,1,2.0403,3.53127c1.319,3.589,2.38561,7.27137,3.72867,10.85057a5.7453,5.7453,0,0,0,2.0722,2.38186,6.12145,6.12145,0,0,1,2.99355,4.37221,3.35934,3.35934,0,0,0,1.45122,2.13472,7.70909,7.70909,0,0,1,3.835,6.26742,10.45048,10.45048,0,0,0,1.15368,2.63865c.56707,1.3449,1.70075,2.78174,1.53891,4.04426-.60967,4.75535,1.48415,8.46955,3.9968,12.24422l1.25947-3.77318c1.2856,3.08625,2.37255,5.69552,3.567,8.56284.87293-1.3106,1.54322-2.317,2.43815-3.66065,2.99048,3.36867,5.70076,6.42176,8.50128,9.57642.95045-1.58713,1.722-2.87546,2.6158-4.368l2.78821,5.88237c1.16947-2.39115,2.10009-4.29386,3.03067-6.19655l.727.1989V477.411c.80273-.614,1.23158-.9421,2.01-1.53756-1.5327,5.51138.59115,10.02706,1.80269,14.93777l1.73326-1.5462c-1.18963,4.90351,1.99565,7.45169,4.12489,10.46827a2.32459,2.32459,0,0,0,.73054.48492,14.90124,14.90124,0,0,1,1.9885,1.22116,19.04724,19.04724,0,0,1,1.77562,2.0056l.65939-2.84244c4.20923,2.90953,8.22181,5.68312,12.475,8.623,2.29529-.79477,3.3723-.4374,5.20869,1.97953,1.34783,1.77392,3.36519,3.44953,5.26438,2.04732,2.88-2.12631,5.55906-1.19238,8.37375-.66937a13.92064,13.92064,0,0,1,2.83117,1.25414c2.4573-1.5569,5.46052-1.3401,7.51415,3.1759,3.20554-3.179,3.779-3.19365,6.98607-.176.79081.74414,1.57928,1.49074,2.04964,1.93482,1.06588-1.4574,1.76408-3.38337,3.00469-3.842,1.30447-.48217,3.128.43992,4.474.7,1.00245-1.19853,1.954-3.392,3.326-3.69767,1.56366-.34829,3.50232.98689,5.42088,1.639.18666-.76734.33124-1.37074.4803-1.973.64635-2.611.94016-2.81853,3.36832-1.49818,1.76.95689,3.35285,2.22129,5.05312,3.37078.08827-1.61555.178-3.25787.28075-5.13908,2.73463.428,5.20008.81386,7.9808,1.249-.32028-2.424-.5962-4.51219-.89877-6.80227,1.56152-.128,2.95734-.24234,4.46056-.3655-.265-1.89973-.50965-3.654-.75433-5.40832l.43552-.12036c.34952.64934.69909,1.29862,1.20955,2.24684.25208-.83912.40131-1.33588.65227-2.17137.96047.91137,1.78406,1.69284,2.63836,2.50348.26812-.8976.56678-1.89732.89355-2.99127.84247.50965,1.43731.86947,2.63116,1.5917.97752-2.6107,1.8692-4.99219,2.79949-7.47683.42715.25266.90861.5374,2.054,1.2148.42194-2.50811.85453-4.57172,1.0967-6.65745.25717-2.21438.21932-4.46655.54264-6.66809a9.52044,9.52044,0,0,1,1.32785-2.6586c.717.40553,1.434.81108,2.30221,1.30219.57767-2.21265,1.14381-4.38141,1.80328-6.90745l.50707,2.03918.58037.03926c.67072-3.06738,1.34145-6.13476,1.90236-8.69985.39311,2.19313.87287,4.87016,1.43145,7.98682.83754-1.04507,1.297-1.61838,1.93406-2.41336.25693,1.432-.22711,3.2572,1.993,2.24579.11356,1.54927.21152,2.88574.34295,4.679.77971-1.3079,1.26029-2.114,2.03637-3.41581.11584,1.56932.183,2.47787.2983,4.03986,1.0067-1.95313,1.72406-3.345,2.5572-4.96154.17192,1.04892.28893,1.76268.52038,3.175,1.51382-3.7241,2.75332-6.77338,4.0473-9.9566.33041.46034.49611.69117.41262.5748.982-1.64631,2.03373-3.40965,3.2158-5.39147.73348.79766,1.09681,1.19282,1.67771,1.82452.3634-1.69523.61594-3.02329.936-4.33485.69281-2.83808,2.64111-4.46825,4.53428-4.10716,1.6013-3.54844,3.17841-7.04323,4.80339-10.64417l2.48151,1.62767c1.90892-3.194,3.7357-6.25057,5.56107-9.30486,2.46914,1.50135,3.88149.92886,4.38686-2.01067.85054-4.94684,1.59931-9.92162,2.11172-14.91328.54527-5.3122,1.00828-10.65484,1.07168-15.98933q.14053-11.8256-.38186-23.65573c-.25447-5.64539-1.29662-11.25636-1.52684-16.90149-.28013-6.86657-.39785-13.77082-.01429-20.62681.74806-13.37268,1.88935-26.72344,2.89072-40.08159a8.028,8.028,0,0,1,.47766-1.589,21.11087,21.11087,0,0,0,1.31537-4.66011c.234-4.54245.18861-9.09928.253-13.65046,3.72562,3.38651,6.96884,7.09494,7.013,12.49262.07447,9.11142.01125,18.22389.03925,27.33583a15.98554,15.98554,0,0,0,.38121,2.45438l.6112-.061a7.4059,7.4059,0,0,0,.321-1.51775c.01606-9.59165.297-19.19526-.09855-28.77074-.25887-6.26651-4.53621-10.621-8.93543-14.64559-1.41709-6.42258-2.75186-12.8649-4.2825-19.26029-.90018-3.7612-2.11143-7.44791-3.18281-11.16812,5.31193,1.24529,9.5182,4.0761,12.05953,8.953,1.35439,2.59913,2.2674,5.42763,3.393,8.14708.29883.722.64711,1.42359.97272,2.13457l.94682-.402c-1.32106-3.34618-2.4317-6.79541-4.00911-10.016-2.86752-5.85466-7.90388-8.94524-14.1556-10.24289-7.46432-22.99208-24.85787-37.35772-43.86715-50.91523-.17965,1.77-.308,3.03459-.45668,4.49956-1.0077-.6502-1.69125-1.0912-2.46129-1.58805-.2734,2.80378-.2782,2.78985-2.74588,3.64352-2.41664.836-4.79853,1.7815-7.24154,2.529-1.405.42986-1.5102,1.118-1.34514,2.46859a19.76849,19.76849,0,0,1,.10916,6.83291c-1.38926,5.75792-8.58914,10.75409-15.36272,11.07587-6.69305.318-13.38964.89029-20.081.84191-11.33247-.082-22.67763-.30673-33.98613-.98955a26.47628,26.47628,0,0,1-15.26253-5.77208c-2.228-1.80983-4.27591-3.84053-6.42015-5.75467a18.44849,18.44849,0,0,0-7.97264-4.63226c.28037,1.94631.51709,3.5897.75381,5.23308l-.65277.31756a25.008,25.008,0,0,0-10.62032-9.69158,24.01453,24.01453,0,0,0-14.53954-2.35986c.52371.58711.83288.93364,1.142,1.28024,2.53846,2.84641,2.13126,4.28338-1.469,5.24961-2.98389.80083-5.96157,1.625-8.27868,2.25763.28227,1.84409.9106,3.50449.67453,5.03124-.28878,1.86772-2.15025,1.81012-3.70228,1.7928-4.31267,2.04507-8.91026,2.02234-13.53729,1.94337-4.514-.077-4.8448-.37676-4.77454-4.94763.01576-1.02593-.14526-2.05459-.22489-3.082l-.69964.07547c-.14226,1.31237-.30794,2.6227-.42213,3.9375-.28477,3.27876,1.28789,5.10352,4.60611,5.34116,1.50187.10755,3.00735.16494,4.51119.24513a45.27005,45.27005,0,0,0-4.003,2.84956c-.63668.55542-1.39333,1.59534-1.28168,2.28451.6743,4.16246-1.67654,7.244-3.57744,10.429-1.52291,2.55173-3.43008,4.87417-5.16562,7.29926l-.07.21545.12354-.16232c2.58976-.9491,4.753-3.20064,8.4143-2.65821-2.17813,2.68906-4.1013,5.06334-6.02452,7.43764l-.114.10568.0932-.126c1.17694-.1456,2.35391-.29124,4.13431-.51155-.9007,1.38688-1.45423,2.21435-1.98263,3.0576q-2.05374,3.27713-4.08888,6.56616l-.07682.20153.11945-.15928c1.17978-.525,2.3596-1.05,3.84729-1.71208-1.4201,5.10295-2.743,9.85655-4.18775,15.04819,1.63778-.58822,2.681-.96293,3.85189-1.38346-.24246,3.77329-.46034,7.16426-.67737,10.55613l-.57586.03815a10.08051,10.08051,0,0,0-1.67845,1.54705c-1.99089,2.8938-3.97552,5.79615-5.83719,8.77371-4.07177,6.51226-7.93225,13.13449-9.35171,20.83931a16.5704,16.5704,0,0,0-.12443,2.11145c.76307-.26941,1.11311-.62109,1.16573-1.01279.86118-6.40723,3.79883-11.99162,7.01548-17.42871C338.10472,290.77049,341.203,286.03181,344.205,281.23611Zm120.9985-126.3c1.51837.4857,3.08206.86322,4.547,1.47647,5.38022,2.25219,10.88053,4.28581,16.05354,6.94952,8.94405,4.60546,17.902,9.26018,26.42707,14.57866,6.656,4.15247,12.01061,9.83782,13.82778,17.97693.056.25061.29964.45929.45586.68753l.62759-.18235a27.641,27.641,0,0,0-.89578-3.92185c-3.00691-7.86024-8.88047-13.31067-15.89367-17.34586-9.06422-5.21534-18.36264-10.06166-27.77546-14.62275A147.74347,147.74347,0,0,0,449.59717,149.04c-.989-.21576-2.01484-.26306-3.02353-.38861l-.30861.794c23.38977,6.49242,41.523,20.00417,54.56388,40.44866a3.38914,3.38914,0,0,0-.47057-2.09587,84.65,84.65,0,0,0-20.97357-23.15149c-4.557-3.46853-9.5606-6.35026-14.36277-9.49667l-.513-.31368ZM332.15886,186.73069l.34693.79988c.96982-.3554,1.96368-.65656,2.90561-1.07475,7.74231-3.43726,15.38191-7.12635,23.23-10.30058,16.14424-6.52969,32.73006-10.72408,50.41763-9.21067,15.277,1.30712,28.568,6.99826,39.31606,17.81863,6.16646,6.20794,11.43384,13.30886,17.10929,20.00492.45117.53234.9285,1.0425,1.39368,1.56294l.6092-.48713a20.92321,20.92321,0,0,0-1.3-2.07895c-4.07491-5.12521-7.966-10.41707-12.31919-15.29574a67.76708,67.76708,0,0,0-22.84257-17.15676c-10.2431-4.58741-21.0003-6.193-32.20351-5.80474a106.38763,106.38763,0,0,0-33.86306,7.027c-8.37213,3.141-16.55956,6.78013-24.7916,10.28583C337.43783,183.983,334.825,185.4195,332.15886,186.73069Zm117.46547,37.55994.53118-.56267c-.36923-.49119-.71092-1.0062-1.11182-1.47a145.83979,145.83979,0,0,0-23.4576-21.47977c-6.60588-4.92041-13.59149-9.06806-21.97195-10.04335-5.30508-.61739-10.63157-1.15182-15.96363-1.41333-8.39754-.41182-16.73277.17086-23.96353,5.03053-5.0245,3.37689-9.68642,7.29366-14.49395,10.99054-.10538.081-.01324.41895-.01324,1.10672.85933-.52031,1.529-.84592,2.10764-1.29013,2.34308-1.79872,4.745-3.53437,6.96756-5.47393,7.1828-6.26817,15.454-9.49775,25.02158-9.11238,5.17954.20862,10.34971.64109,15.52817.88633a41.58544,41.58544,0,0,1,21.95091,7.37679,156.23233,156.23233,0,0,1,27.457,24.18147A18.4118,18.4118,0,0,0,449.62433,224.29063Zm44.91993-3.85653c2.06414-2.14938,2.64668-6.943,2.04006-10.94994-1.40678-9.29141-6.5342-16.46857-13.34833-22.374-7.23109-6.26669-14.81259-12.15707-22.50305-17.85836-8.92743-6.61831-18.67014-11.72732-29.71857-13.8995-2.0761-.40816-4.20264-.5596-6.30592-.82949l-.13562.90161a7.7014,7.7014,0,0,0,1.64584.49929,50.8829,50.8829,0,0,1,19.62885,5.79822,159.72549,159.72549,0,0,1,40.68135,30.459c6.206,6.29979,9.70886,14.036,8.84467,23.21278C495.21428,217.08486,494.8265,218.75452,494.54426,220.4341ZM338.192,246.01948l.68874-.00592a14.02021,14.02021,0,0,0,.19213-2.0904c-.3977-7.40662-.90026-14.80837-1.2237-22.218a28.77148,28.77148,0,0,1,4.28581-16.45527,7.59379,7.59379,0,0,0,.51653-1.41791l-.51052-.31718a14.4612,14.4612,0,0,0-1.47408,1.83476,29.4755,29.4755,0,0,0-4.11424,15.08719c.08935,6.85449.61989,13.70431,1.01587,20.553C337.66585,242.67267,337.97839,244.34322,338.192,246.01948Zm5.08749,6.181-.18914-.324a12.3288,12.3288,0,0,0-1.71217,1.27585c-2.31126,2.42148-4.70789,4.77868-6.83112,7.35876-4.29012,5.21326-7.90122,10.84339-9.3114,17.58662a27.50257,27.50257,0,0,0-.2484,4.16l.78.09071a31.49261,31.49261,0,0,1,6.33117-16.48C335.58829,261.13752,339.53394,256.74278,343.27948,252.20048Z" transform="translate(-214.64593 -130.53453)"/>
      <path d="M582.80373,528.47947a9.04547,9.04547,0,0,0,.51967,2.2142,36.24123,36.24123,0,0,1,3.61611,21.26942,57.024,57.024,0,0,1-11.1259,27.881c-5.83535,7.82584-11.94439,15.456-18.13922,23.003-7.98175,9.72392-16.3746,19.052-26.15109,27.08853a99.77669,99.77669,0,0,1-31.55918,17.6918,111.47956,111.47956,0,0,1-26.60376,5.73041c-8.13483.67869-20.45438,3.1846-28.68835,2.27675,0,0-13.08926-.12027-21.3803-.981-7.16189-.74355-14.47556-1.74681-21.5608-3.02134-9.178-1.65094-45.63384-13.6718-45.63384-13.6718l-25.71258-11.95534-21.01018-14.34868c-8.09944-10.76484-10.0852-25.77684-10.78947-39.13446a132.75833,132.75833,0,0,1,.02614-14.50857,117.24763,117.24763,0,0,1,1.635-14.16645c1.16323-6.43424,2.73372-12.79482,4.12974-19.187q24.16386-7.93837,48.32306-15.89074c3.59042-1.18741,7.15506-2.47143,10.65448-3.89994a3.02067,3.02067,0,0,0,1.5286-2.18321c.17282-3.19066.0745-6.39592.07617-9.5956l.16313.278a8.09122,8.09122,0,0,1,.56019.95606,4.64273,4.64273,0,0,1,.41413,1.03822c-.08171,13.194-.09905,26.38881-.276,39.58149-.07453,5.55832-1.5472,10.72248-5.51177,14.93537a1.75067,1.75067,0,0,1,.13905-1.39822c3.16922-4.164,4.32454-8.97141,4.39371-14.06889.10637-7.83715.08929-15.67611.10591-23.51432.00172-.81627-.12255-1.63283-.21141-2.73556-8.62664,3.52142-17.25867,6.02877-24.5144,11.54543-5.09273,3.872-10.19607,7.73572-15.4091,11.44212-4.9698,3.53344-7.54245,8.31252-6.95672,14.276a97.6799,97.6799,0,0,0,2.99265,17.31662,87.49141,87.49141,0,0,0,28.17835,43.80791,106.54988,106.54988,0,0,0,26.16445,16.1c17.37431,7.59891,35.76346,10.92533,54.527,12.28582a188.18417,188.18417,0,0,0,21.69556.09076c7.53856-.326,15.10111-.8915,22.56665-1.958,20.009-2.8585,37.01171-11.88247,51.46515-25.90811a196.93662,196.93662,0,0,0,26.05951-31.90518c7.19608-10.71539,13.23481-21.91382,12.04113-35.52785-.49019-5.59025-2.195-10.75623-5.95734-14.93273a29.49693,29.49693,0,0,0-9.36461-6.91992,34.52468,34.52468,0,0,0-5.03615-1.91268c-3.4776-1.02521-7.03594-1.7765-10.9285-2.74277-.47144,9.34957-1.111,17.99185-1.28789,26.64357-.18849,9.22031,1.32053,18.158,5.99654,26.32465a14.96777,14.96777,0,0,1,.72416,1.93553c-.66521-.34922-.93966-.40278-1.04917-.5666-.44321-.66288-.86555-1.34374-1.24237-2.04645-5.60021-10.445-5.84888-21.808-5.37451-33.1977.31365-7.53216,1.26205-15.038,1.92633-22.55554q.43787-.48359.8758-.96709v3.45732c1.12923.58323,3.526-.33946,11.69441,2.30133,16.10178,5.20559,42.70118,15.29371,42.70118,15.29371" transform="translate(-214.64593 -130.53453)"/>
      <path d="M580.03277,336.50783q.60478-.99492,1.20973-1.98978c1.18119-1.98961,2.52551-3.77792,5.06174-4.36805v6.70365l-.54938-.00313c-.0914-1.62323-.18281-3.24645-.28939-5.13967a8.45727,8.45727,0,0,0-4.1966,6.29133c-1.16455,6.36322,2.013,11.82846,3.59379,17.62652.44267-2.727.79031-5.41869.99568-8.12115.59227-7.78937,1.24588-15.57779,1.59416-23.37914a9.63364,9.63364,0,0,0-1.597-5.338c-1.50756-2.29767-4.28783-1.91244-5.43129.4389l-1.2235-.43515q.80289-1.16253,1.60565-2.32591.83847-.29483,1.67689-.588s.17848.0361.1735.04026c4.58765,1.3664,6.16107,3.266,5.98746,8.66124-.21838,6.781-.76752,13.5595-1.40742,20.317-1.26569,13.36524-2.68635,26.71588-4.05463,40.07133-.47233,4.61027-.81451,9.24208-1.51049,13.81928-.9757,6.41774-4.56885,10.76663-10.90717,12.656q.01432-.58135.02848-1.1627c5.38992-1.84026,8.82357-5.51148,9.60685-11.16484.9637-6.95519,1.57864-13.959,2.32711-20.9436.3218-3.003.60024-6.01063.93809-9.41684-2.47922,4.00178-4.74574,7.56082-6.90891,11.18168-1.903,3.18528-1.68761,6.18519.93094,8.98632a9.98857,9.98857,0,0,1,2.02576,3.207,8.72858,8.72858,0,0,1,.06229,2.8936,43.94133,43.94133,0,0,0-3.37143-5.82911c-2.28474-2.84186-2.65488-5.7941-1.043-8.91469a73.052,73.052,0,0,1,4.25045-6.93375c4.56539-6.84129,5.8118-14.01542,2.69057-21.83815A29.62787,29.62787,0,0,1,580.03277,336.50783Z" transform="translate(-214.64593 -130.53453)"/>
      <path d="M316.8094,316.86782c5.18845,3.27261,8.38855,8.18778,11.03965,13.5206.20414.41062-.31971,1.18318-.5051,1.78752-.77637-1.38572-1.54354-2.77664-2.331-4.156-2.189-3.83423-4.48673-7.59832-8.48022-9.858-5.08139-2.87519-9.846-.97939-11.422,4.64089a16.7633,16.7633,0,0,0-.71868,5.89737c.50862,5.55469,1.2351,11.095,2.0548,16.61444,1.49833,10.08908,3.19939,20.14834,4.66482,30.24193.65558,4.51547.92048,9.13023,3.71476,12.96607a24.16612,24.16612,0,0,1,4.41017,11.73114,14.239,14.239,0,0,0,8.93429,12.09372c2.77415,1.22209,5.51859,2.51159,8.27648,3.77062q-.00066.62957-.00108,1.25954c-3.26045-1.501-6.54961-2.944-9.77517-4.51744a14.39033,14.39033,0,0,1-8.37512-11.50658,33.908,33.908,0,0,0-4.70508-12.88567,24.21684,24.21684,0,0,1-3.2468-10.59988c-.68379-12.42752-3.7686-24.42629-5.73155-36.62232a104.90937,104.90937,0,0,1-1.15846-15.22649,13.76448,13.76448,0,0,1,1.81374-6.33619C307.41088,315.68314,311.256,314.88721,316.8094,316.86782Z" transform="translate(-214.64593 -130.53453)"/>
      <path class="cls-4" d="M327.75437,205.44932a72.01057,72.01057,0,0,1,16.47032-12.47759l.51026.68026c-.561.4172-1.12383.83183-1.68252,1.252-4.07434,3.06446-8.36118,5.88872-12.16846,9.2553-4.95606,4.38238-7.99713,9.902-7.84078,16.79516.00636.28149-.1413.56647-.791.81822a28.37568,28.37568,0,0,1,.07049-5.46853,53.96159,53.96159,0,0,1,2.14473-6.55809Q326.11086,207.59762,327.75437,205.44932Z" transform="translate(-214.64593 -130.53453)"/>
      <path class="cls-4" d="M560.30578,210.16428c-.16588,8.48332-2.45432,16.593-4.04109,24.82617l-.67418-.03027a14.50782,14.50782,0,0,1,.01969-2.52736c1.42007-7.90424,3.78709-15.68108,3.14765-23.85631-.14637-1.87149-.3215-3.74073-.48334-5.61122.53619,1.47217,1.13379,2.926,1.58514,4.424A20.07763,20.07763,0,0,1,560.30578,210.16428Z" transform="translate(-214.64593 -130.53453)"/>
      <path class="cls-5" d="M532.7908,508.82812q.20391-.206.40764-.412Q532.99462,508.62221,532.7908,508.82812Z" transform="translate(-214.64593 -130.53453)"/>
      <path class="cls-2" d="M343.69263,249.12727c1.92316-2.37425,3.84633-4.74853,6.02446-7.43759-3.66126-.54243-5.82454,1.70911-8.4143,2.65821l-.12354.16232.069-.21634c1.7366-2.4242,3.64377-4.74664,5.16668-7.29837,1.9009-3.18508,4.25174-6.26658,3.57744-10.429-.11165-.68917.645-1.72909,1.28168-2.28451a45.47033,45.47033,0,0,1,4.00286-2.85037c2.93165-.54086,5.88642-.98657,8.77867-1.68955.69419-.16873,1.18069-1.19225,1.7627-1.82265,1.552.01732,3.4135.07492,3.70228-1.7928.23607-1.52675-.39226-3.18715-.67453-5.03124,2.31711-.63268,5.29479-1.4568,8.27868-2.25763,3.60029-.96623,4.00749-2.4032,1.469-5.24961-.30911-.3466-.61828-.69313-1.142-1.28024a24.01453,24.01453,0,0,1,14.53954,2.35986,25.008,25.008,0,0,1,10.62032,9.69158l.65277-.31756c-.23672-1.64338-.47344-3.28677-.75381-5.23308a18.44849,18.44849,0,0,1,7.97264,4.63226c2.14424,1.91414,4.19215,3.94484,6.42015,5.75467a26.47628,26.47628,0,0,0,15.26253,5.77208c11.3085.68282,22.65366.90756,33.98613.98955,6.69135.04838,13.38794-.524,20.081-.84191,6.77358-.32178,13.97346-5.31795,15.36272-11.07587a19.76849,19.76849,0,0,0-.10916-6.83291c-.16506-1.35062-.05982-2.03873,1.34514-2.46859,2.443-.74749,4.8249-1.693,7.24154-2.529,2.46768-.85367,2.47248-.83974,2.74588-3.64352.77.49685,1.45359.93785,2.46129,1.58805.14871-1.465.277-2.72953.45668-4.49956,19.00928,13.55751,36.40283,27.92315,43.86732,50.91579q.3963.71336.79243,1.42567c1.07138,3.72021,2.28263,7.40692,3.18281,11.16812,1.53064,6.39539,2.86541,12.83771,4.2825,19.26026q.33407,1.3561.66832,2.71228c-.06428,4.55118-.01887,9.108-.25289,13.65046a21.11087,21.11087,0,0,1-1.31537,4.66011,8.028,8.028,0,0,0-.47766,1.589c-1.00137,13.35815-2.14266,26.70891-2.89072,40.08159-.38356,6.856-.26584,13.76024.01429,20.62681.23022,5.64513,1.27237,11.2561,1.52684,16.90149q.53262,11.81412.38186,23.65573c-.0634,5.33449-.52641,10.67713-1.07168,15.98933-.51241,4.99166-1.26118,9.96644-2.11172,14.91328-.50537,2.93953-1.91772,3.512-4.38686,2.01067-1.82537,3.05429-3.65215,6.11086-5.56107,9.30486l-2.48151-1.62767c-1.625,3.60094-3.20209,7.09573-4.80339,10.64417-1.89317-.36109-3.84147,1.26908-4.53428,4.10716-.3201,1.31156-.57264,2.63962-.936,4.33485-.5809-.6317-.94423-1.02686-1.67771-1.82452-1.18207,1.98182-2.23383,3.74516-3.2158,5.39147.08349.11637-.08221-.11446-.41262-.5748-1.294,3.18322-2.53348,6.2325-4.0473,9.9566-.23145-1.41228-.34846-2.126-.52038-3.175-.83314,1.61657-1.5505,3.00841-2.5572,4.96154-.11531-1.562-.18246-2.47054-.2983-4.03986-.77608,1.30178-1.25666,2.10791-2.03637,3.41581-.13143-1.79329-.22939-3.12976-.34295-4.679-2.22006,1.01141-1.736-.81378-1.993-2.24579-.63709.795-1.09652,1.36829-1.93406,2.41336-.55858-3.11666-1.03834-5.79369-1.43145-7.98682-.56091,2.56509-1.23164,5.63247-1.90236,8.69985l-.58037-.03926-.50707-2.03918c-.65947,2.526-1.22561,4.6948-1.80328,6.90745-.86824-.49111-1.5852-.89666-2.30221-1.30219a9.52044,9.52044,0,0,0-1.32785,2.6586c-.32332,2.20154-.28547,4.45371-.54264,6.66809-.24217,2.08573-.67476,4.14934-1.0967,6.65745-1.14539-.6774-1.62685-.96214-2.054-1.2148-.93029,2.48464-1.822,4.86613-2.79949,7.47683-1.19385-.72223-1.78869-1.08205-2.63116-1.5917-.32677,1.09395-.62543,2.09367-.89355,2.99127-.8543-.81064-1.67789-1.59211-2.63836-2.50348-.251.83549-.40019,1.33225-.65227,2.17137-.51046-.94822-.86-1.5975-1.20955-2.24684l-.43552.12036c.24468,1.75429.48937,3.50859.75433,5.40832-1.50322.12316-2.899.23754-4.46056.3655.30257,2.29008.57849,4.37825.89877,6.80227-2.78072-.43518-5.24617-.821-7.9808-1.249-.10277,1.88121-.19248,3.52353-.28075,5.13908-1.70027-1.14949-3.29311-2.41389-5.05312-3.37078-2.42816-1.32035-2.722-1.11287-3.36832,1.49818-.14906.60223-.29364,1.20563-.4803,1.973-1.91856-.65209-3.85722-1.98727-5.42088-1.639-1.37206.30562-2.32357,2.49914-3.326,3.69767-1.346-.2601-3.16957-1.18219-4.474-.7-1.24061.45862-1.93881,2.38459-3.00469,3.842-.47036-.44408-1.25883-1.19068-2.04964-1.93482-3.207-3.01769-3.78053-3.00305-6.98607.176-2.05363-4.516-5.05685-4.7328-7.51415-3.1759a13.92064,13.92064,0,0,0-2.83117-1.25414c-2.81469-.523-5.49375-1.45694-8.37375.66937-1.89919,1.40221-3.91655-.2734-5.26438-2.04732-1.83639-2.41693-2.9134-2.7743-5.20869-1.97953-4.25318-2.93989-8.26576-5.71348-12.475-8.623l-.65939,2.84244a19.04724,19.04724,0,0,0-1.77562-2.0056,14.90124,14.90124,0,0,0-1.9885-1.22116,2.32459,2.32459,0,0,1-.73054-.48492c-2.12924-3.01658-5.31452-5.56476-4.12489-10.46827l-1.73326,1.5462c-1.21154-4.91071-3.33539-9.42639-1.80269-14.93777-.77845.59546-1.2073.92352-2.01,1.53756V471.2964l-.727-.1989c-.93058,1.90269-1.8612,3.8054-3.03067,6.19655l-2.78821-5.88237c-.89382,1.49256-1.66535,2.78089-2.6158,4.368-2.80052-3.15466-5.5108-6.20775-8.50128-9.57642-.89493,1.34367-1.56522,2.35005-2.43815,3.66065-1.1944-2.86732-2.28135-5.47659-3.567-8.56284l-1.25947,3.77318c-2.51265-3.77467-4.60647-7.48887-3.9968-12.24422.16184-1.26252-.97184-2.69936-1.53891-4.04426a10.45048,10.45048,0,0,1-1.15368-2.63865,7.70909,7.70909,0,0,0-3.835-6.26742,3.35934,3.35934,0,0,1-1.45122-2.13472,6.12145,6.12145,0,0,0-2.99355-4.37221,5.7453,5.7453,0,0,1-2.0722-2.38186c-1.34306-3.5792-2.4097-7.26156-3.72867-10.85057a27.07885,27.07885,0,0,0-2.0403-3.53127,7.9035,7.9035,0,0,1-1.08726-2.35292c-1.84714-11.16507-3.78829-22.318-5.39508-33.51855-1.8777-13.08894-1.55089-26.28976-1.42673-39.467.0194-2.0579.24352-4.1139.39328-6.49418l-3.99067,2.78718c.42228-2.14968.62168-3.69061,1.03251-5.173,3.28482-11.85247,6.6699-23.67753,9.88708-35.54819,1.02076-3.76632,1.67276-7.6362,2.40814-11.47506.60036-3.13406-.307-4.25-3.47736-4.5317l-.05839-.06635c.21791-3.39094.43579-6.78191.67825-10.5552-1.17088.42053-2.21411.79524-3.85189,1.38346,1.44477-5.19164,2.76765-9.94524,4.18775-15.04819-1.48769.662-2.66751,1.187-3.84729,1.71208l-.11945.15928.07594-.20226q2.04377-3.28343,4.08976-6.56543c.5284-.84325,1.08193-1.67072,1.98263-3.0576m41.773,103.68533,5.93951,1.94871a8.6643,8.6643,0,0,0,1.834.94916c7.20946,1.76605,14.26893.80742,21.24-1.31326.52661-.16017.93823-.69829,1.40332-1.06072l5.01067-1.98153q4.98037,1.89321,9.96071,3.78639l.317-.65862c-1.3616-.69894-2.68339-1.49391-4.09257-2.078a114.86108,114.86108,0,0,0-10.92738-4.27008,47.90083,47.90083,0,0,0-10.2559-1.89044,50.17522,50.17522,0,0,0-10.03981.46272c-5.1459.6796-9.175,3.871-13.39511,6.56575-.06955.04444-.00871.29306-.00871.76377C387.63724,353.06918,388.60813,352.675,389.579,352.28077Zm108.132,2.421c.19558.127.38994.36319.58681.3653,8.82451.09434,17.61645-.13453,26.07469-3.08625.49178-.17165.82588-.79535,1.2334-1.20867l-.0293-.783a36.56953,36.56953,0,0,0,3.71209,1.50073c3.114.89529,6.24715,1.74006,9.40869,2.44269a6.44814,6.44814,0,0,0,2.44881-.49521l-.01734-.74308c-6.31225,1.02934-11.30713-2.10311-16.43514-4.822-.84615-.44859-1.70074-.88831-2.57906-1.26817-8.51-3.68013-16.87049-4.43024-25.22069.69366-4.35035,2.66953-9.01157,4.83164-13.52168,7.24292a14.00436,14.00436,0,0,0-1.47,1.03864l.413.65982q4.8408-2.43968,9.68159-4.87937C492.99006,354.20534,493.81611,354.68845,497.711,354.70172Zm-106.60415,74.4116,29.51274-54.61345c3.28171.00307,24.34856,45.7948,26.49693,48.34117,5.313,6.29721,13.13268,7.30763,19.94045,2.57938,3.29335-2.28735,6.54384-4.25909,10.78893-3.6767a8.58809,8.58809,0,0,0,2.83784-.39475c6.23807-1.34742,13.12726-11.04632,6.82348-18.37778a76.26624,76.26624,0,0,1-4.61-6.69348,5.18858,5.18858,0,0,0-.75276-.72941l-.51557.27334a10.72136,10.72136,0,0,0,.82307,1.97739c1.55359,2.32207,3.14045,4.624,4.785,6.88234a7.82975,7.82975,0,0,1,1.36359,6.80179c-1.68029,6.90147-8.40586,10.72228-15.43734,8.63288.537-.855,1.05437-1.67871,1.57175-2.50245l-.77886-.6227c-1.55347,1.65489-3.22137,3.21767-4.64013,4.981a13.658,13.658,0,0,1-21.12931.40579,52.41663,52.41663,0,0,1-3.73149-6.11517,18.65345,18.65345,0,0,0-1.24128-1.61458l-.57709.40579q.78171,1.65687,1.56343,3.31371-.12828.11954-.24841.24718a25.50232,25.50232,0,0,0-4.74785-.4645c-6.24595.5296-11.94553-3.95983-11.23986-12.24126.0813-.95408.13866-1.91016.226-3.12861-3.44163,2.89318-6.2432,5.87375-9.60616,7.94106-6.37385,3.91819-13.1238,7.21925-19.604,10.97265m25.36075-14.03546-15.3,44.89781q3.29932-.62042,6.59862-1.2409a9.75369,9.75369,0,0,0,1.28866,1.653c2.07468,1.73933,4.23949,3.37134,6.31195,5.11321,11.78311,9.90355,25.36271,13.73171,40.54075,11.75329a64.00527,64.00527,0,0,0,32.85152-14.46732,69.91268,69.91268,0,0,0,5.01047-5.00868m-6.28043-.6015a6.50682,6.50682,0,0,0-1.31783-.4536c-3.94969-.47692-7.895-1.18172-11.858-1.30913-5.33288-.17142-10.68328.02909-16.02026.22846-3.07465.11481-6.31831,1.33435-9.17265.68329-9.30029-2.12145-18.51738-1.554-27.79429-.34978m48.56229-107.736c10.809-2.72658,21.53587-5.99157,32.92017-4.84161,5.9441.6005,11.90221,1.068,17.84115,1.71355,4.94678.53777,9.875,1.24775,14.72443,1.87028a17.86263,17.86263,0,0,0-14.35-9.69357c-2.76937-.31667-5.54074-.663-8.28164-1.15937a19.98978,19.98978,0,0,1-3.52693-1.29011,8.6355,8.6355,0,0,0-2.42719-.95189c-2.765-.12076-5.53869-.04594-8.42806-.04594.08935-.44086.21726-1.07162.48381-2.38587-5.31622.838-10.25286,1.57669-15.17444,2.40489-3.72542.62686-7.36875,1.51169-10.11888,4.409m-5.60238,44.91322a4.61253,4.61253,0,0,0,.73011,1.21313,2.13467,2.13467,0,0,0,.32944-1.67218,132.80263,132.80263,0,0,1-3.172-32.09461M424.79883,425.7588c-2.432.61746-5.23333.67922-7.20489,1.98949a30.06043,30.06043,0,0,1-8.1799,4.22968c-4.7695,1.4027-7.34341,4.98718-8.9954,10.009a10.703,10.703,0,0,0,2.48819-.50185c1.34973-.68039,2.60042-1.55435,3.92191-2.29515.612-.343,1.60289-.9801,1.89589-.76553,1.97209,1.44449,3.82913.18038,5.72522-.00287.45273-.04374,1.06351-.13324,1.35557.10272,2.82067,2.27868,6.5712.56666,9.66557,2.43017,1.63705.9859,4.5239-.56862,6.02548,1.95563.15463.26.71965.34336,1.10772.3859,2.21159.24252,4.42553.59751,6.64207.62364,2.22513.02628,4.54055-1.6829,6.63738.49764.19793.20578.7812.11378,1.16868.05279,2.50764-.39463,5.038-.70052,7.50624-1.27166,1.94119-.44921,4.14534-.91111,3.75519-3.82664q1.06709,2.49406,2.13419,4.98811l.67808-.1681c.12216-1.42125.2443-2.84247.3762-4.3769,2.82647,1.563,5.35514,3.05259,7.98082,4.34508.60688.29871,1.54552-.07646,2.33147-.14153l.0549-.22666c1.51295.33551,2.80426-2.39043,4.33388-2.27392.49875.038,1.28406,2.51819,1.82146,2.04926l.12668-.12911c.38727.08651.77118.19462,1.16247.25512.888.13725,1.77955.25107,2.66967.37441v-3.00026c3.13392.24515,6.43908.5037,9.82916.76886-.03164-.462-.091-1.32729-.15568-2.271l7.72348,4.27769c.26273-1.373.401-2.09551.56408-2.9477.8898.53663,1.56094.94139,2.23213,1.34616l.09041-.75384a11.44222,11.44222,0,0,1,2.544.03214c1.74774.40872,3.66129,1.55276,3.817-1.352,2.55949,1.18266,4.99136,2.30634,7.42318,3.43l.78445-.66489c-1.14873-2.363-1.95574-4.9895-3.52705-7.02648-2.29066-2.96953-5.68722-4.59293-9.2976-5.59714-5.26992-1.46581-10.30371-4.27555-15.98607-3.51011-2.65611.35777-5.05734.61145-7.20876-1.50709l-1.3461,1.88689-2.39983-1.88839c-.42184.3721-.93395.60976-1.08266.98968-.97656,2.49486-3.98658-.6264-4.98264,1.81233a10.01816,10.01816,0,0,0-1.08876-.24879c-1.07484.03015-2.41646-.24383-3.17145.287a11.16645,11.16645,0,0,1-7.95219,1.93816c-2.93-.3106-5.89673-.444-8.7762-1.0144a11.89067,11.89067,0,0,0-8.76041,1.24646c-2.18494-2.20737-4.82148-1.83064-7.43918-1.74937.18846-1.25.35282-2.34024.59695-3.95965-3.64017.95036-6.73418,1.75813-9.87123,2.57716.06688-.36408.16277-.88591.25863-1.40778m13.55426-85.62653c.76646-4.5237-.83994-8.21865-4.62111-9.96234-9.46679-4.36553-19.06445-7.99251-29.8469-7.7974-4.24424.07682-8.31934.17479-12.05625,2.05427-4.50445,2.26553-8.7573,5.02608-13.75025,6.22-.54495.13031-1.33.71156-1.39026,1.1652-.27946,2.1029-1.84634,2.05561-3.32077,2.23544a10.74949,10.74949,0,0,0-2.80851.38724c-.50619.21273-.73225,1.0921-1.08422,1.67189l.401.41179c-2.73023,1.2095-5.46047,2.419-8.45622,3.74608,3.24671,1.94927,6.56347,1.59328,11.52109.25145,6.47311-1.752,12.88374-3.73385,19.33213-5.57874,7.13639-2.04167,14.2875-3.459,21.62235-.77a10.712,10.712,0,0,0,3.78574.35045A36.79091,36.79091,0,0,1,438.35543,340.13461ZM434.629,482.23178l.65572.2136c.854-.54621,1.708-1.09242,2.83567-1.81362l5.04976,6.81263c.32162-.39553.68619-.844,1.021-1.25572.63446.5422,1.15128.98391,1.70573,1.45773.66785-.85975,1.21939-1.56973,1.90128-2.44752,1.04707,2.04905,1.95155,3.81905,3.04781,5.9644.84419-1.93553,1.44633-3.316,2.04844-4.69652l.46048.14762c.18994,1.03011.37987,2.06022.63446,3.441,1.05858-1.49639,1.85572-2.62324,2.61846-3.70142l4.21664,3.86,4.13567-6.39047c.50209.75451.85195,1.28027,1.23044,1.849,1.17126-.93571,2.19767-1.75567,3.33146-2.66141.43661,1.3751.7815,2.4614,1.302,4.10068,1.60889-2.18441,2.8843-3.916,4.34762-5.90271l1.26337,2.76217c.53906-.95086.94978-1.67537,1.37107-2.41848.63419.38355,1.10756.66981,1.77038,1.07068.70734-4.35009,4.27819-8.244.39468-12.8862l-5.29054,4.997-2.11837-1.93808c-.37283.619-.72879,1.21-1.08475,1.801l-.35068-.65478a21.61449,21.61449,0,0,1-3.87,1.17963,97.72914,97.72914,0,0,1-11.67636.96548c-5.12657-.03152-10.25241-.53569-15.37224-.92056a5.18125,5.18125,0,0,1-2.10138-.91146,22.99237,22.99237,0,0,1-2.15663-1.753C435.4546,476.1515,435.04178,479.19164,434.629,482.23178Zm-48.07691-137.194,40.48644-.73087-55.43971,11.04413a20.1452,20.1452,0,0,0,2.47843-1.184q4.92632-3.2065,9.78773-6.51246a17.63855,17.63855,0,0,1,8.5469-2.71236,153.06867,153.06867,0,0,0,17.01439-2.45625c4.55988-.967,8.89734-1.07857,13.1054.90644,2.809,1.325,5.456,2.99318,8.177,4.505.62742.34861,1.261.68611,1.89179,1.0287m49.69916,2.53134c3.83493-2.5923,7.57377-5.33071,11.46469-7.83384a9.176,9.176,0,0,1,4.39418-1.55642c12.407-.38775,24.3307,1.6413,35.39888,7.587a19.9632,19.9632,0,0,0,1.84418.772m-106.92017,8.8241c-3.68227,1.68115-6.499,3.39287-9.55529,4.24392a28.5189,28.5189,0,0,1-9.69956,1.16177c-5.7031-.45548-11.34723-1.63609-17.02081-2.48116-2.11919-.31564-4.25179-.541-6.37828-.80756m120.89511,56.737c3.75434,2.4077,7.81717,4.33377,11.57672,6.734M501.00855,365.278c-5.34386-.856-10.56785-2.46059-15.84439-3.737M433.573,368.34548a8.33917,8.33917,0,0,0,7.03511-7.466c.10489-2.9768-1.46027-5.85647-3.96679-6.561C441.73008,360.44314,439.435,364.7877,433.573,368.34548Zm53.14593-2.37413" transform="translate(-214.64593 -130.53453)"/>
      <path class="cls-2" d="M531.95174,509.75766c-.66428,7.51752-1.61268,15.02332-1.92633,22.55548-.47437,11.38975-.2257,22.75272,5.37451,33.1977.37682.70271.79916,1.38357,1.24237,2.04645.10951.16382.384.21738,1.04917.5666a14.96777,14.96777,0,0,0-.72416-1.93553c-4.676-8.16662-6.185-17.10434-5.99654-26.32465.17684-8.65172.81645-17.294,1.28789-26.64357,3.89256.96627,7.4509,1.71756,10.9285,2.74277a30.72518,30.72518,0,0,1,14.40076,8.8326c3.7623,4.1765,5.46715,9.34248,5.95734,14.93273,1.19368,13.614-4.84505,24.81246-12.04113,35.52785a196.93662,196.93662,0,0,1-26.05951,31.90518c-14.45344,14.02564-31.45617,23.04961-51.46515,25.90811-7.46554,1.06646-15.02809,1.63195-22.56665,1.958a188.18417,188.18417,0,0,1-21.69556-.09076c-18.76354-1.36049-37.15269-4.68691-54.527-12.28582a106.54988,106.54988,0,0,1-26.16445-16.1,87.49141,87.49141,0,0,1-28.17835-43.80791,97.6799,97.6799,0,0,1-2.99265-17.31662c-.58573-5.9635,1.98692-10.74258,6.95672-14.276,5.213-3.7064,10.31637-7.57007,15.4091-11.44212,7.25573-5.51666,15.88776-8.024,24.5144-11.54543.08886,1.10273.21313,1.91929.21141,2.73556-.01662,7.83821.00046,15.67717-.10591,23.51432-.06917,5.09748-1.22449,9.90492-4.39371,14.06889a1.75067,1.75067,0,0,0-.13905,1.39822c3.96457-4.21289,5.43724-9.37705,5.51177-14.93537.1769-13.19268.19424-26.38752.276-39.58149a76.80509,76.80509,0,0,0,4.90219,6.38713c5.47048,5.81766,10.99959,11.58668,16.67985,17.19856,4.35486,4.30242,8.43082,9.24791,13.57875,12.31781,14.354,8.55973,29.30821,16.03342,46.11949,18.69521,9.25954,1.46614,18.10594-.3375,27.16187-2.43668,13.44723-3.11724,24.15761-10.50345,34.451-18.9938C516.6157,522.24012,524.29547,516.01312,531.95174,509.75766Zm-61.854,60.62982c-7.86172,5.54994-16.3468,6.65719-25.4257,3.53244C450.85734,579.00387,466.693,576.3433,470.09771,570.38748Z" transform="translate(-214.64593 -130.53453)"/>
      <path class="cls-2" d="M336.44736,416.11816c-2.75789-1.259-5.50233-2.54853-8.27648-3.77062a14.239,14.239,0,0,1-8.93429-12.09372,24.16612,24.16612,0,0,0-4.41017-11.73114c-2.79428-3.83584-3.05918-8.4506-3.71476-12.96607-1.46543-10.09359-3.16649-20.15285-4.66482-30.24193-.8197-5.51942-1.54618-11.05975-2.0548-16.61444a16.7633,16.7633,0,0,1,.71868-5.89737c1.576-5.62028,6.34061-7.51608,11.422-4.64089,3.99349,2.25964,6.29124,6.02373,8.48022,9.858.78747,1.37936,1.55464,2.77028,2.331,4.156,1.20735,3.85585,2.6603,7.65562,3.55681,11.58243.99776,4.37034,1.49624,8.85468,2.2083,13.29023l.01094.068-.02789.72826a.72277.72277,0,0,1-.23857.00393l.07949-.85026c-2.49523-1.57575-4.98661-3.1491-7.32012-4.62275-.69926,2.81312-1.60163,5.70686-2.10384,8.66851a45.04388,45.04388,0,0,0-.85553,9.20238c.20277,5.15941,1.97725,7.1027,6.87824,8.57054a2.64008,2.64008,0,0,1,1.98586,3.10555,11.09888,11.09888,0,0,1-.5451,2.3236c-.66932,2.09759-.81653,3.90486,1.91865,4.63479.54378.14517.9554.78545,1.428,1.19742.30519,4.01953.591,8.04062.9206,12.05816C335.62225,406.79889,336.04315,411.45782,336.44736,416.11816ZM308.185,328.35062c3.33782,1.50017,5.34126,4.669,6.21454,8.47022,1.30661,5.6877.45993,11.30865-.75366,16.86085-2.36754,10.83146-2.70322,21.06794,6.24978,29.60467,1.41291,1.34718,1.43415,4.187,2.00239,6.36187a4.49606,4.49606,0,0,1-.22884,1.64707l.68713.18451a14.33358,14.33358,0,0,0,.68493-2.50356c.32007-3.5081-1.4937-6.15035-3.79992-8.45525a19.47094,19.47094,0,0,1-5.80682-16.37092c.48024-4.9154,1.37772-9.79228,2.15587-14.67574.973-6.10653,1.09245-12.10454-1.95425-17.75678a12.60718,12.60718,0,0,0-5.80936-5.76876c-1.93641,8.65063,3.63512,16.13681,2.75971,24.4154a3.17457,3.17457,0,0,0,.86938-2.29638c-.46758-3.38953-1.05577-6.76271-1.62188-10.13821C309.298,334.73429,308.73568,331.54345,308.185,328.35062Z" transform="translate(-214.64593 -130.53453)"/>
      <path class="cls-2" d="M580.03277,336.50783a29.62787,29.62787,0,0,0,2.26893,15.00238c3.12123,7.82273,1.87482,14.99686-2.69057,21.83815a73.052,73.052,0,0,0-4.25045,6.93375c-1.61191,3.12059-1.24177,6.07283,1.043,8.91469a43.94133,43.94133,0,0,1,3.37143,5.82911,8.72858,8.72858,0,0,0-.06229-2.8936,9.98857,9.98857,0,0,0-2.02576-3.207c-2.61855-2.80113-2.83394-5.801-.93094-8.98632,2.16317-3.62086,4.42969-7.1799,6.90891-11.18168-.33785,3.40621-.61629,6.41385-.93809,9.41684-.74847,6.98464-1.36341,13.98841-2.32711,20.9436-.78328,5.65336-4.21693,9.32458-9.60685,11.16484-.02356-5.738.47074-11.53559-.18188-17.201-1.23984-10.76355,1.40455-21.01432,3.20895-32.10753.63809,1.884,1.07988,3.1885,1.66441,4.91432.59537-2.31527,1.07133-4.16619,1.54717-6.01688,3.08748,1.93834,3.55688,4.36609,1.53586,7.44135q-2.67907,4.07659-5.19943,8.2561a9.27757,9.27757,0,0,0-.67178,2.229,86.30949,86.30949,0,0,0,7.78717-11.89638c1.5491-3.02373-.50906-6.25447-4.00108-7.33046.32748-4.42857.69674-8.85454.96955-13.28648.22676-3.68312.3402-7.37323.51346-11.27672C578.77852,334.99119,579.40564,335.74951,580.03277,336.50783Z" transform="translate(-214.64593 -130.53453)"/>
      <path class="cls-2" d="M333.09211,357.84489a25.1874,25.1874,0,0,1,.46163,3.296c.06352,5.35315.00056,10.70812.08827,16.06069.05874,3.58524.29444,7.1676.45079,10.75069-2.06223-.36972-2.90244-1.36836-2.00428-3.50329a8.41944,8.41944,0,0,0,.534-2.79621c.10729-2.10378-.7834-3.6709-2.991-3.89393-3.62513-.36627-4.84171-2.799-5.63077-5.86243-1.58944-6.17106,1.09029-11.62749,2.51722-17.5202a18.13211,18.13211,0,0,0,2.36446,1.70672C330.24612,356.751,331.68478,357.26593,333.09211,357.84489Z" transform="translate(-214.64593 -130.53453)"/>
      <path class="cls-4" d="M465.022,155.15c4.80217,3.14641,9.80581,6.02814,14.36277,9.49667a84.65,84.65,0,0,1,20.97357,23.15149,3.38914,3.38914,0,0,1,.47057,2.09587C487.788,169.44955,469.6548,155.9378,446.265,149.44538l.30861-.794c1.00869.12555,2.03449.17285,3.02353.38861a147.74347,147.74347,0,0,1,32.98028,11.49241c9.41282,4.56109,18.71124,9.40741,27.77546,14.62275,7.0132,4.03519,12.88676,9.48562,15.89367,17.34586a27.641,27.641,0,0,1,.89578,3.92185l-.62759.18235c-.15622-.22824-.39991-.43692-.45586-.68753-1.81717-8.13911-7.17182-13.82446-13.82778-17.97693-8.52509-5.31848-17.483-9.9732-26.42707-14.57866-5.173-2.66371-10.67332-4.69733-16.05354-6.94952-1.465-.61325-3.02865-.99077-4.5479-1.4754q-.3477-.04935-.69364-.10081Z" transform="translate(-214.64593 -130.53453)"/>
      <path class="cls-4" d="M332.15886,186.73069c2.66616-1.31119,5.279-2.74772,8.0085-3.9101,8.232-3.5057,16.41947-7.14479,24.7916-10.28583a106.38763,106.38763,0,0,1,33.86306-7.027c11.20321-.38827,21.96041,1.21733,32.20351,5.80474a67.76708,67.76708,0,0,1,22.84257,17.15676c4.35322,4.87867,8.24428,10.17053,12.31919,15.29574a20.92321,20.92321,0,0,1,1.3,2.07895l-.6092.48713c-.46518-.52044-.94251-1.0306-1.39368-1.56294-5.67545-6.69606-10.94283-13.797-17.10929-20.00492-10.748-10.82037-24.03905-16.51151-39.31606-17.81863-17.68757-1.51341-34.27339,2.681-50.41763,9.21067-7.84808,3.17423-15.48768,6.86332-23.23,10.30058-.94193.41819-1.93579.71935-2.90561,1.07475Z" transform="translate(-214.64593 -130.53453)"/>
      <path class="cls-2" d="M577.96535,334.00787l1.23533-15.21372,1.2235.43515c1.14346-2.35134,3.92373-2.73657,5.43129-.4389a9.63364,9.63364,0,0,1,1.597,5.338c-.34828,7.80135-1.00189,15.58977-1.59416,23.37914-.20537,2.70246-.553,5.39411-.99568,8.12115-1.58075-5.79806-4.75834-11.2633-3.59379-17.62652a8.45727,8.45727,0,0,1,4.1966-6.29133c.10658,1.89322.198,3.51644.28939,5.13967l.54938.00313V330.15c-2.53623.59013-5.09028,4.36819-6.27147,6.35783" transform="translate(-214.64593 -130.53453)"/>
      <path class="cls-4" d="M449.62433,224.29063a18.4118,18.4118,0,0,1-1.41164-1.27322,156.23233,156.23233,0,0,0-27.457-24.18147,41.58544,41.58544,0,0,0-21.95091-7.37679c-5.17846-.24524-10.34863-.67771-15.52817-.88633-9.56754-.38537-17.83878,2.84421-25.02158,9.11238-2.22258,1.93956-4.62448,3.67521-6.96756,5.47393-.57864.44421-1.24831.76982-2.10764,1.29013,0-.68777-.09214-1.02568.01324-1.10672,4.80753-3.69688,9.46945-7.61365,14.49395-10.99054,7.23076-4.85967,15.566-5.44235,23.96353-5.03053,5.33206.26151,10.65855.79594,15.96363,1.41333,8.38046.97529,15.36607,5.12294,21.97195,10.04335a145.83979,145.83979,0,0,1,23.4576,21.47977c.4009.46384.74259.97885,1.11182,1.47Z" transform="translate(-214.64593 -130.53453)"/>
      <path class="cls-4" d="M494.54426,220.4341c.28224-1.67958.67-3.34924.82928-5.04041.86419-9.17681-2.63872-16.913-8.84467-23.21278a159.72549,159.72549,0,0,0-40.68135-30.459,50.8829,50.8829,0,0,0-19.62885-5.79822,7.7014,7.7014,0,0,1-1.64584-.49929l.13562-.90161c2.10328.26989,4.22982.42133,6.30592.82949,11.04843,2.17218,20.79114,7.28119,29.71857,13.8995,7.69046,5.70129,15.272,11.59167,22.50305,17.85836,6.81413,5.9054,11.94155,13.08256,13.34833,22.374C497.19094,213.49113,496.6084,218.28472,494.54426,220.4341Z" transform="translate(-214.64593 -130.53453)"/>
      <path d="M334.3183,390.07916c-.47171-.41253-.88333-1.05281-1.42711-1.198-2.73518-.72993-2.588-2.5372-1.91865-4.63479a11.09888,11.09888,0,0,0,.5451-2.3236,2.64008,2.64008,0,0,0-1.98586-3.10555c-4.901-1.46784-6.67547-3.41113-6.87824-8.57054a45.04388,45.04388,0,0,1,.85553-9.20238c.50221-2.96165,1.40458-5.85539,2.10384-8.66851,2.3918,1.51046,4.77269,3.014,7.33033,4.6292-.00928.24275-.01138.52773-.0207.77049-1.40733-.579-2.67642-1.02455-4.04016-1.69252a18.13211,18.13211,0,0,1-2.36446-1.70672c-1.42693,5.89271-4.10666,11.34914-2.51722,17.5202.78906,3.06343,2.00564,5.49616,5.63077,5.86243,2.20761.223,3.0983,1.79015,2.991,3.89393a8.41944,8.41944,0,0,1-.534,2.79621c-.89816,2.13493-.058,3.13357,2.00425,3.50329" transform="translate(-214.64593 -130.53453)"/>
      <path class="cls-4" d="M568.53053,281.136q-.33425-1.35617-.66838-2.71228c4.39922,4.0246,8.67656,8.37911,8.93543,14.64562.39551,9.57548.11461,19.17909.09855,28.77074a7.4059,7.4059,0,0,1-.321,1.51775l-.6112.061a15.98554,15.98554,0,0,1-.38121-2.45438c-.028-9.11194.03522-18.22441-.03925-27.33583C575.49937,288.231,572.25615,284.52255,568.53053,281.136Z" transform="translate(-214.64593 -130.53453)"/>
      <path class="cls-4" d="M338.192,246.01948c-.2136-1.67626-.52614-3.34681-.62346-5.02977-.396-6.84865-.92652-13.69847-1.01587-20.553a29.4755,29.4755,0,0,1,4.11424-15.08719,14.4612,14.4612,0,0,1,1.47408-1.83476l.51052.31718a7.59379,7.59379,0,0,1-.51653,1.41791,28.77148,28.77148,0,0,0-4.28581,16.45527c.32344,7.40963.826,14.81138,1.2237,22.218a14.02021,14.02021,0,0,1-.19213,2.0904Z" transform="translate(-214.64593 -130.53453)"/>
      <path class="cls-4" d="M344.205,281.23611c-3.002,4.7957-6.10028,9.53438-8.9802,14.40229-3.21665,5.43709-6.1543,11.02148-7.01548,17.42871-.05262.3917-.40266.74338-1.16573,1.01279a16.5704,16.5704,0,0,1,.12443-2.11145c1.41946-7.70482,5.27994-14.32705,9.35171-20.83931,1.86167-2.97756,3.8463-5.87991,5.83719-8.77371a10.07262,10.07262,0,0,1,1.67874-1.54708l.57557-.03812.058.06607Z" transform="translate(-214.64593 -130.53453)"/>
      <path class="cls-4" d="M343.27948,252.20048c-3.74554,4.5423-7.69119,8.937-11.18106,13.668a31.49261,31.49261,0,0,0-6.33117,16.48l-.78-.09071a27.50257,27.50257,0,0,1,.2484-4.16c1.41018-6.74323,5.02128-12.37336,9.3114-17.58662,2.12323-2.58008,4.51986-4.93728,6.83112-7.35876a12.3288,12.3288,0,0,1,1.71217-1.27585Z" transform="translate(-214.64593 -130.53453)"/>
      <path class="cls-4" d="M560.39684,247.99538q-.39614-.71258-.79243-1.42567c6.25155,1.29709,11.28791,4.38767,14.15543,10.24233,1.57741,3.22061,2.688,6.66984,4.00911,10.016l-.94682.402c-.32561-.711-.67389-1.41255-.97272-2.13457-1.12564-2.71945-2.03865-5.54795-3.393-8.14708C569.915,252.07148,565.70877,249.24067,560.39684,247.99538Z" transform="translate(-214.64593 -130.53453)"/>
      <path class="cls-4" d="M365.81827,217.91938c-.582.6304-1.06851,1.65392-1.7627,1.82265-2.89225.703-5.847,1.14869-8.77867,1.68955-1.50366-.07938-3.00914-.13677-4.511-.24432-3.31822-.23764-4.89088-2.0624-4.60611-5.34116.11419-1.3148.27987-2.62513.42213-3.9375l.69964-.07547c.07963,1.0274.24065,2.05606.22489,3.082-.07026,4.57087.26059,4.87061,4.77454,4.94763C356.908,219.94172,361.5056,219.96445,365.81827,217.91938Z" transform="translate(-214.64593 -130.53453)"/>
      <path d="M576.48234,358.57107c3.492,1.076,5.55018,4.30673,4.00108,7.33046a86.30949,86.30949,0,0,1-7.78717,11.89638,9.27757,9.27757,0,0,1,.67178-2.229q2.51825-4.17744,5.19943-8.2561c2.021-3.07526,1.55162-5.503-1.53586-7.44135Q576.75712,359.221,576.48234,358.57107Z" transform="translate(-214.64593 -130.53453)"/>
      <path class="cls-3" d="M471.81451,444.01846c-.78595.065-1.72459.44021-2.33147.1415-2.62568-1.29249-5.15435-2.78206-7.98082-4.34508-.1319,1.53443-.254,2.95565-.3762,4.3769l-.67808.1681q-1.06709-2.49406-2.13419-4.98811c.39015,2.91553-1.814,3.37743-3.75519,3.82664-2.46826.57114-4.9986.877-7.50624,1.27166-.38748.061-.97075.153-1.16868-.05279-2.09683-2.18054-4.41225-.47136-6.63738-.49764-2.21654-.02613-4.43048-.38112-6.64207-.62364-.38807-.04254-.95309-.12589-1.10772-.3859-1.50158-2.52425-4.38843-.96973-6.02548-1.95563-3.09437-1.86351-6.8449-.15149-9.66557-2.43017-.29206-.236-.90284-.14646-1.35557-.10272-1.89609.18325-3.75313,1.44736-5.72522.00287-.293-.21457-1.28391.42249-1.89589.76553-1.32149.7408-2.57218,1.61476-3.92191,2.29515a10.703,10.703,0,0,1-2.48819.50185c1.652-5.02183,4.2259-8.60631,8.9954-10.009a30.06043,30.06043,0,0,0,8.1799-4.22968c1.97156-1.31027,4.7729-1.372,7.20489-1.98946l.00234.00234-.25863,1.40775c3.13705-.819,6.23106-1.6268,9.87123-2.57716-.24413,1.61941-.40849,2.70964-.59695,3.95965,2.6177-.08127,5.25424-.458,7.43918,1.74937a11.89067,11.89067,0,0,1,8.76041-1.24646c2.87947.57041,5.84625.7038,8.7762,1.0144a11.16645,11.16645,0,0,0,7.95219-1.93816c.755-.53083,2.09661-.25685,3.17145-.287a10.01816,10.01816,0,0,1,1.08876.24879c.99606-2.43873,4.00608.68253,4.98264-1.81233.14871-.37992.66082-.61758,1.08266-.98968l2.39983,1.88839,1.3461-1.88689c2.15142,2.11854,4.55265,1.86486,7.20876,1.50709,5.68236-.76544,10.71615,2.0443,15.98607,3.51011,3.61038,1.00421,7.00694,2.62761,9.2976,5.59714,1.57131,2.037,2.37832,4.66351,3.52705,7.02648l-.78445.66489c-2.43182-1.12368-4.86369-2.24736-7.42318-3.43-.15569,2.90478-2.06924,1.76074-3.817,1.352a11.44222,11.44222,0,0,0-2.544-.03214l-.09041.75384c-.67119-.40477-1.34233-.80953-2.23213-1.34616-.16307.85219-.30135,1.57468-.56408,2.9477l-7.72348-4.27769c.06469.94374.124,1.80908.15568,2.271-3.39008-.26516-6.69524-.52371-9.82916-.76886v3.00026c-.89012-.12334-1.78169-.23716-2.66967-.37441" transform="translate(-214.64593 -130.53453)"/>
      <path class="cls-6" d="M501.64289,450.35924a70.01773,70.01773,0,0,1-5.01059,5.00827,64.00527,64.00527,0,0,1-32.85152,14.46732c-15.178,1.97842-28.75764-1.84974-40.54075-11.75329-2.07246-1.74187-4.23727-3.37388-6.31195-5.11321a9.75012,9.75012,0,0,1-1.28863-1.653,31.318,31.318,0,0,1,14.25894,2.30432c12.39542,5.30572,25.35469,7.45386,38.63168,4.74536,9.353-1.908,18.47074-4.9568,27.72085-7.3926A36.3695,36.3695,0,0,1,501.64289,450.35924Z" transform="translate(-214.64593 -130.53453)"/>
      <path class="cls-3" d="M438.35543,340.13461a36.79091,36.79091,0,0,0-20.67214-5.61475,10.712,10.712,0,0,1-3.78574-.35045c-7.33485-2.689-14.486-1.27163-21.62235.77-6.44839,1.84489-12.859,3.82673-19.33213,5.57874-4.95762,1.34183-8.27438,1.69782-11.52109-.25145,2.99575-1.32712,5.726-2.53658,8.45622-3.74608l-.401-.41179c.352-.57979.578-1.45916,1.08422-1.67189a10.74949,10.74949,0,0,1,2.80851-.38724c1.47443-.17983,3.04131-.13254,3.32077-2.23544.0603-.45364.84531-1.03489,1.39026-1.1652,4.993-1.19388,9.2458-3.95443,13.75025-6.22,3.73691-1.87948,7.812-1.97745,12.05625-2.05427,10.78245-.19511,20.38011,3.43187,29.8469,7.7974C437.51549,331.916,439.12189,335.61091,438.35543,340.13461Z" transform="translate(-214.64593 -130.53453)"/>
      <path class="cls-3" d="M481.424,330.85c2.75015-2.89734,6.39348-3.78217,10.1189-4.409,4.92158-.8282,9.85822-1.56686,15.17444-2.40489-.26655,1.31425-.39446,1.945-.48381,2.38587,2.88937,0,5.663-.07482,8.42806.04594a8.6355,8.6355,0,0,1,2.42719.95189,19.98978,19.98978,0,0,0,3.52693,1.29011c2.7409.49635,5.51227.8427,8.28164,1.15937a17.86263,17.86263,0,0,1,14.35,9.69357c-4.84945-.62253-9.77765-1.33251-14.72443-1.87028-5.93894-.64559-11.897-1.11305-17.84115-1.71355-11.3843-1.15-22.1112,2.115-32.92017,4.84161-1.44366.36416-2.99968,1.00207-2.817-1.54345a40.946,40.946,0,0,1,2.34393-3.71376C478.57811,333.92238,480.03721,332.41459,481.424,330.85Z" transform="translate(-214.64593 -130.53453)"/>
      <path class="cls-6" d="M418.4136,450.24c1.26186-.75764,9.13858-1.46959,10.78568-1.68343q.879-.11409,1.75725-.22005c8.68439-1.0451,17.32421-1.41762,26.037.56983,2.85434.65106,6.098-.56848,9.17265-.68329,5.337-.19937,10.68738-.39988,16.02026-.22846,3.963.12741,7.90834.83221,11.858,1.30913.451.05446,3.38143.36127,3.82018.51707-5.06136,1.66116-12.58686,3.38829-17.69389,4.89436-12.432,3.66615-25.02451,4.74969-37.77108,1.7545C436.01889,454.97024,423.952,453.9,418.4136,450.24Z" transform="translate(-214.64593 -130.53453)"/>
      <path class="cls-3" d="M434.629,482.23178c.41282-3.04014.82564-6.08028,1.32114-9.72944a22.99237,22.99237,0,0,0,2.15663,1.753,5.18125,5.18125,0,0,0,2.10138.91146c5.11983.38487,10.24567.889,15.37224.92056a97.72914,97.72914,0,0,0,11.67636-.96548,21.61449,21.61449,0,0,0,3.87-1.17963l.35068.65478c.356-.591.71192-1.182,1.08475-1.801l2.11837,1.93808,5.29054-4.997c3.88351,4.64218.31266,8.53611-.39468,12.8862-.66282-.40087-1.13619-.68713-1.77038-1.07068-.42129.74311-.832,1.46762-1.37107,2.41848l-1.26337-2.76217c-1.46332,1.98671-2.73873,3.7183-4.34762,5.90271-.52049-1.63928-.86538-2.72558-1.302-4.10068-1.13379.90574-2.1602,1.7257-3.33146,2.66141-.37849-.56874-.72835-1.0945-1.23044-1.849l-4.13567,6.39047-4.21664-3.86c-.76274,1.07818-1.55988,2.205-2.61846,3.70142-.25459-1.38073-.44452-2.41084-.63446-3.441l-.46048-.14762c-.60211,1.3805-1.20425,2.761-2.04844,4.69652-1.09626-2.14535-2.00074-3.91535-3.04781-5.9644-.68189.87779-1.23343,1.58777-1.90128,2.44752-.55445-.47382-1.07127-.91553-1.70573-1.45773-.33477.41177-.69934.86019-1.021,1.25572l-5.04976-6.81263c-1.12764.7212-1.98167,1.26741-2.83567,1.81362Z" transform="translate(-214.64593 -130.53453)"/>
      <path d="M444.20033,418.3674q-.78174-1.65687-1.56343-3.31371l.57709-.40579a18.65345,18.65345,0,0,1,1.24128,1.61458,52.41663,52.41663,0,0,0,3.73149,6.11517,13.658,13.658,0,0,0,21.12931-.40579c1.41876-1.7633,3.08666-3.32608,4.64013-4.981l.77886.6227c-.51738.82374-1.03477,1.64748-1.57175,2.50245,7.03148,2.0894,13.757-1.73141,15.43734-8.63288a7.82975,7.82975,0,0,0-1.36359-6.80179c-1.64458-2.25835-3.23144-4.56027-4.785-6.88234a10.72136,10.72136,0,0,1-.82307-1.97739l.51557-.27334a5.18858,5.18858,0,0,1,.75276.72941,76.26624,76.26624,0,0,0,4.61,6.69348c6.30378,7.33146-.58541,17.03036-6.82348,18.37778a8.58809,8.58809,0,0,1-2.83784.39475c-4.24509-.58239-7.49558,1.38935-10.78893,3.6767-6.80777,4.72825-14.62743,3.71783-19.94045-2.57938a9.59839,9.59839,0,0,0-7.92389-3.60912c-8.00517-.00747-12.13149-4.1668-12.4529-12.26894-.0121-.3053.03122-1.3381-.04993-2.06929-.29921.29362-1.9139,1.6711-2.59713,2.27781-5.84253,5.18833-17.36895,10.95049-19.439,12.13968-4.98223,2.24686-10.70471,5.061-13.17136,10.06909l-.37546-.267a27.15552,27.15552,0,0,1,3.323-4.35515,20.86581,20.86581,0,0,1,4.55015-3.06425c6.48017-3.7534,13.23012-7.05446,19.604-10.97265,3.363-2.06731,6.16453-5.04788,9.60616-7.94106-.08731,1.21845-.14467,2.17453-.226,3.12861-.70567,8.28143,4.99391,12.77086,11.23986,12.24126a25.517,25.517,0,0,1,4.748.46435q.16528.07467.33032.14953Z" transform="translate(-214.64593 -130.53453)"/>
      <path d="M491.99684,351.35988q-4.84076,2.43963-9.68154,4.87928l-.413-.65982a14.00436,14.00436,0,0,1,1.47-1.03864c4.51011-2.41128,9.17133-4.57339,13.52168-7.24292,8.3502-5.1239,16.71071-4.37379,25.22069-.69366.87832.37986,1.73291.81958,2.57906,1.26817,5.128,2.71887,10.12289,5.85132,16.43514,4.822l.01734.74308a6.44814,6.44814,0,0,1-2.44881.49521c-3.16154-.70263-6.29467-1.5474-9.40869-2.44269a36.56293,36.56293,0,0,1-3.712-1.50073c-2.23131-1.2571-4.46268-2.51414-6.92356-3.90047-.17056,2.5101-.29671,4.36573-.43763,6.43872,1.39822-.33372,2.551-.61,3.70435-.88383q1.84263-.43748,3.68608-.87143c-.40752.41329-.74162,1.037-1.2334,1.20864-8.45824,2.95172-17.25018,3.18059-26.07469,3.08625-.19687-.00211-.39123-.2383-.58681-.36527,1.06851-.29259,2.137-.58521,3.25851-.89236-.34547-.51208-.75779-1.12335-1.37771-2.04231l3.37968.19693c.807.45205,1.61145,1.28057,2.42157,1.28625,2.53412.0179,5.06888-.30093,7.606-.44036,2.95992-.16268,3.44156-.76122,3.51445-3.76037.05291-2.177-1.30582-2.69824-2.976-2.963-1.79777-.28494-2.41219.73483-2.47453,2.355a2.54137,2.54137,0,0,1-.39826,1.35958c-.401.53816-.94448,1.2683-1.4843,1.31977-.52483.05-1.21213-.568-1.65733-1.05035a4.79127,4.79127,0,0,1-.65683-1.519c-.50443-1.28865-.97143-2.64211-2.79932-2.26866-1.71732.35089-2.67955,1.31713-2.439,3.18542-.709.16846-1.418.33694-2.19985.52269l-.39673-2.53773C496.54031,348.83666,494.26857,350.09827,491.99684,351.35988Z" transform="translate(-214.64593 -130.53453)"/>
      <path d="M423.32984,450.63319c1.36394.296,12.68905,4.337,19.06988,5.83647,12.74657,2.99519,25.339,1.91165,37.77108-1.7545,5.10017-1.50405,10.11669-2.9197,15.17115-4.578a.21205.21205,0,0,1,.04422-.00887c1.43762-.13072,1.53422-.28236,2.584-.32692,1.00325-.123,1.53328-.10457,2.63282-.186a4.79026,4.79026,0,0,1,1.3021.01431.3901.3901,0,0,1-.13986.72915c-.30767.04495-.1224.00017-.1224.00017a36.40177,36.40177,0,0,0-5.39191.61339c-9.25011,2.4358-18.36788,5.48458-27.72085,7.3926-13.277,2.7085-26.23626.56036-38.63168-4.74536a31.318,31.318,0,0,0-14.25894-2.30432c-.58425-.15313-.31241-.94356-.00021-.99707" transform="translate(-214.64593 -130.53453)"/>
      <path d="M419.99584,352.80463c-.46509.36246-.87671.90058-1.40332,1.06075-6.9711,2.12068-14.03057,3.07931-21.24,1.31326a8.66931,8.66931,0,0,1-1.834-.949c.87307-.069,1.74621-.13805,2.69812-.21337l-.19049-1.82921,2.25914.66252c.59285,1.98545,2.39514,1.67124,3.76527,1.73312,2.21261.09984,4.45687-.39932,6.66152-.25225,2.446.16313,3.18557-1.01209,3.47358-3.12551.28937-2.12332-.69823-3.12911-2.59746-3.5569-1.881-.42366-2.46855.65467-2.95213,2.24127a9.19257,9.19257,0,0,1-1.8116,2.45768,9.94,9.94,0,0,1-2.10518-2.44c-.56939-1.41208-.964-2.81645-2.82542-2.62072a2.56347,2.56347,0,0,0-2.54971,3.07948c-2.23122.69088-1.66321-1.29981-2.14025-2.68183-2.67405,1.61209-5.14949,3.10447-7.6249,4.59682-.9709.39422-1.94179.78844-3.01424,1.22385,0-.47071-.06084-.71933.00871-.76377,4.22015-2.69473,8.24921-5.88615,13.39511-6.56575a50.17522,50.17522,0,0,1,10.03981-.46272,47.90083,47.90083,0,0,1,10.2559,1.89044,114.86108,114.86108,0,0,1,10.92738,4.27008c1.40918.58412,2.731,1.37909,4.09257,2.078l-.317.65862q-4.98033-1.89321-9.961-3.7863c-2.79038-1.18564-5.58053-2.37135-8.33581-3.54225-.53013,2.36909-.96653,4.31947-1.39357,6.22784C416.80854,353.28023,418.40221,353.04246,419.99584,352.80463Z" transform="translate(-214.64593 -130.53453)"/>
      <path d="M371.34535,354.93458c5.11758-3.22228,10.04273-6.57919,15.33043-9.49276,1.90333-1.04877,4.38791-.8898,6.66683-1.21576,4.88774-.69922,9.95-.76861,14.66833-2.0681,6.907-1.90236,12.83633-.85981,18.81775,2.709,2.04944,1.22279,4.08235,2.25417,6.09727,3.53483l-.32555.52429c-.63076-.34259-1.26437-.68009-1.89179-1.0287-2.721-1.51183-5.368-3.18-8.177-4.505-4.20806-1.985-8.54552-1.87347-13.1054-.90644a153.06867,153.06867,0,0,1-17.01439,2.45625,17.63855,17.63855,0,0,0-8.5469,2.71236q-4.86663,3.29668-9.78773,6.51246a20.1452,20.1452,0,0,1-2.47843,1.184Z" transform="translate(-214.64593 -130.53453)"/>
      <path d="M493.23327,343.16224a12.29812,12.29812,0,0,1,5.99356-1.7799c11.99438-.32209,23.2785,1.83885,34.01235,7.45791.801.41932,1.56928.746,2.34876,1.20643l-.18644.37951a19.9632,19.9632,0,0,1-1.84418-.772c-11.06818-5.94571-22.99189-7.97476-35.39888-7.587a9.176,9.176,0,0,0-4.39418,1.55642c-3.89092,2.50313-7.62976,5.24154-11.46469,7.83384-.72835.49239-1.27137.38638-1.05342-.26746" transform="translate(-214.64593 -130.53453)"/>
      <path d="M473.18346,342.486c.491-.04022.51675,1.179.51312,1.40674a132.64571,132.64571,0,0,0,3.18456,31.41137,2.13467,2.13467,0,0,1-.32944,1.67218,4.61253,4.61253,0,0,1-.73011-1.21313,125.63464,125.63464,0,0,1-3.29594-32.3845c.01263-.37465.2443-.90167.65781-.89266" transform="translate(-214.64593 -130.53453)"/>
      <path d="M428.48133,359.25029a16.219,16.219,0,0,1-3.10394,1.97678,38.64361,38.64361,0,0,1-11.433,3.71317c-7.21743.66158-15.68937-1.73653-22.7649-2.32856-1.79077-.37863-3.60478-.47539-5.41706-.75215l.065-.49227c2.12649.26654,4.25909.49192,6.37828.80756,5.67358.84507,11.31771,2.02568,17.02081,2.48116a28.5189,28.5189,0,0,0,9.69956-1.16177C421.98237,362.64316,424.79906,360.93144,428.48133,359.25029Z" transform="translate(-214.64593 -130.53453)"/>
      <path d="M498.39129,409.83012c5.194,6.47566,12.90715,9.15331,19.59117,13.38509,4.30149,2.72335,8.15467,5.92114,10.18266,10.79192a27.51213,27.51213,0,0,1,.91429,3.20036l-.36638.15814a5.12137,5.12137,0,0,1-.54175-1.28c-1.43144-5.45751-5.09312-8.86315-9.61831-11.75224-3.75955-2.40026-8.16511-4.726-11.54826-6.76263a54.22036,54.22036,0,0,1-7.62561-5.87612,17.28463,17.28463,0,0,1-1.36115-1.53983Z" transform="translate(-214.64593 -130.53453)"/>
      <path class="cls-7" d="M502.9715,351.964l-3.37968-.19693c.61992.919,1.03224,1.53023,1.37771,2.04231-1.12148.30715-2.19.59977-3.25851.89239-3.89491-.01333-4.721-.49644-5.71418-3.342,2.27173-1.26155,4.54347-2.52316,7.03459-3.90659l.39673,2.53773c.78182-.18575,1.4908-.35423,2.19979-.52269q1.66174.40175,3.32367.8035l-.05338.591Q503.93488,351.4134,502.9715,351.964Z" transform="translate(-214.64593 -130.53453)"/>
      <path d="M485.16416,361.541c5.27654,1.2764,10.50053,2.881,15.84439,3.737,5.35606.858,10.8317.96876,15.96639,1.38369-3.08011,1.012-24.95053-1.45177-31.9193-4.71185Z" transform="translate(-214.64593 -130.53453)"/>
      <path class="cls-7" d="M389.579,352.28074c2.47541-1.49235,4.95085-2.98473,7.6249-4.59682.477,1.382-.091,3.37271,2.14019,2.68186q1.61921.42087,3.23857.84176l-.03446.59968q-1.13145.52115-2.26292,1.04232l-2.25914-.66252.19049,1.82921c-.95191.07532-1.825.1444-2.69812.21337Q392.5488,353.25506,389.579,352.28074Z" transform="translate(-214.64593 -130.53453)"/>
      <path class="cls-7" d="M419.99584,352.80466c-1.59363.2378-3.1873.47557-4.719.70415.427-1.90837.86344-3.85875,1.39357-6.22784,2.75528,1.1709,5.54543,2.35661,8.33581,3.54225Z" transform="translate(-214.64593 -130.53453)"/>
      <path class="cls-7" d="M525.60592,350.77213q-1.84307.43559-3.68608.87143c-1.1533.27381-2.30613.55011-3.70435.88383.14092-2.073.26707-3.92862.43763-6.43872,2.46088,1.38633,4.69225,2.64337,6.92356,3.90047Q525.59128,350.38061,525.60592,350.77213Z" transform="translate(-214.64593 -130.53453)"/>
      <path d="M433.573,368.34548c5.862-3.55778,8.157-7.90234,3.06832-14.02694,2.50652.70451,4.07168,3.58418,3.96679,6.561A8.33917,8.33917,0,0,1,433.573,368.34548Z" transform="translate(-214.64593 -130.53453)"/>
      <path d="M470.09771,570.38748c-3.4047,5.95582-19.24037,8.61639-25.4257,3.53244C453.75091,577.04467,462.236,575.93742,470.09771,570.38748Z" transform="translate(-214.64593 -130.53453)"/>
      <path d="M308.185,328.35062c.55072,3.19283,1.11308,6.38367,1.649,9.579.56611,3.3755,1.1543,6.74868,1.62188,10.13821a3.17457,3.17457,0,0,1-.86938,2.29638c.87541-8.27859-4.69612-15.76477-2.75971-24.4154a12.60718,12.60718,0,0,1,5.80936,5.76876c3.0467,5.65224,2.92726,11.65025,1.95425,17.75678-.77815,4.88346-1.67563,9.76034-2.15587,14.67574a19.47094,19.47094,0,0,0,5.80682,16.37092c2.30622,2.3049,4.12,4.94715,3.79992,8.45525a14.33358,14.33358,0,0,1-.68493,2.50356l-.68713-.18451a4.49606,4.49606,0,0,0,.22884-1.64707c-.56824-2.17488-.58948-5.01469-2.00239-6.36187-8.953-8.53673-8.61732-18.77321-6.24978-29.60467,1.21359-5.5522,2.06027-11.17315.75366-16.86085C313.52622,333.01963,311.52278,329.85079,308.185,328.35062Z" transform="translate(-214.64593 -130.53453)"/>
      <path class="cls-1" d="M502.9715,351.964q.96337-.55059,1.92674-1.10124l.05338-.591q-1.66183-.40175-3.32367-.8035c-.24053-1.86829.7217-2.83453,2.439-3.18542,1.82789-.37345,2.29489.98,2.79932,2.26866a4.79127,4.79127,0,0,0,.65683,1.519c.4452.48231,1.1325,1.10033,1.65733,1.05035.53982-.05147,1.08328-.78161,1.4843-1.31977a2.54137,2.54137,0,0,0,.39826-1.35958c.06234-1.62014.67676-2.63991,2.47453-2.355,1.67021.26476,3.02894.786,2.976,2.963-.07289,2.99915-.55453,3.59769-3.51445,3.76037-2.53717.13943-5.07193.45826-7.606.44036C504.583,353.24458,503.77852,352.41606,502.9715,351.964Z" transform="translate(-214.64593 -130.53453)"/>
      <path class="cls-1" d="M400.28531,352.84954q1.13147-.52114,2.26292-1.04232l.03446-.59968q-1.61931-.42091-3.23857-.84176a2.56355,2.56355,0,0,1,2.54977-3.07951c1.86137-.19573,2.256,1.20864,2.82542,2.62072a9.94,9.94,0,0,0,2.10518,2.44,9.19257,9.19257,0,0,0,1.8116-2.45768c.48358-1.5866,1.07116-2.66493,2.95213-2.24127,1.89923.42779,2.88683,1.43358,2.59746,3.5569-.288,2.11342-1.02753,3.28864-3.47358,3.12551-2.20465-.14707-4.44891.35209-6.66152.25225C402.68045,354.52078,400.87816,354.835,400.28531,352.84954Z" transform="translate(-214.64593 -130.53453)"/>
    </g>
    <path d="M-223.8023,336.55857" transform="translate(-214.64593 -130.53453)"/>
  </g>
</svg>
