<?xml version="1.0" encoding="utf-8"?>
<!-- Generator: Adobe Illustrator 27.5.0, SVG Export Plug-In . SVG Version: 6.00 Build 0)  -->
<svg version="1.1" id="Layer_1" xmlns="http://www.w3.org/2000/svg" xmlns:xlink="http://www.w3.org/1999/xlink" x="0px" y="0px"
	 viewBox="0 0 470 545.3" style="enable-background:new 0 0 470 545.3;" xml:space="preserve">
<style type="text/css">
	.st0{display:none;fill:#63B3E7;stroke:#000000;stroke-width:0.25;stroke-miterlimit:10;}
	.st1{fill:#63B3E7;stroke:#000000;stroke-width:0.75;stroke-miterlimit:10;}
	.st2{fill:#FFCEA5;}
	.st3{fill:#DEAD70;}
	.st4{fill:#A37844;}
	.st5{fill:#4B3F99;}
	.st6{fill:#F7A69B;}
	.st7{fill:#FFFFFF;}
	.st8{fill:#63B3E7;}
</style>
<circle class="st0" cx="235.5" cy="305.6" r="230.5"/>
<g id="Layer_2_00000182489993167339412830000010327492517697442983_">
	<path class="st1" d="M5,305.1c-0.1-74.3,35.8-144,96.3-187.2c3.5,12.6,5.7,25.5,6.7,38.5c0.9,12.3,2.4,22.7-0.8,39.9
		c-3.2,17.5,48,217.5,101.6,209.3c46.3-7.1,71.6,21.4,133.1-65.8c2.3-3.3,9.4-10.2,11.1-18.2c12.2-56.4,6.5-210.2,14.4-204.6
		c61.2,43.1,97.6,113.2,97.6,188.1c0,127-103,230-230,230S5,432.1,5,305.1z"/>
</g>
<g id="Layer_2_copy">
	<path d="M94.7,404.1c38.7-7.2,60.6,32.8,187.6,32.8s69.2-37.6,90.8-29c5.7,2.3,52.1,12.9,58.7,16.2c0,0-3.9,7.3-14.1,20.6
		c-77.2,100.9-221.6,120.2-322.5,43c-15.5-11.8-29.4-25.6-41.4-40.9c-7.7-9.8-13.1-17.3-16-23.1C34.7,417.3,90.2,406,94.7,404.1"/>
</g>
<g id="Layer_5">
	<path class="st2" d="M361.1,221.7c0,34.4,3.7,68.6-6.7,92.8c-12.7,29.4-19.4,59.9-40.5,59.9c-20.3,0-69.3,28.8-69.3,28.8
		s-78.4,5.9-78.4-29.8c0-38.1-65-255.5-65-255.5S215.2,102,234.4,102c16.8,0,133.1,15,133.1,15S361.1,179,361.1,221.7z"/>
</g>
<g id="Layer_0_Image">
	<g>
		<path class="st3" d="M368.3,213.5c-0.2,3.9-0.3,7.6-0.5,11.3c-0.3,4.4-0.6,8.9-1,13.3c0.2,0.4,0.4,0.9,0.5,1.3
			c-0.5,1.9-1,3.7-1.5,6c-0.6-1.7-1-3-1.7-4.9c-1.8,11.1-4.4,21.3-3.2,32.1c0.7,5.7,0.2,11.5,0.2,17.2c0,0.4,0,0.8,0,1.2
			c-0.8,11.8-1.5,23.5-2.5,35.3c-0.8,9.3-4.4,17.5-9.8,25.1c-5.6,8-10.7,16.2-16.2,24.2c-2.9,4.2-6,8.2-9,12.3
			c-0.1,0.1-0.3,0.3-0.4,0.4l0,0c-0.3,0.3-0.6,0.6-0.9,1c-7.7,6.3-15.3,12.5-23,18.8c-10.3,8.5-21,15.9-34.5,19
			c-9.1,2.1-17.9,3.9-27.2,2.4c-16.8-2.7-31.8-10.1-46.1-18.7c-5.1-3.1-9.2-8-13.6-12.3c-5.7-5.6-11.2-11.4-16.7-17.2
			c-1.7-2-3.4-4.2-4.9-6.4c-0.1-0.6-0.7-0.7-0.8-1.4c-0.2-0.1,0.1-0.4-0.1-0.5l-0.2-0.4c-1.3-5.7-4.1-10.9-8.2-15.1
			c-10.9-11.5-16.4-25.5-17.9-41.2c-0.6-5.9-1.3-11.9-2-17.8c-0.1-0.5-0.3-1.1-0.5-1.6c0-0.4,0-0.8,0-1.3c-0.4-4.7-0.8-9.3-1.2-14
			c-0.3-4-0.6-8-0.9-12.1c0,0-1-1.4-0.7-1.5c-0.4-0.6,0.4-0.6,0.4-0.6c-0.2-3.6-0.4-7.2-0.5-10.8c-0.1-5.4,0-10.7-0.1-16.1
			c-0.1-1.1-0.2-2.2-0.5-3.3l0-0.7c-0.7-4.5-1.2-9-2.2-13.4c-0.9-3.9-2.3-7.7-3.6-11.6c0.2-0.6,0.7-1.4,0.5-1.8
			c-2.7-5.3-5.9-10.2-11-13.5c0.3-2.6,0.7-5.2,0.9-7.8c1.3-17.8,1-35.4-4-52.7c-2.2-7.1-3.1-14.6-2.7-22c0.7-9.5,5.2-18.2,12.5-24.3
			c0.3-0.2,0.6-0.3,0.9-0.3c-0.9,2.1-1.6,4.3-2.1,6.6c-0.2,1.8-0.2,3.6-0.1,5.5c0.6-0.3,0.8-0.5,0.8-0.8c-0.2-6.9,2.9-12.4,7.8-16.8
			c3.8-3.4,8.1-6.2,12.2-9.3c0.6-0.4,1.1-0.8,1.7-1.3l-0.5-0.7c-6.1,3.3-11.6,7.5-16.5,12.5c-4.3-0.5-7.4-2.3-9.1-5.5
			c2.6-0.7,5.1-1.4,7.6-1.9c1.6-0.3,2.1-1.1,2.1-2.8c0-6.7,3.1-13.1,8.4-17.3c4.2-3.5,8.8-6.4,12.9-9.3c-1.2-0.4-2.9-1.1-5.1-1.9
			c9.1-8.3,18.9-14,29.6-18.6l-4.2-2.8l0.1-0.8c2.6-0.6,5.1-1.4,7.7-1.9c16.2-3.2,32.4-6.4,48.6-9.4c5.9-1.1,11.8-1.8,17.7-2.6
			c6-0.7,11.1,1.9,16,4.7c6.5,3.8,13.7,5,21.1,5.8c8.9,0.9,18.1,0.8,26.5,4.7c2.9,1.4,5.5,3.2,7.9,5.3c4.2,3.7,8,7.8,12.3,11.4
			c2,1.5,4.2,2.6,6.6,3.3c3.1,1.1,5.3,2.9,6.1,6.2c1.4,5.7,4.7,10.1,8.7,14.3c4.6,4.5,7.7,10.3,8.9,16.6c0.2,1.9,0.3,3.7,0.5,5.6
			c0.6,8.2-1.7,16-3.1,23.9c-0.1,0.8-0.1,1.7,0,2.5l0.7,0c1.6-8.2,3.9-16.3,4-24.8c3.6,4.9,7.6,9.6,10.7,14.9
			c5.4,8.9,8.9,18.8,10.4,29.1c1.4,9.4,3.7,18.8,3.2,28.5c-0.5,10.6-1.1,21.3-1.6,31.9c-0.1,0.5-0.2,0.9-0.4,1.4c0,0-0.2,0-0.2,0
			l-1.3-5.6c-0.1,0,1.6,5.6,1.5,5.7c0.4,2.1,0.5-1.2-0.8,0.7c-0.5,0.8-2.1,1.4-2.7,2.2 M134.6,160.7l0.5-0.4
			c3.2,0.3,4.1,1.4,3.5,4.5c-0.7,3.8-1.4,7.7-2.4,11.5c-3.2,11.9-6.6,23.7-9.9,35.5c-0.4,1.5-0.6,3-1,5.2l4-2.8
			c-0.1,2.4-0.4,4.4-0.4,6.5c-0.1,13.2-0.5,26.4,1.4,39.5c1.6,11.2,3.5,22.4,5.4,33.5c0.2,0.8,0.6,1.6,1.1,2.4
			c0.8,1.1,1.4,2.3,2,3.5c1.3,3.6,2.4,7.3,3.7,10.9c0.5,1,1.2,1.8,2.1,2.4c1.6,0.9,2.7,2.5,3,4.4c0.2,0.9,0.7,1.6,1.5,2.1
			c2.3,1.3,3.7,3.7,3.8,6.3c0.3,0.9,0.6,1.8,1.2,2.6c0.6,1.3,1.7,2.8,1.5,4c-0.6,4.8,1.5,8.5,4,12.2l1.3-3.8
			c1.3,3.1,2.4,5.7,3.6,8.6c0.9-1.3,1.5-2.3,2.4-3.7c3,3.4,5.7,6.4,8.5,9.6c1-1.6,1.7-2.9,2.6-4.4l2.8,5.9c1.2-2.4,2.1-4.3,3-6.2
			l0.7,0.2v6.1c0.8-0.6,1.2-0.9,2-1.5c-1.5,5.5,0.6,10,1.8,14.9l1.7-1.5c-1.2,4.9,2,7.5,4.1,10.5c0.2,0.2,0.5,0.4,0.7,0.5
			c0.7,0.4,1.4,0.8,2,1.2c0.6,0.6,1.2,1.3,1.8,2l0.7-2.8c4.2,2.9,8.2,5.7,12.5,8.6c2.3-0.8,3.4-0.4,5.2,2c1.3,1.8,3.4,3.4,5.3,2
			c2.9-2.1,5.6-1.2,8.4-0.7c1,0.3,1.9,0.7,2.8,1.3c2.5-1.6,5.5-1.3,7.5,3.2c3.2-3.2,3.8-3.2,7-0.2c0.8,0.7,1.6,1.5,2,1.9
			c1.1-1.5,1.8-3.4,3-3.8c1.3-0.5,3.1,0.4,4.5,0.7c1-1.2,2-3.4,3.3-3.7c1.6-0.3,3.5,1,5.4,1.6c0.2-0.8,0.3-1.4,0.5-2
			c0.6-2.6,0.9-2.8,3.4-1.5c1.8,1,3.4,2.2,5.1,3.4c0.1-1.6,0.2-3.3,0.3-5.1c2.7,0.4,5.2,0.8,8,1.2c-0.3-2.4-0.6-4.5-0.9-6.8
			c1.6-0.1,3-0.2,4.5-0.4c-0.3-1.9-0.5-3.7-0.8-5.4l0.4-0.1c0.3,0.6,0.7,1.3,1.2,2.2c0.3-0.8,0.4-1.3,0.7-2.2c1,0.9,1.8,1.7,2.6,2.5
			c0.3-0.9,0.6-1.9,0.9-3c0.8,0.5,1.4,0.9,2.6,1.6c1-2.6,1.9-5,2.8-7.5c0.4,0.3,0.9,0.5,2.1,1.2c0.4-2.5,0.9-4.6,1.1-6.7
			c0.3-2.2,0.2-4.5,0.5-6.7c0.3-1,0.7-1.8,1.3-2.7c0.7,0.4,1.4,0.8,2.3,1.3c0.6-2.2,1.1-4.4,1.8-6.9l0.5,2l0.6,0
			c0.7-3.1,1.3-6.1,1.9-8.7c0.4,2.2,0.9,4.9,1.4,8c0.8-1,1.3-1.6,1.9-2.4c0.3,1.4-0.2,3.3,2,2.2c0.1,1.5,0.2,2.9,0.3,4.7
			c0.8-1.3,1.3-2.1,2-3.4c0.1,1.6,0.2,2.5,0.3,4c1-2,1.7-3.3,2.6-5c0.2,1,0.3,1.8,0.5,3.2c1.5-3.7,2.8-6.8,4-10
			c0.3,0.5,0.5,0.7,0.4,0.6c1-1.6,2-3.4,3.2-5.4c0.7,0.8,1.1,1.2,1.7,1.8c0.4-1.7,0.6-3,0.9-4.3c0.7-2.8,2.6-4.5,4.5-4.1
			c1.6-3.5,3.2-7,4.8-10.6l2.5,1.6c1.9-3.2,3.7-6.3,5.6-9.3c2.5,1.5,3.9,0.9,4.4-2c0.9-4.9,1.6-9.9,2.1-14.9c0.5-5.3,1-10.7,1.1-16
			c0.1-7.9,0-15.8-0.4-23.7c-0.3-5.6-1.3-11.3-1.5-16.9c-0.3-6.9-0.4-13.8,0-20.6c0.7-13.4,1.9-26.7,2.9-40.1
			c0.1-0.5,0.3-1.1,0.5-1.6c0.6-1.5,1.1-3.1,1.3-4.7c0.2-4.5,0.2-9.1,0.3-13.7c3.7,3.4,7,7.1,7,12.5c0.1,9.1,0,18.2,0,27.3
			c0.1,0.8,0.2,1.6,0.4,2.5l0.6-0.1c0.2-0.5,0.3-1,0.3-1.5c0-9.6,0.3-19.2-0.1-28.8c-0.3-6.3-4.5-10.6-8.9-14.6
			c-1.4-6.4-2.8-12.9-4.3-19.3c-0.9-3.8-2.1-7.4-3.2-11.2c5.3,1.2,9.5,4.1,12.1,9c1.4,2.6,2.3,5.4,3.4,8.1c0.3,0.7,0.6,1.4,1,2.1
			l0.9-0.4c-1.3-3.3-2.4-6.8-4-10c-2.9-5.9-7.9-8.9-14.2-10.2c-7.5-23-24.9-37.4-43.9-50.9c-0.2,1.8-0.3,3-0.5,4.5
			c-1-0.7-1.7-1.1-2.5-1.6c-0.3,2.8-0.3,2.8-2.7,3.6c-2.4,0.8-4.8,1.8-7.2,2.5c-1.4,0.4-1.5,1.1-1.3,2.5c0.4,2.3,0.5,4.6,0.1,6.8
			c-1.4,5.8-8.6,10.8-15.4,11.1c-6.7,0.3-13.4,0.9-20.1,0.8c-11.3-0.1-22.7-0.3-34-1c-5.6-0.3-10.9-2.3-15.3-5.8
			c-2.2-1.8-4.3-3.8-6.4-5.8c-2.2-2.2-5-3.8-8-4.6c0.3,1.9,0.5,3.6,0.8,5.2l-0.7,0.3c-2.5-4.2-6.2-7.6-10.6-9.7
			c-4.5-2.3-9.6-3.1-14.5-2.4c0.5,0.6,0.8,0.9,1.1,1.3c2.5,2.8,2.1,4.3-1.5,5.2c-3,0.8-6,1.6-8.3,2.3c0.3,1.8,0.9,3.5,0.7,5
			c-0.3,1.9-2.2,1.8-3.7,1.8c-4.3,2-8.9,2-13.5,1.9c-4.5-0.1-4.8-0.4-4.8-4.9c0-1-0.1-2.1-0.2-3.1l-0.7,0.1
			c-0.1,1.3-0.3,2.6-0.4,3.9c-0.3,3.3,1.3,5.1,4.6,5.3c1.5,0.1,3,0.2,4.5,0.2c-1.4,0.9-2.7,1.8-4,2.8c-0.6,0.6-1.4,1.6-1.3,2.3
			c0.7,4.2-1.7,7.2-3.6,10.4c-1.5,2.6-3.4,4.9-5.2,7.3l-0.1,0.2l0.1-0.2c2.6-0.9,4.8-3.2,8.4-2.7c-2.2,2.7-4.1,5.1-6,7.4l-0.1,0.1
			l0.1-0.1c1.2-0.1,2.4-0.3,4.1-0.5c-0.9,1.4-1.5,2.2-2,3.1c-1.4,2.2-2.7,4.4-4.1,6.6l-0.1,0.2l0.1-0.2c1.2-0.5,2.4-1,3.8-1.7
			c-1.4,5.1-2.7,9.9-4.2,15c1.6-0.6,2.7-1,3.9-1.4c-0.2,3.8-0.5,7.2-0.7,10.6l-0.6,0c-0.6,0.5-1.2,1-1.7,1.5c-2,2.9-4,5.8-5.8,8.8
			c-4.1,6.5-7.9,13.1-9.4,20.8c-0.1,0.7-0.1,1.4-0.1,2.1c0.8-0.3,1.1-0.6,1.2-1c0.9-6.4,3.8-12,7-17.4
			C128.5,170.2,131.6,165.5,134.6,160.7z M255.6,34.4c1.5,0.5,3.1,0.9,4.5,1.5c5.4,2.3,10.9,4.3,16.1,6.9
			c8.9,4.6,17.9,9.3,26.4,14.6c6.7,4.2,12,9.8,13.8,18c0.1,0.3,0.3,0.5,0.5,0.7l0.6-0.2c-0.2-1.3-0.5-2.6-0.9-3.9
			c-3-7.9-8.9-13.3-15.9-17.3c-9.1-5.2-18.4-10.1-27.8-14.6c-10.5-5.1-21.6-9-33-11.5c-1-0.2-2-0.3-3-0.4l-0.3,0.8
			c23.4,6.5,41.5,20,54.6,40.4c0.1-0.7-0.1-1.5-0.5-2.1c-5.5-9-12.6-16.8-21-23.2c-4.6-3.5-9.6-6.4-14.4-9.5l-0.5-0.3L255.6,34.4z
			 M122.5,66.2l0.3,0.8c1-0.4,2-0.7,2.9-1.1c7.7-3.4,15.4-7.1,23.2-10.3c16.1-6.5,32.7-10.7,50.4-9.2c15.3,1.3,28.6,7,39.3,17.8
			c6.2,6.2,11.4,13.3,17.1,20c0.5,0.5,0.9,1,1.4,1.6l0.6-0.5c-0.4-0.7-0.8-1.4-1.3-2.1c-4.1-5.1-8-10.4-12.3-15.3
			c-6.3-7.3-14.1-13.1-22.8-17.2c-10.2-4.6-21-6.2-32.2-5.8c-11.6,0.5-23,2.9-33.9,7c-8.4,3.1-16.6,6.8-24.8,10.3
			C127.8,63.5,125.2,64.9,122.5,66.2z M240,103.8l0.5-0.6c-0.4-0.5-0.7-1-1.1-1.5c-7-8-14.9-15.2-23.5-21.5c-6.6-4.9-13.6-9.1-22-10
			c-5.3-0.6-10.6-1.2-16-1.4c-8.4-0.4-16.7,0.2-24,5c-5,3.4-9.7,7.3-14.5,11c-0.1,0.1,0,0.4,0,1.1c0.9-0.5,1.5-0.8,2.1-1.3
			c2.3-1.8,4.7-3.5,7-5.5c7.2-6.3,15.5-9.5,25-9.1c5.2,0.2,10.3,0.6,15.5,0.9c7.9,0.3,15.5,2.9,22,7.4c10.1,7,19.3,15.1,27.5,24.2
			C239,102.9,239.5,103.4,240,103.8L240,103.8z M284.9,99.9c2.1-2.1,2.6-6.9,2-10.9c-1.4-9.3-6.5-16.5-13.3-22.4
			c-7.2-6.3-14.8-12.2-22.5-17.9c-8.9-6.6-18.7-11.7-29.7-13.9c-2.1-0.4-4.2-0.6-6.3-0.8l-0.1,0.9c0.5,0.2,1.1,0.4,1.6,0.5
			c6.9,0.6,13.5,2.6,19.6,5.8c15.1,7.9,28.8,18.2,40.7,30.5c6.2,6.3,9.7,14,8.8,23.2C285.6,96.6,285.2,98.2,284.9,99.9L284.9,99.9z
			 M128.5,125.5l0.7,0c0.1-0.7,0.2-1.4,0.2-2.1c-0.4-7.4-0.9-14.8-1.2-22.2c-0.3-5.8,1.2-11.5,4.3-16.5c0.2-0.5,0.4-0.9,0.5-1.4
			l-0.5-0.3c-0.5,0.6-1,1.2-1.5,1.8c-2.7,4.6-4.1,9.8-4.1,15.1c0.1,6.9,0.6,13.7,1,20.6C128,122.1,128.3,123.8,128.5,125.5z
			 M133.6,131.7l-0.2-0.3c-0.6,0.4-1.2,0.8-1.7,1.3c-2.3,2.4-4.7,4.8-6.8,7.4c-4.3,5.2-7.9,10.8-9.3,17.6c-0.2,1.4-0.3,2.8-0.2,4.2
			l0.8,0.1c0.5-6,2.7-11.7,6.3-16.5C125.9,140.6,129.9,136.2,133.6,131.7z"/>
		<path d="M373.2,407.9c0.1,0.8,0.3,1.5,0.5,2.2c3.3,6.6,4.6,14,3.6,21.3c-1.2,10.1-5,19.7-11.1,27.9c-5.8,7.8-11.9,15.5-18.1,23
			c-8,9.7-16.4,19.1-26.2,27.1c-9.4,7.8-20,13.8-31.6,17.7c-8.6,3-17.5,4.9-26.6,5.7c-8.1,0.7-19.8-1.9-28-2.8c0,0-12.3,0-20.6-0.9
			c-7.2-0.7-14.2-1.1-21.3-2.4c-9.2-1.7-45.8-12.9-45.8-12.9l-24.2-12.2l-18.1-13.2c-8.1-10.8-16-23.1-16.7-36.5
			c-0.3-4.8-0.2-9.7,0-14.5c0.3-4.8,0.8-9.5,1.6-14.2c1.2-6.4,2.7-12.8,4.1-19.2c16.1-5.3,32.2-10.6,48.3-15.9
			c3.6-1.2,7.2-2.5,10.7-3.9c0.8-0.5,1.4-1.3,1.5-2.2c0.2-3.2,0.1-6.4,0.1-9.6l0.2,0.3c0.2,0.3,0.4,0.6,0.6,1c0.2,0.3,0.3,0.7,0.4,1
			c-0.1,13.2-0.1,26.4-0.3,39.6c-0.1,5.6-1.5,10.7-5.5,14.9c-0.2-0.5-0.1-1,0.1-1.4c3.2-4.2,4.3-9,4.4-14.1
			c0.1-7.8,0.1-15.7,0.1-23.5c0-0.8-0.1-1.6-0.2-2.7c-8.6,3.5-17.3,6-24.5,11.5c-5.1,3.9-10.2,7.7-15.4,11.4c-5,3.5-7.5,8.3-7,14.3
			c0.5,5.9,1.5,11.6,3,17.3c4.7,17.1,14.6,32.4,28.2,43.8c7.9,6.6,16.7,12,26.2,16.1c17.4,7.6,35.8,10.9,54.5,12.3
			c7.2,0.4,14.5,0.5,21.7,0.1c7.5-0.3,15.1-0.9,22.6-2c20-2.9,37-11.9,51.5-25.9c9.8-9.7,18.5-20.4,26.1-31.9
			c7.2-10.7,13.2-21.9,12-35.5c-0.5-5.6-2.2-10.8-6-14.9c-2.6-2.9-5.8-5.3-9.4-6.9c-1.6-0.8-3.3-1.4-5-1.9c-3.5-1-7-1.8-10.9-2.7
			c-0.5,9.3-1.1,18-1.3,26.6c-0.2,9.2,1.3,18.2,6,26.3c0.3,0.6,0.5,1.3,0.7,1.9c-0.7-0.3-0.9-0.4-1-0.6c-0.4-0.7-0.9-1.3-1.2-2
			c-5.6-10.4-5.8-21.8-5.4-33.2c0.3-7.5,1.3-15,1.9-22.6c0.3-0.3,0.6-0.6,0.9-1v3.5c1.1,0.6,3.5-0.3,11.7,2.3
			c16.1,5.2,42.7,15.3,42.7,15.3"/>
		<path d="M370.4,216c0.4-0.7,0.8-1.3,1.2-2c1.2-2,2.5-3.8,5.1-4.4v6.7l-0.5,0c-0.1-1.6-0.2-3.2-0.3-5.1c-2.3,1.3-3.9,3.7-4.2,6.3
			c-1.2,6.4,2,11.8,3.6,17.6c0.4-2.7,0.8-5.4,1-8.1c0.6-7.8,1.2-15.6,1.6-23.4c0-1.9-0.6-3.8-1.6-5.3c-1.5-2.3-4.3-1.9-5.4,0.4
			l-1.2-0.4c0.5-0.8,1.1-1.6,1.6-2.3c0.6-0.2,1.1-0.4,1.7-0.6c0.8-0.3,0.2,0,0.2,0c4.6,1.4,6.2,3.3,6,8.7
			c-0.2,6.8-0.8,13.6-1.4,20.3c-1.3,13.4-2.7,26.7-4.1,40.1c-0.5,4.6-0.8,9.2-1.5,13.8c-1,6.4-4.6,10.8-10.9,12.7c0-0.4,0-0.8,0-1.2
			c5.4-1.8,8.8-5.5,9.6-11.2c1-7,1.6-14,2.3-20.9c0.3-3,0.6-6,0.9-9.4c-2.5,4-4.7,7.6-6.9,11.2c-1.9,3.2-1.7,6.2,0.9,9
			c0.9,0.9,1.6,2,2,3.2c0.2,1,0.2,1.9,0.1,2.9c-1-2-2.1-4-3.4-5.8c-2.3-2.8-2.7-5.8-1-8.9c1.3-2.4,2.7-4.7,4.3-6.9
			c4.6-6.8,5.8-14,2.7-21.8C370.6,226.3,369.8,221.1,370.4,216z"/>
		<path d="M107.2,196.3c5.2,3.3,8.4,8.2,11,13.5c0.2,0.4-0.3,1.2-0.5,1.8c-0.8-1.4-1.5-2.8-2.3-4.2c-2.2-3.8-4.5-7.6-8.5-9.9
			c-5.1-2.9-9.8-1-11.4,4.6c-0.6,1.9-0.8,3.9-0.7,5.9c0.5,5.6,1.2,11.1,2.1,16.6c1.5,10.1,3.2,20.1,4.7,30.2c0.7,4.5,0.9,9.1,3.7,13
			c2.5,3.5,4,7.5,4.4,11.7c0.4,5.4,3.9,10.1,8.9,12.1c2.8,1.2,5.5,2.5,8.3,3.8c0,0.4,0,0.8,0,1.3c-3.3-1.5-6.5-2.9-9.8-4.5
			c-4.6-2.1-7.8-6.5-8.4-11.5c-0.7-4.6-2.3-9-4.7-12.9c-1.9-3.2-3-6.9-3.2-10.6c-0.7-12.4-3.8-24.4-5.7-36.6
			c-0.8-5-1.1-10.1-1.2-15.2c0.1-2.2,0.7-4.4,1.8-6.3C97.8,195.2,101.6,194.4,107.2,196.3z"/>
		<path class="st4" d="M118.1,84.9c4.9-4.9,10.4-9.1,16.5-12.5l0.5,0.7c-0.6,0.4-1.1,0.8-1.7,1.3c-4.1,3.1-8.4,5.9-12.2,9.3
			c-5,4.4-8,9.9-7.8,16.8c0,0.3-0.1,0.6-0.8,0.8c-0.2-1.8-0.1-3.7,0.1-5.5c0.6-2.2,1.3-4.4,2.1-6.6C115.9,87.8,117,86.3,118.1,84.9z
			"/>
		<path class="st4" d="M350.7,89.6c-0.2,8.5-2.5,16.6-4,24.8l-0.7,0c-0.1-0.8-0.1-1.7,0-2.5c1.4-7.9,3.8-15.7,3.1-23.9
			c-0.1-1.9-0.3-3.7-0.5-5.6c0.5,1.5,1.1,2.9,1.6,4.4C350.4,87.8,350.6,88.7,350.7,89.6z"/>
		<path class="st5" d="M323.1,388.3c0.1-0.1,0.3-0.3,0.4-0.4C323.4,388,323.3,388.2,323.1,388.3z"/>
		<path class="st2" d="M134,128.6c1.9-2.4,3.8-4.7,6-7.4c-3.7-0.5-5.8,1.7-8.4,2.7l-0.1,0.2l0.1-0.2c1.7-2.4,3.6-4.7,5.2-7.3
			c1.9-3.2,4.3-6.3,3.6-10.4c-0.1-0.7,0.6-1.7,1.3-2.3c1.3-1,2.6-2,4-2.9c2.9-0.5,5.9-1,8.8-1.7c0.7-0.2,1.2-1.2,1.8-1.8
			c1.6,0,3.4,0.1,3.7-1.8c0.2-1.5-0.4-3.2-0.7-5c2.3-0.6,5.3-1.5,8.3-2.3c3.6-1,4-2.4,1.5-5.2c-0.3-0.3-0.6-0.7-1.1-1.3
			c5-0.8,10.1,0.1,14.5,2.4c4.4,2.1,8.1,5.5,10.6,9.7l0.7-0.3c-0.2-1.6-0.5-3.3-0.8-5.2c3,0.8,5.8,2.4,8,4.6
			c2.1,1.9,4.2,3.9,6.4,5.8c4.4,3.5,9.7,5.5,15.3,5.8c11.3,0.7,22.7,0.9,34,1c6.7,0,13.4-0.5,20.1-0.8c6.8-0.3,14-5.3,15.4-11.1
			c0.4-2.3,0.3-4.6-0.1-6.8c-0.2-1.4-0.1-2,1.3-2.5c2.4-0.7,4.8-1.7,7.2-2.5c2.5-0.9,2.5-0.8,2.7-3.6c0.8,0.5,1.5,0.9,2.5,1.6
			c0.1-1.5,0.3-2.7,0.5-4.5c19,13.6,36.4,27.9,43.9,50.9c0.3,0.5,0.5,1,0.8,1.4c1.1,3.7,2.3,7.4,3.2,11.2c1.5,6.4,2.9,12.8,4.3,19.3
			c0.2,0.9,0.4,1.8,0.7,2.7c-0.1,4.6,0,9.1-0.3,13.7c-0.3,1.6-0.7,3.2-1.3,4.7c-0.2,0.5-0.4,1-0.5,1.6c-1,13.4-2.1,26.7-2.9,40.1
			c-0.4,6.9-0.3,13.8,0,20.6c0.2,5.6,1.3,11.3,1.5,16.9c0.4,7.9,0.5,15.8,0.4,23.7c-0.1,5.3-0.5,10.7-1.1,16c-0.5,5-1.3,10-2.1,14.9
			c-0.5,2.9-1.9,3.5-4.4,2c-1.8,3.1-3.7,6.1-5.6,9.3l-2.5-1.6c-1.6,3.6-3.2,7.1-4.8,10.6c-1.9-0.4-3.8,1.3-4.5,4.1
			c-0.3,1.3-0.6,2.6-0.9,4.3c-0.6-0.6-0.9-1-1.7-1.8c-1.2,2-2.2,3.7-3.2,5.4c0.1,0.1-0.1-0.1-0.4-0.6c-1.3,3.2-2.5,6.2-4,10
			c-0.2-1.4-0.3-2.1-0.5-3.2c-0.8,1.6-1.6,3-2.6,5c-0.1-1.6-0.2-2.5-0.3-4c-0.8,1.3-1.3,2.1-2,3.4c-0.1-1.8-0.2-3.1-0.3-4.7
			c-2.2,1-1.7-0.8-2-2.2c-0.6,0.8-1.1,1.4-1.9,2.4c-0.6-3.1-1-5.8-1.4-8c-0.6,2.6-1.2,5.6-1.9,8.7l-0.6,0l-0.5-2
			c-0.7,2.5-1.2,4.7-1.8,6.9c-0.9-0.5-1.6-0.9-2.3-1.3c-0.6,0.8-1,1.7-1.3,2.7c-0.3,2.2-0.3,4.5-0.5,6.7c-0.2,2.1-0.7,4.1-1.1,6.7
			c-1.1-0.7-1.6-1-2.1-1.2c-0.9,2.5-1.8,4.9-2.8,7.5c-1.2-0.7-1.8-1.1-2.6-1.6c-0.3,1.1-0.6,2.1-0.9,3c-0.9-0.8-1.7-1.6-2.6-2.5
			c-0.3,0.8-0.4,1.3-0.7,2.2c-0.5-0.9-0.9-1.6-1.2-2.2l-0.4,0.1c0.2,1.8,0.5,3.5,0.8,5.4c-1.5,0.1-2.9,0.2-4.5,0.4
			c0.3,2.3,0.6,4.4,0.9,6.8c-2.8-0.4-5.2-0.8-8-1.2c-0.1,1.9-0.2,3.5-0.3,5.1c-1.7-1.1-3.3-2.4-5.1-3.4c-2.4-1.3-2.7-1.1-3.4,1.5
			c-0.1,0.6-0.3,1.2-0.5,2c-1.9-0.7-3.9-2-5.4-1.6c-1.4,0.3-2.3,2.5-3.3,3.7c-1.3-0.3-3.2-1.2-4.5-0.7c-1.2,0.5-1.9,2.4-3,3.8
			c-0.5-0.4-1.3-1.2-2-1.9c-3.2-3-3.8-3-7,0.2c-2.1-4.5-5.1-4.7-7.5-3.2c-0.9-0.5-1.8-0.9-2.8-1.3c-2.8-0.5-5.5-1.5-8.4,0.7
			c-1.9,1.4-3.9-0.3-5.3-2c-1.8-2.4-2.9-2.8-5.2-2c-4.3-2.9-8.3-5.7-12.5-8.6l-0.7,2.8c-0.5-0.7-1.1-1.4-1.8-2
			c-0.6-0.5-1.3-0.9-2-1.2c-0.3-0.1-0.5-0.3-0.7-0.5c-2.1-3-5.3-5.6-4.1-10.5l-1.7,1.5c-1.2-4.9-3.3-9.4-1.8-14.9
			c-0.8,0.6-1.2,0.9-2,1.5v-6.1l-0.7-0.2c-0.9,1.9-1.9,3.8-3,6.2l-2.8-5.9c-0.9,1.5-1.7,2.8-2.6,4.4c-2.8-3.2-5.5-6.2-8.5-9.6
			c-0.9,1.3-1.6,2.4-2.4,3.7c-1.2-2.9-2.3-5.5-3.6-8.6l-1.3,3.8c-2.5-3.8-4.6-7.5-4-12.2c0.2-1.3-1-2.7-1.5-4
			c-0.5-0.8-0.9-1.7-1.2-2.6c-0.1-2.6-1.6-5-3.8-6.3c-0.7-0.5-1.3-1.3-1.5-2.1c-0.3-1.8-1.4-3.4-3-4.4c-0.9-0.6-1.6-1.4-2.1-2.4
			c-1.3-3.6-2.4-7.3-3.7-10.9c-0.6-1.2-1.3-2.4-2-3.5c-0.5-0.7-0.9-1.5-1.1-2.4c-1.8-11.2-3.8-22.3-5.4-33.5
			c-1.9-13.1-1.6-26.3-1.4-39.5c0-2.1,0.2-4.1,0.4-6.5l-4,2.8c0.4-2.1,0.6-3.7,1-5.2c3.3-11.9,6.7-23.7,9.9-35.5
			c1-3.8,1.7-7.6,2.4-11.5c0.6-3.1-0.3-4.2-3.5-4.5l-0.1-0.1c0.2-3.4,0.4-6.8,0.7-10.6c-1.2,0.4-2.2,0.8-3.9,1.4
			c1.4-5.2,2.8-9.9,4.2-15c-1.5,0.7-2.7,1.2-3.8,1.7l-0.1,0.2l0.1-0.2c1.4-2.2,2.7-4.4,4.1-6.6c0.5-0.8,1.1-1.7,2-3.1 M179.9,231.7
			l5.9,1.9c0.6,0.4,1.2,0.7,1.8,0.9c7.2,1.8,14.3,0.8,21.2-1.3c0.5-0.2,0.9-0.7,1.4-1.1l5-2c3.3,1.3,6.6,2.5,10,3.8l0.3-0.7
			c-1.4-0.7-2.7-1.5-4.1-2.1c-3.6-1.6-7.2-3-10.9-4.3c-3.3-1-6.8-1.6-10.3-1.9c-3.4-0.2-6.7,0-10,0.5c-5.1,0.7-9.2,3.9-13.4,6.6
			c-0.1,0,0,0.3,0,0.8C178,232.5,179,232.1,179.9,231.7L179.9,231.7z M288.1,234.2c0.2,0.1,0.4,0.4,0.6,0.4
			c8.8,0.1,17.6-0.1,26.1-3.1c0.5-0.2,0.8-0.8,1.2-1.2l0-0.8c1.2,0.6,2.4,1.1,3.7,1.5c3.1,0.9,6.2,1.7,9.4,2.4
			c0.8,0,1.7-0.2,2.4-0.5l0-0.7c-6.3,1-11.3-2.1-16.4-4.8c-0.8-0.4-1.7-0.9-2.6-1.3c-8.5-3.7-16.9-4.4-25.2,0.7
			c-4.4,2.7-9,4.8-13.5,7.2c-0.5,0.3-1,0.7-1.5,1l0.4,0.7c3.2-1.6,6.5-3.3,9.7-4.9C283.3,233.7,284.2,234.2,288.1,234.2L288.1,234.2
			z M181.5,308.6L211,254c3.3,0,24.3,45.8,26.5,48.3c5.3,6.3,13.1,7.3,19.9,2.6c3.3-2.3,6.5-4.3,10.8-3.7c1,0,1.9-0.1,2.8-0.4
			c6.2-1.3,13.1-11,6.8-18.4c-1.7-2.1-3.2-4.4-4.6-6.7c-0.2-0.3-0.5-0.5-0.8-0.7l-0.5,0.3c0.2,0.7,0.5,1.3,0.8,2
			c1.6,2.3,3.1,4.6,4.8,6.9c1.5,1.9,2,4.4,1.4,6.8c-1.7,6.9-8.4,10.7-15.4,8.6c0.5-0.9,1.1-1.7,1.6-2.5l-0.8-0.6
			c-1.6,1.7-3.2,3.2-4.6,5c-4.7,5.9-13.3,6.9-19.2,2.3c-0.7-0.6-1.4-1.2-1.9-1.9c-1.4-2-2.6-4-3.7-6.1c-0.4-0.6-0.8-1.1-1.2-1.6
			l-0.6,0.4c0.5,1.1,1,2.2,1.6,3.3c-0.1,0.1-0.2,0.2-0.2,0.2c-1.6-0.3-3.2-0.5-4.7-0.5c-6.2,0.5-11.9-4-11.2-12.2
			c0.1-1,0.1-1.9,0.2-3.1c-3.4,2.9-6.2,5.9-9.6,7.9c-6.4,3.9-13.1,7.2-19.6,11 M214.7,287.1L199.4,332c2.2-0.4,4.4-0.8,6.6-1.2
			c0.4,0.6,0.8,1.1,1.3,1.7c2.1,1.7,4.2,3.4,6.3,5.1c11.8,9.9,25.4,13.7,40.5,11.8c12.1-1.6,23.5-6.6,32.9-14.5c1.8-1.6,3.4-3.3,5-5
			 M285.7,329.2c-0.4-0.2-0.9-0.4-1.3-0.5c-3.9-0.5-7.9-1.2-11.9-1.3c-5.3-0.2-10.7,0-16,0.2c-3.1,0.1-6.3,1.3-9.2,0.7
			c-9.3-2.1-18.5-1.6-27.8-0.3 M268.1,220.3c10.8-2.7,21.5-6,32.9-4.8c5.9,0.6,11.9,1.1,17.8,1.7c4.9,0.5,9.9,1.2,14.7,1.9
			c-2.8-5.5-8.2-9.2-14.3-9.7c-2.8-0.3-5.5-0.7-8.3-1.2c-1.2-0.3-2.4-0.8-3.5-1.3c-0.8-0.4-1.6-0.8-2.4-1c-2.8-0.1-5.5,0-8.4,0
			c0.1-0.4,0.2-1.1,0.5-2.4c-5.3,0.8-10.3,1.6-15.2,2.4c-3.7,0.6-7.4,1.5-10.1,4.4 M266.2,255.2c0.2,0.4,0.4,0.8,0.7,1.2
			c0.3-0.5,0.5-1.1,0.3-1.7c-2.4-10.5-3.4-21.3-3.2-32.1 M215.2,305.2c-2.4,0.6-5.2,0.7-7.2,2c-2.5,1.8-5.3,3.2-8.2,4.2
			c-4.8,1.4-7.3,5-9,10c0.8-0.1,1.7-0.2,2.5-0.5c1.3-0.7,2.6-1.6,3.9-2.3c0.6-0.3,1.6-1,1.9-0.8c2,1.4,3.8,0.2,5.7,0
			c0.5,0,1.1-0.1,1.4,0.1c2.8,2.3,6.6,0.6,9.7,2.4c1.6,1,4.5-0.6,6,2c0.2,0.3,0.7,0.3,1.1,0.4c2.2,0.2,4.4,0.6,6.6,0.6
			c2.2,0,4.5-1.7,6.6,0.5c0.2,0.2,0.8,0.1,1.2,0.1c2.5-0.4,5-0.7,7.5-1.3c1.9-0.4,4.1-0.9,3.8-3.8c0.7,1.7,1.4,3.3,2.1,5l0.7-0.2
			c0.1-1.4,0.2-2.8,0.4-4.4c2.8,1.6,5.4,3.1,8,4.3c0.6,0.3,1.5-0.1,2.3-0.1l0.1-0.2c1.5,0.3,2.8-2.4,4.3-2.3c0.5,0,1.3,2.5,1.8,2
			l0.1-0.1c0.4,0.1,0.8,0.2,1.2,0.3c0.9,0.1,1.8,0.3,2.7,0.4v-3c3.1,0.2,6.4,0.5,9.8,0.8c0-0.5-0.1-1.3-0.2-2.3l7.7,4.3
			c0.3-1.4,0.4-2.1,0.6-2.9c0.9,0.5,1.6,0.9,2.2,1.3l0.1-0.8c0.8-0.1,1.7-0.1,2.5,0c1.7,0.4,3.7,1.6,3.8-1.4c2.6,1.2,5,2.3,7.4,3.4
			l0.8-0.7c-1.1-2.4-2-5-3.5-7c-2.3-3-5.7-4.6-9.3-5.6c-5.3-1.5-10.3-4.3-16-3.5c-2.7,0.4-5.1,0.6-7.2-1.5l-1.3,1.9l-2.4-1.9
			c-0.4,0.4-0.9,0.6-1.1,1c-1,2.5-4-0.6-5,1.8c-0.4-0.1-0.7-0.2-1.1-0.2c-1.1,0-2.4-0.2-3.2,0.3c-2.3,1.6-5.2,2.3-8,1.9
			c-2.9-0.3-5.9-0.4-8.8-1c-3-0.7-6.1-0.3-8.8,1.2c-2.2-2.2-4.8-1.8-7.4-1.7c0.2-1.2,0.4-2.3,0.6-4c-3.6,1-6.7,1.8-9.9,2.6
			C215,306.3,215.1,305.8,215.2,305.2 M228.7,219.6c0.8-4.5-0.8-8.2-4.6-10c-9.5-4.4-19.1-8-29.8-7.8c-4.2,0.1-8.3,0.2-12.1,2.1
			c-4.5,2.3-8.8,5-13.8,6.2c-0.5,0.1-1.3,0.7-1.4,1.2c-0.3,2.1-1.8,2.1-3.3,2.2c-0.9,0-1.9,0.1-2.8,0.4c-0.5,0.2-0.7,1.1-1.1,1.7
			l0.4,0.4c-2.7,1.2-5.5,2.4-8.5,3.7c3.2,1.9,6.6,1.6,11.5,0.3c6.5-1.8,12.9-3.7,19.3-5.6c7.1-2,14.3-3.5,21.6-0.8
			c1.2,0.3,2.5,0.5,3.8,0.4C215.3,213.8,222.5,215.7,228.7,219.6L228.7,219.6z M225,361.7l0.7,0.2c0.9-0.5,1.7-1.1,2.8-1.8l5,6.8
			c0.3-0.4,0.7-0.8,1-1.3c0.6,0.5,1.2,1,1.7,1.5c0.7-0.9,1.2-1.6,1.9-2.4c1,2,2,3.8,3,6c0.8-1.9,1.4-3.3,2-4.7l0.5,0.1
			c0.2,1,0.4,2.1,0.6,3.4c1.1-1.5,1.9-2.6,2.6-3.7l4.2,3.9l4.1-6.4c0.5,0.8,0.9,1.3,1.2,1.8c1.2-0.9,2.2-1.8,3.3-2.7
			c0.4,1.4,0.8,2.5,1.3,4.1c1.6-2.2,2.9-3.9,4.3-5.9l1.3,2.8c0.5-1,0.9-1.7,1.4-2.4c0.6,0.4,1.1,0.7,1.8,1.1
			c0.7-4.4,4.3-8.2,0.4-12.9l-5.3,5l-2.1-1.9c-0.4,0.6-0.7,1.2-1.1,1.8l-0.4-0.7c-1.3,0.5-2.5,0.9-3.9,1.2c-3.9,0.6-7.8,0.9-11.7,1
			c-5.1,0-10.3-0.5-15.4-0.9c-0.8-0.1-1.5-0.5-2.1-0.9c-0.8-0.5-1.5-1.1-2.2-1.8C225.8,355.6,225.4,358.7,225,361.7z M176.9,224.5
			l40.5-0.7l-55.4,11c0.9-0.3,1.7-0.7,2.5-1.2c3.3-2.1,6.5-4.3,9.8-6.5c2.6-1.6,5.5-2.6,8.5-2.7c5.7-0.5,11.4-1.3,17-2.5
			c4.6-1,8.9-1.1,13.1,0.9c2.8,1.3,5.5,3,8.2,4.5c0.6,0.3,1.3,0.7,1.9,1 M272.7,230.9c3.8-2.6,7.6-5.3,11.5-7.8
			c1.3-0.9,2.8-1.4,4.4-1.6c12.4-0.4,24.3,1.6,35.4,7.6c0.6,0.3,1.2,0.5,1.8,0.8 M218.8,238.7c-3.7,1.7-6.5,3.4-9.6,4.2
			c-3.1,0.9-6.4,1.3-9.7,1.2c-5.7-0.5-11.3-1.6-17-2.5c-2.1-0.3-4.3-0.5-6.4-0.8 M297.1,297.6c3.8,2.4,7.8,4.3,11.6,6.7
			 M291.4,244.7c-5.3-0.9-10.6-2.5-15.8-3.7 M223.9,247.8c3.8-0.6,6.7-3.7,7-7.5c0.1-3-1.5-5.9-4-6.6
			C232.1,239.9,229.8,244.3,223.9,247.8z"/>
		<path class="st2" d="M322.3,389.2c-0.7,7.5-1.6,15-1.9,22.6c-0.5,11.4-0.2,22.8,5.4,33.2c0.4,0.7,0.8,1.4,1.2,2
			c0.1,0.2,0.4,0.2,1,0.6c-0.2-0.7-0.4-1.3-0.7-1.9c-4.7-8.2-6.2-17.1-6-26.3c0.2-8.7,0.8-17.3,1.3-26.6c3.9,1,7.5,1.7,10.9,2.7
			c5.5,1.5,10.5,4.6,14.4,8.8c3.8,4.2,5.5,9.3,6,14.9c1.2,13.6-4.8,24.8-12,35.5c-7.5,11.5-16.3,22.2-26.1,31.9
			c-14.5,14-31.5,23-51.5,25.9c-7.5,1.1-15,1.6-22.6,2c-7.2,0.4-14.5,0.4-21.7-0.1c-18.8-1.4-37.2-4.7-54.5-12.3
			c-9.5-4.1-18.3-9.5-26.2-16.1c-13.6-11.4-23.5-26.7-28.2-43.8c-1.5-5.7-2.5-11.5-3-17.3c-0.6-6,2-10.7,7-14.3
			c5.2-3.7,10.3-7.6,15.4-11.4c7.3-5.5,15.9-8,24.5-11.5c0.1,1.1,0.2,1.9,0.2,2.7c0,7.8,0,15.7-0.1,23.5c-0.1,5.1-1.2,9.9-4.4,14.1
			c-0.2,0.4-0.3,0.9-0.1,1.4c4-4.2,5.4-9.4,5.5-14.9c0.2-13.2,0.2-26.4,0.3-39.6c1.5,2.2,3.2,4.3,4.9,6.4c5.5,5.8,11,11.6,16.7,17.2
			c4.4,4.3,8.4,9.2,13.6,12.3c14.4,8.6,29.3,16,46.1,18.7c9.3,1.5,18.1-0.3,27.2-2.4c13.4-3.1,24.2-10.5,34.5-19
			C307,401.7,314.6,395.5,322.3,389.2z M260.5,449.9c-7.9,5.5-16.3,6.7-25.4,3.5C241.2,458.5,257,455.8,260.5,449.9z"/>
		<path class="st2" d="M126.8,295.6c-2.8-1.3-5.5-2.5-8.3-3.8c-5-2-8.5-6.7-8.9-12.1c-0.4-4.2-1.9-8.3-4.4-11.7
			c-2.8-3.8-3.1-8.5-3.7-13c-1.5-10.1-3.2-20.2-4.7-30.2c-0.8-5.5-1.5-11.1-2.1-16.6c-0.1-2,0.1-4,0.7-5.9c1.6-5.6,6.3-7.5,11.4-4.6
			c4,2.3,6.3,6,8.5,9.9c0.8,1.4,1.6,2.8,2.3,4.2c1.2,3.9,2.7,7.7,3.6,11.6c1,4.4,1.5,8.9,2.2,13.3l0,0.1l0,0.7c-0.1,0-0.2,0-0.2,0
			l0.1-0.9c-2.5-1.6-5-3.1-7.3-4.6c-0.7,2.8-1.6,5.7-2.1,8.7c-0.6,3-0.9,6.1-0.9,9.2c0.2,5.2,2,7.1,6.9,8.6c1.4,0.3,2.3,1.7,2,3.1
			c-0.1,0.8-0.3,1.6-0.5,2.3c-0.7,2.1-0.8,3.9,1.9,4.6c0.5,0.1,1,0.8,1.4,1.2c0.3,4,0.6,8,0.9,12.1
			C126,286.3,126.4,290.9,126.8,295.6z M98.5,207.8c3.3,1.5,5.3,4.7,6.2,8.5c1.3,5.7,0.5,11.3-0.8,16.9c-2.4,10.8-2.7,21.1,6.2,29.6
			c1.4,1.3,1.4,4.2,2,6.4c0,0.6-0.1,1.1-0.2,1.6l0.7,0.2c0.3-0.8,0.5-1.7,0.7-2.5c0.3-3.5-1.5-6.2-3.8-8.5
			c-4.4-4.2-6.5-10.3-5.8-16.4c0.5-4.9,1.4-9.8,2.2-14.7c1-6.1,1.1-12.1-2-17.8c-1.2-2.5-3.3-4.5-5.8-5.8
			c-1.9,8.7,3.6,16.1,2.8,24.4c0.6-0.6,0.9-1.4,0.9-2.3c-0.5-3.4-1.1-6.8-1.6-10.1C99.7,214.2,99.1,211,98.5,207.8z"/>
		<path class="st2" d="M370.4,216c-0.6,5.1,0.2,10.3,2.3,15c3.1,7.8,1.9,15-2.7,21.8c-1.5,2.2-3,4.5-4.3,6.9c-1.6,3.1-1.2,6.1,1,8.9
			c1.3,1.9,2.4,3.8,3.4,5.8c0.1-1,0.1-1.9-0.1-2.9c-0.5-1.2-1.2-2.3-2-3.2c-2.6-2.8-2.8-5.8-0.9-9c2.2-3.6,4.4-7.2,6.9-11.2
			c-0.3,3.4-0.6,6.4-0.9,9.4c-0.7,7-1.4,14-2.3,20.9c-0.8,5.7-4.2,9.3-9.6,11.2c0-5.7,0.5-11.5-0.2-17.2c-1.2-10.8,1.4-21,3.2-32.1
			c0.6,1.9,1.1,3.2,1.7,4.9c0.6-2.3,1.1-4.2,1.5-6c3.1,1.9,3.6,4.4,1.5,7.4c-1.8,2.7-3.5,5.5-5.2,8.3c-0.3,0.7-0.5,1.5-0.7,2.2
			c2.9-3.7,5.5-7.7,7.8-11.9c1.5-3-0.5-6.3-4-7.3c0.3-4.4,0.7-8.9,1-13.3c0.2-3.7,0.3-7.4,0.5-11.3
			C369.1,214.5,369.8,215.2,370.4,216z"/>
		<path class="st2" d="M123.4,237.3c0.2,1.1,0.4,2.2,0.5,3.3c0.1,5.4,0,10.7,0.1,16.1c0.1,3.6,0.3,7.2,0.5,10.8
			c-2.1-0.4-2.9-1.4-2-3.5c0.3-0.9,0.5-1.8,0.5-2.8c0.1-2.1-0.8-3.7-3-3.9c-3.6-0.4-4.8-2.8-5.6-5.9c-1.6-6.2,1.1-11.6,2.5-17.5
			c0.7,0.6,1.5,1.2,2.4,1.7C120.6,236.2,122,236.7,123.4,237.3z"/>
		<path class="st4" d="M255.4,34.6c4.8,3.1,9.8,6,14.4,9.5c8.4,6.3,15.5,14.2,21,23.2c0.4,0.6,0.5,1.4,0.5,2.1
			c-13-20.4-31.2-34-54.6-40.4l0.3-0.8c1,0.1,2,0.2,3,0.4c11.4,2.5,22.5,6.4,33,11.5c9.4,4.6,18.7,9.4,27.8,14.6
			c7,4,12.9,9.5,15.9,17.3c0.4,1.3,0.7,2.6,0.9,3.9l-0.6,0.2c-0.2-0.2-0.4-0.4-0.5-0.7c-1.8-8.1-7.2-13.8-13.8-18
			c-8.5-5.3-17.5-10-26.4-14.6c-5.2-2.7-10.7-4.7-16.1-6.9c-1.5-0.6-3-1-4.5-1.5c-0.2,0-0.5-0.1-0.7-0.1L255.4,34.6z"/>
		<path class="st4" d="M122.5,66.2c2.7-1.3,5.3-2.7,8-3.9c8.2-3.5,16.4-7.1,24.8-10.3c10.8-4.2,22.3-6.5,33.9-7
			c11.2-0.4,22,1.2,32.2,5.8c8.7,4,16.5,9.9,22.8,17.2c4.4,4.9,8.2,10.2,12.3,15.3c0.5,0.7,0.9,1.4,1.3,2.1l-0.6,0.5
			c-0.5-0.5-0.9-1-1.4-1.6c-5.7-6.7-10.9-13.8-17.1-20c-10.7-10.8-24-16.5-39.3-17.8c-17.7-1.5-34.3,2.7-50.4,9.2
			c-7.8,3.2-15.5,6.9-23.2,10.3c-0.9,0.4-1.9,0.7-2.9,1.1L122.5,66.2z"/>
		<path class="st2" d="M368.3,213.5l1.2-15.2l1.2,0.4c1.1-2.4,3.9-2.7,5.4-0.4c1,1.6,1.6,3.4,1.6,5.3c-0.3,7.8-1,15.6-1.6,23.4
			c-0.2,2.7-0.6,5.4-1,8.1c-1.6-5.8-4.8-11.3-3.6-17.6c0.3-2.6,1.9-5,4.2-6.3c0.1,1.9,0.2,3.5,0.3,5.1l0.5,0v-6.7
			c-2.5,0.6-5.1,4.4-6.3,6.4"/>
		<path class="st4" d="M240,103.8c-0.5-0.4-1-0.8-1.4-1.3c-8.2-9.1-17.4-17.2-27.5-24.2c-6.5-4.5-14.1-7-22-7.4
			c-5.2-0.2-10.3-0.7-15.5-0.9c-9.6-0.4-17.8,2.8-25,9.1c-2.2,1.9-4.6,3.7-7,5.5c-0.6,0.4-1.2,0.8-2.1,1.3c0-0.7-0.1-1,0-1.1
			c4.8-3.7,9.5-7.6,14.5-11c7.2-4.9,15.6-5.4,24-5c5.3,0.3,10.7,0.8,16,1.4c8.4,1,15.4,5.1,22,10c8.6,6.3,16.4,13.5,23.5,21.5
			c0.4,0.5,0.7,1,1.1,1.5L240,103.8z"/>
		<path class="st4" d="M284.9,99.9c0.3-1.7,0.7-3.3,0.8-5c0.9-9.2-2.6-16.9-8.8-23.2c-11.8-12.3-25.6-22.5-40.7-30.5
			c-6.1-3.2-12.8-5.2-19.6-5.8c-0.6-0.1-1.1-0.3-1.6-0.5l0.1-0.9c2.1,0.3,4.2,0.4,6.3,0.8c11,2.2,20.8,7.3,29.7,13.9
			c7.7,5.7,15.3,11.6,22.5,17.9c6.8,5.9,11.9,13.1,13.3,22.4C287.5,93,287,97.8,284.9,99.9z"/>
		<path d="M124.7,269.5c-0.5-0.4-0.9-1.1-1.4-1.2c-2.7-0.7-2.6-2.5-1.9-4.6c0.3-0.8,0.4-1.5,0.5-2.3c0.3-1.4-0.6-2.8-2-3.1
			c-4.9-1.5-6.7-3.4-6.9-8.6c0-3.1,0.3-6.2,0.9-9.2c0.5-3,1.4-5.9,2.1-8.7c2.4,1.5,4.8,3,7.3,4.6c0,0.2,0,0.5,0,0.8
			c-1.4-0.6-2.7-1-4-1.7c-0.8-0.5-1.6-1.1-2.4-1.7c-1.4,5.9-4.1,11.3-2.5,17.5c0.8,3.1,2,5.5,5.6,5.9c2.2,0.2,3.1,1.8,3,3.9
			c0,1-0.2,1.9-0.5,2.8c-0.9,2.1-0.1,3.1,2,3.5"/>
		<path class="st4" d="M358.9,160.6c-0.2-0.9-0.4-1.8-0.7-2.7c4.4,4,8.7,8.4,8.9,14.6c0.4,9.6,0.1,19.2,0.1,28.8
			c-0.1,0.5-0.2,1-0.3,1.5l-0.6,0.1c-0.2-0.8-0.3-1.6-0.4-2.5c0-9.1,0-18.2,0-27.3C365.9,167.7,362.6,164,358.9,160.6z"/>
		<path class="st4" d="M128.5,125.5c-0.2-1.7-0.5-3.3-0.6-5c-0.4-6.8-0.9-13.7-1-20.6c0-5.3,1.4-10.5,4.1-15.1
			c0.4-0.7,0.9-1.3,1.5-1.8l0.5,0.3c-0.1,0.5-0.3,1-0.5,1.4c-3.1,4.9-4.5,10.7-4.3,16.5c0.3,7.4,0.8,14.8,1.2,22.2
			c0,0.7-0.1,1.4-0.2,2.1L128.5,125.5z"/>
		<path class="st4" d="M134.6,160.7c-3,4.8-6.1,9.5-9,14.4c-3.2,5.4-6.2,11-7,17.4c-0.1,0.4-0.4,0.7-1.2,1c0-0.7,0-1.4,0.1-2.1
			c1.4-7.7,5.3-14.3,9.4-20.8c1.9-3,3.8-5.9,5.8-8.8c0.5-0.6,1.1-1.1,1.7-1.5l0.6,0l0.1,0.1L134.6,160.7z"/>
		<path class="st4" d="M133.6,131.7c-3.7,4.5-7.7,8.9-11.2,13.7c-3.6,4.8-5.8,10.5-6.3,16.5l-0.8-0.1c0-1.4,0.1-2.8,0.2-4.2
			c1.4-6.7,5-12.4,9.3-17.6c2.1-2.6,4.5-4.9,6.8-7.4c0.5-0.5,1.1-0.9,1.7-1.3L133.6,131.7z"/>
		<path class="st4" d="M350.7,127.5c-0.3-0.5-0.5-1-0.8-1.4c6.3,1.3,11.3,4.4,14.2,10.2c1.6,3.2,2.7,6.7,4,10l-0.9,0.4
			c-0.3-0.7-0.7-1.4-1-2.1c-1.1-2.7-2-5.5-3.4-8.1C360.3,131.5,356.1,128.7,350.7,127.5z"/>
		<path class="st4" d="M156.2,97.4c-0.6,0.6-1.1,1.7-1.8,1.8c-2.9,0.7-5.8,1.1-8.8,1.7c-1.5-0.1-3-0.1-4.5-0.2
			c-3.3-0.2-4.9-2.1-4.6-5.3c0.1-1.3,0.3-2.6,0.4-3.9l0.7-0.1c0.1,1,0.2,2.1,0.2,3.1c-0.1,4.6,0.3,4.9,4.8,4.9
			C147.3,99.4,151.9,99.4,156.2,97.4z"/>
		<path d="M366.8,238c3.5,1.1,5.6,4.3,4,7.3c-2.3,4.2-4.9,8.2-7.8,11.9c0.1-0.8,0.4-1.5,0.7-2.2c1.7-2.8,3.4-5.5,5.2-8.3
			c2-3.1,1.6-5.5-1.5-7.4C367.2,238.9,367,238.5,366.8,238z"/>
		<path class="st3" d="M262.2,323.5c-0.8,0.1-1.7,0.4-2.3,0.1c-2.6-1.3-5.2-2.8-8-4.3c-0.1,1.5-0.3,3-0.4,4.4l-0.7,0.2
			c-0.7-1.7-1.4-3.3-2.1-5c0.4,2.9-1.8,3.4-3.8,3.8c-2.5,0.6-5,0.9-7.5,1.3c-0.4,0.1-1,0.2-1.2-0.1c-2.1-2.2-4.4-0.5-6.6-0.5
			c-2.2,0-4.4-0.4-6.6-0.6c-0.4,0-1-0.1-1.1-0.4c-1.5-2.5-4.4-1-6-2c-3.1-1.9-6.8-0.2-9.7-2.4c-0.3-0.2-0.9-0.1-1.4-0.1
			c-1.9,0.2-3.8,1.4-5.7,0c-0.3-0.2-1.3,0.4-1.9,0.8c-1.3,0.7-2.6,1.6-3.9,2.3c-0.8,0.3-1.6,0.4-2.5,0.5c1.7-5,4.2-8.6,9-10
			c2.9-1,5.7-2.4,8.2-4.2c2-1.3,4.8-1.4,7.2-2l0,0l-0.3,1.4c3.1-0.8,6.2-1.6,9.9-2.6c-0.2,1.6-0.4,2.7-0.6,4
			c2.6-0.1,5.3-0.5,7.4,1.7c2.7-1.5,5.8-2,8.8-1.2c2.9,0.6,5.8,0.7,8.8,1c2.8,0.4,5.6-0.3,8-1.9c0.8-0.5,2.1-0.3,3.2-0.3
			c0.4,0.1,0.7,0.1,1.1,0.2c1-2.4,4,0.7,5-1.8c0.1-0.4,0.7-0.6,1.1-1l2.4,1.9l1.3-1.9c2.2,2.1,4.6,1.9,7.2,1.5
			c5.7-0.8,10.7,2,16,3.5c3.6,1,7,2.6,9.3,5.6c1.6,2,2.4,4.7,3.5,7l-0.8,0.7c-2.4-1.1-4.9-2.2-7.4-3.4c-0.2,2.9-2.1,1.8-3.8,1.4
			c-0.8-0.1-1.7-0.1-2.5,0l-0.1,0.8c-0.7-0.4-1.3-0.8-2.2-1.3c-0.2,0.9-0.3,1.6-0.6,2.9L282,319c0.1,0.9,0.1,1.8,0.2,2.3
			c-3.4-0.3-6.7-0.5-9.8-0.8v3c-0.9-0.1-1.8-0.2-2.7-0.4"/>
		<path class="st6" d="M292,329.8c-1.6,1.8-3.3,3.4-5,5c-9.3,7.9-20.7,12.9-32.9,14.5c-15.2,2-28.8-1.8-40.5-11.8
			c-2.1-1.7-4.2-3.4-6.3-5.1c-0.5-0.5-0.9-1.1-1.3-1.7c4.9-0.4,9.8,0.4,14.3,2.3c12.4,5.3,25.4,7.5,38.6,4.7
			c9.4-1.9,18.5-5,27.7-7.4C288.4,330.1,290.2,329.9,292,329.8z"/>
		<path class="st3" d="M228.7,219.6c-6.2-3.9-13.4-5.8-20.7-5.6c-1.3,0.1-2.6,0-3.8-0.4c-7.3-2.7-14.5-1.3-21.6,0.8
			c-6.4,1.8-12.9,3.8-19.3,5.6c-5,1.3-8.3,1.7-11.5-0.3c3-1.3,5.7-2.5,8.5-3.7l-0.4-0.4c0.4-0.6,0.6-1.5,1.1-1.7
			c0.9-0.3,1.9-0.4,2.8-0.4c1.5-0.2,3-0.1,3.3-2.2c0.1-0.5,0.8-1,1.4-1.2c5-1.2,9.2-4,13.8-6.2c3.7-1.9,7.8-2,12.1-2.1
			c10.8-0.2,20.4,3.4,29.8,7.8C227.9,211.4,229.5,215.1,228.7,219.6z"/>
		<path class="st3" d="M271.8,210.3c2.8-2.9,6.4-3.8,10.1-4.4c4.9-0.8,9.9-1.6,15.2-2.4c-0.3,1.3-0.4,1.9-0.5,2.4
			c2.9,0,5.7-0.1,8.4,0c0.9,0.2,1.7,0.5,2.4,1c1.1,0.5,2.3,1,3.5,1.3c2.7,0.5,5.5,0.8,8.3,1.2c6.1,0.5,11.6,4.2,14.3,9.7
			c-4.8-0.6-9.8-1.3-14.7-1.9c-5.9-0.6-11.9-1.1-17.8-1.7c-11.4-1.1-22.1,2.1-32.9,4.8c-1.4,0.4-3,1-2.8-1.5
			c0.7-1.3,1.5-2.5,2.3-3.7C268.9,213.4,270.4,211.9,271.8,210.3z"/>
		<path class="st6" d="M208.8,329.7c1.3-0.8,9.1-1.5,10.8-1.7c0.6-0.1,1.2-0.1,1.8-0.2c8.7-1,17.3-1.4,26,0.6
			c2.9,0.7,6.1-0.6,9.2-0.7c5.3-0.2,10.7-0.4,16-0.2c4,0.1,7.9,0.8,11.9,1.3c0.5,0.1,3.4,0.4,3.8,0.5c-5.1,1.7-12.6,3.4-17.7,4.9
			c-12.4,3.7-25,4.7-37.8,1.8C226.4,334.4,214.3,333.4,208.8,329.7z"/>
		<path class="st3" d="M225,361.7c0.4-3,0.8-6.1,1.3-9.7c0.7,0.6,1.4,1.2,2.2,1.8c0.6,0.5,1.3,0.8,2.1,0.9
			c5.1,0.4,10.2,0.9,15.4,0.9c3.9-0.1,7.8-0.4,11.7-1c1.3-0.3,2.6-0.7,3.9-1.2l0.4,0.7c0.4-0.6,0.7-1.2,1.1-1.8l2.1,1.9l5.3-5
			c3.9,4.6,0.3,8.5-0.4,12.9c-0.7-0.4-1.1-0.7-1.8-1.1c-0.4,0.7-0.8,1.5-1.4,2.4l-1.3-2.8c-1.5,2-2.7,3.7-4.3,5.9
			c-0.5-1.6-0.9-2.7-1.3-4.1c-1.1,0.9-2.2,1.7-3.3,2.7c-0.4-0.6-0.7-1.1-1.2-1.8l-4.1,6.4l-4.2-3.9c-0.8,1.1-1.6,2.2-2.6,3.7
			c-0.3-1.4-0.4-2.4-0.6-3.4l-0.5-0.1c-0.6,1.4-1.2,2.8-2,4.7c-1.1-2.1-2-3.9-3-6c-0.7,0.9-1.2,1.6-1.9,2.4
			c-0.6-0.5-1.1-0.9-1.7-1.5c-0.3,0.4-0.7,0.9-1,1.3l-5-6.8c-1.1,0.7-2,1.3-2.8,1.8L225,361.7z"/>
		<path d="M234.6,297.8c-0.5-1.1-1-2.2-1.6-3.3l0.6-0.4c0.4,0.5,0.9,1.1,1.2,1.6c1.1,2.1,2.3,4.2,3.7,6.1c4.9,5.7,13.5,6.4,19.3,1.5
			c0.7-0.6,1.3-1.2,1.9-1.9c1.4-1.8,3.1-3.3,4.6-5l0.8,0.6c-0.5,0.8-1,1.6-1.6,2.5c7,2.1,13.8-1.7,15.4-8.6c0.6-2.4,0.1-4.9-1.4-6.8
			c-1.6-2.3-3.2-4.6-4.8-6.9c-0.3-0.6-0.6-1.3-0.8-2l0.5-0.3c0.3,0.2,0.5,0.5,0.8,0.7c1.4,2.3,3,4.5,4.6,6.7
			c6.3,7.3-0.6,17-6.8,18.4c-0.9,0.3-1.9,0.4-2.8,0.4c-4.2-0.6-7.5,1.4-10.8,3.7c-6.8,4.7-14.6,3.7-19.9-2.6
			c-1.9-2.4-4.9-3.7-7.9-3.6c-8,0-12.1-4.2-12.5-12.3c0-0.3,0-1.3,0-2.1c-0.3,0.3-1.9,1.7-2.6,2.3c-5.8,5.2-17.4,11-19.4,12.1
			c-5,2.2-10.7,5.1-13.2,10.1l-0.4-0.3c1-1.6,2.1-3,3.3-4.4c1.4-1.2,2.9-2.2,4.6-3.1c6.5-3.8,13.2-7.1,19.6-11
			c3.4-2.1,6.2-5,9.6-7.9c-0.1,1.2-0.1,2.2-0.2,3.1c-0.7,8.3,5,12.8,11.2,12.2c1.6,0,3.2,0.2,4.7,0.5c0.1,0,0.2,0.1,0.3,0.1
			L234.6,297.8z"/>
		<path d="M282.3,230.8c-3.2,1.6-6.5,3.3-9.7,4.9l-0.4-0.7c0.5-0.4,1-0.7,1.5-1c4.5-2.4,9.2-4.6,13.5-7.2c8.4-5.1,16.7-4.4,25.2-0.7
			c0.9,0.4,1.7,0.8,2.6,1.3c5.1,2.7,10.1,5.9,16.4,4.8l0,0.7c-0.8,0.3-1.6,0.5-2.4,0.5c-3.2-0.7-6.3-1.5-9.4-2.4
			c-1.3-0.4-2.5-0.9-3.7-1.5c-2.2-1.3-4.5-2.5-6.9-3.9c-0.2,2.5-0.3,4.4-0.4,6.4c1.4-0.3,2.6-0.6,3.7-0.9c1.2-0.3,2.5-0.6,3.7-0.9
			c-0.4,0.4-0.7,1-1.2,1.2c-8.5,3-17.3,3.2-26.1,3.1c-0.2,0-0.4-0.2-0.6-0.4c1.1-0.3,2.1-0.6,3.3-0.9c-0.3-0.5-0.8-1.1-1.4-2
			l3.4,0.2c0.8,0.5,1.6,1.3,2.4,1.3c2.5,0,5.1-0.3,7.6-0.4c3-0.2,3.4-0.8,3.5-3.8c0.1-2.2-1.3-2.7-3-3c-1.8-0.3-2.4,0.7-2.5,2.4
			c0,0.5-0.1,1-0.4,1.4c-0.4,0.5-0.9,1.3-1.5,1.3c-0.5,0-1.2-0.6-1.7-1.1c-0.3-0.5-0.5-1-0.7-1.5c-0.5-1.3-1-2.6-2.8-2.3
			c-1.7,0.4-2.7,1.3-2.4,3.2c-0.7,0.2-1.4,0.3-2.2,0.5l-0.4-2.5C286.9,228.3,284.6,229.6,282.3,230.8z"/>
		<path d="M213.7,330.1c1.4,0.3,12.7,4.3,19.1,5.8c12.7,3,25.3,1.9,37.8-1.8c5.1-1.5,10.1-2.9,15.2-4.6c0,0,0,0,0,0
			c1.4-0.1,1.5-0.3,2.6-0.3c1-0.1,1.5-0.1,2.6-0.2c0.4-0.1,0.9,0,1.3,0c0.2,0.1,0.3,0.3,0.2,0.5c-0.1,0.1-0.2,0.2-0.3,0.2
			c-0.3,0-0.1,0-0.1,0c-1.8,0.1-3.6,0.3-5.4,0.6c-9.3,2.4-18.4,5.5-27.7,7.4c-13.3,2.7-26.2,0.6-38.6-4.7c-4.5-1.9-9.4-2.7-14.3-2.3
			c-0.6-0.2-0.3-0.9,0-1"/>
		<path d="M210.3,232.3c-0.5,0.4-0.9,0.9-1.4,1.1c-7,2.1-14,3.1-21.2,1.3c-0.6-0.2-1.3-0.6-1.8-0.9c0.9-0.1,1.7-0.1,2.7-0.2
			l-0.2-1.8l2.3,0.7c0.6,2,2.4,1.7,3.8,1.7c2.2,0.1,4.5-0.4,6.7-0.3c2.4,0.2,3.2-1,3.5-3.1c0.3-2.1-0.7-3.1-2.6-3.6
			c-1.9-0.4-2.5,0.7-3,2.2c-0.5,0.9-1.1,1.7-1.8,2.5c-0.8-0.7-1.5-1.5-2.1-2.4c-0.6-1.4-1-2.8-2.8-2.6c-1.4,0-2.6,1.1-2.6,2.5
			c0,0.2,0,0.4,0.1,0.6c-2.2,0.7-1.7-1.3-2.1-2.7c-2.7,1.6-5.1,3.1-7.6,4.6c-1,0.4-1.9,0.8-3,1.2c0-0.5-0.1-0.7,0-0.8
			c4.2-2.7,8.2-5.9,13.4-6.6c3.3-0.5,6.7-0.6,10-0.5c3.5,0.3,6.9,0.9,10.3,1.9c3.7,1.2,7.4,2.7,10.9,4.3c1.4,0.6,2.7,1.4,4.1,2.1
			l-0.3,0.7c-3.3-1.3-6.6-2.5-10-3.8c-2.8-1.2-5.6-2.4-8.3-3.5c-0.5,2.4-1,4.3-1.4,6.2C207.2,232.7,208.8,232.5,210.3,232.3z"/>
		<path d="M161.7,234.4c5.1-3.2,10-6.6,15.3-9.5c1.9-1,4.4-0.9,6.7-1.2c4.9-0.7,10-0.8,14.7-2.1c6.9-1.9,12.8-0.9,18.8,2.7
			c2,1.2,4.1,2.3,6.1,3.5l-0.3,0.5c-0.6-0.3-1.3-0.7-1.9-1c-2.7-1.5-5.4-3.2-8.2-4.5c-4.2-2-8.5-1.9-13.1-0.9
			c-5.6,1.1-11.3,2-17,2.5c-3,0.2-6,1.1-8.5,2.7c-3.2,2.2-6.5,4.4-9.8,6.5c-0.8,0.5-1.6,0.8-2.5,1.2L161.7,234.4z"/>
		<path d="M283.6,222.6c1.8-1.1,3.9-1.7,6-1.8c12-0.3,23.3,1.8,34,7.5c0.8,0.4,1.6,0.7,2.3,1.2l-0.2,0.4c-0.6-0.2-1.2-0.5-1.8-0.8
			c-11.1-5.9-23-8-35.4-7.6c-1.6,0.1-3.1,0.7-4.4,1.6c-3.9,2.5-7.6,5.2-11.5,7.8c-0.7,0.5-1.3,0.4-1.1-0.3"/>
		<path d="M263.5,222c0.5,0,0.5,1.2,0.5,1.4c-0.2,10.6,0.9,21.1,3.2,31.4c0.1,0.6,0,1.2-0.3,1.7c-0.3-0.4-0.6-0.8-0.7-1.2
			c-2.5-10.6-3.6-21.5-3.3-32.4C262.9,222.5,263.1,221.9,263.5,222"/>
		<path d="M218.8,238.7c-1,0.8-2,1.4-3.1,2c-3.6,1.8-7.5,3.1-11.4,3.7c-7.2,0.7-15.7-1.7-22.8-2.3c-1.8-0.4-3.6-0.5-5.4-0.8l0.1-0.5
			c2.1,0.3,4.3,0.5,6.4,0.8c5.7,0.8,11.3,2,17,2.5c3.3,0.2,6.6-0.2,9.7-1.2C212.3,242.1,215.2,240.4,218.8,238.7z"/>
		<path d="M288.7,289.3c5.2,6.5,12.9,9.2,19.6,13.4c4.3,2.7,8.2,5.9,10.2,10.8c0.4,1,0.7,2.1,0.9,3.2l-0.4,0.2
			c-0.2-0.4-0.4-0.8-0.5-1.3c-1.4-5.5-5.1-8.9-9.6-11.8c-3.8-2.4-8.2-4.7-11.5-6.8c-2.7-1.7-5.3-3.7-7.6-5.9c-0.5-0.5-0.9-1-1.4-1.5
			L288.7,289.3z"/>
		<path class="st7" d="M293.3,231.4l-3.4-0.2c0.6,0.9,1,1.5,1.4,2c-1.1,0.3-2.2,0.6-3.3,0.9c-3.9,0-4.7-0.5-5.7-3.3
			c2.3-1.3,4.5-2.5,7-3.9l0.4,2.5c0.8-0.2,1.5-0.4,2.2-0.5c1.1,0.3,2.2,0.5,3.3,0.8l-0.1,0.6C294.6,230.7,294,231.1,293.3,231.4z"/>
		<path d="M275.5,241c5.3,1.3,10.5,2.9,15.8,3.7c5.4,0.9,10.8,1,16,1.4c-3.1,1-25-1.5-31.9-4.7L275.5,241z"/>
		<path class="st7" d="M179.9,231.7c2.5-1.5,5-3,7.6-4.6c0.5,1.4-0.1,3.4,2.1,2.7c1.1,0.3,2.2,0.6,3.2,0.8l0,0.6
			c-0.8,0.3-1.5,0.7-2.3,1l-2.3-0.7l0.2,1.8c-1,0.1-1.8,0.1-2.7,0.2C183.9,233,181.9,232.4,179.9,231.7z"/>
		<path class="st7" d="M210.3,232.3c-1.6,0.2-3.2,0.5-4.7,0.7c0.4-1.9,0.9-3.9,1.4-6.2c2.8,1.2,5.5,2.4,8.3,3.5L210.3,232.3z"/>
		<path class="st7" d="M316,230.2c-1.2,0.3-2.5,0.6-3.7,0.9c-1.2,0.3-2.3,0.6-3.7,0.9c0.1-2.1,0.3-3.9,0.4-6.4
			c2.5,1.4,4.7,2.6,6.9,3.9C315.9,229.7,315.9,230,316,230.2z"/>
		<path d="M223.9,247.8c5.9-3.6,8.2-7.9,3.1-14c2.5,0.7,4.1,3.6,4,6.6C230.6,244.2,227.7,247.2,223.9,247.8z"/>
		<path d="M260.5,449.9c-3.4,6-19.2,8.6-25.4,3.5C244.1,456.5,252.6,455.4,260.5,449.9z"/>
		<path d="M98.5,207.8c0.6,3.2,1.1,6.4,1.6,9.6c0.6,3.4,1.2,6.7,1.6,10.1c0,0.9-0.3,1.7-0.9,2.3c0.9-8.3-4.7-15.8-2.8-24.4
			c2.5,1.2,4.6,3.3,5.8,5.8c3,5.7,2.9,11.7,2,17.8c-0.8,4.9-1.7,9.8-2.2,14.7c-0.7,6.1,1.4,12.1,5.8,16.4c2.3,2.3,4.1,4.9,3.8,8.5
			c-0.2,0.9-0.4,1.7-0.7,2.5l-0.7-0.2c0.2-0.5,0.3-1.1,0.2-1.6c-0.6-2.2-0.6-5-2-6.4c-9-8.5-8.6-18.8-6.2-29.6
			c1.2-5.6,2.1-11.2,0.8-16.9C103.9,212.5,101.9,209.3,98.5,207.8z"/>
		<path class="st8" d="M293.3,231.4c0.6-0.4,1.3-0.7,1.9-1.1l0.1-0.6c-1.1-0.3-2.2-0.5-3.3-0.8c-0.2-1.9,0.7-2.8,2.4-3.2
			c1.8-0.4,2.3,1,2.8,2.3c0.1,0.5,0.4,1.1,0.7,1.5c0.4,0.5,1.1,1.1,1.7,1.1c0.5-0.1,1.1-0.8,1.5-1.3c0.3-0.4,0.4-0.9,0.4-1.4
			c0.1-1.6,0.7-2.6,2.5-2.4c1.7,0.3,3,0.8,3,3c-0.1,3-0.6,3.6-3.5,3.8c-2.5,0.1-5.1,0.5-7.6,0.4
			C294.9,232.7,294.1,231.9,293.3,231.4z"/>
		<path class="st8" d="M190.6,232.3c0.8-0.3,1.5-0.7,2.3-1l0-0.6c-1.1-0.3-2.2-0.6-3.2-0.8c-0.3-1.4,0.6-2.7,2-3
			c0.2,0,0.4-0.1,0.6-0.1c1.9-0.2,2.3,1.2,2.8,2.6c0.6,0.9,1.3,1.7,2.1,2.4c0.7-0.7,1.3-1.5,1.8-2.5c0.5-1.6,1.1-2.7,3-2.2
			c1.9,0.4,2.9,1.4,2.6,3.6c-0.3,2.1-1,3.3-3.5,3.1c-2.2-0.1-4.4,0.4-6.7,0.3C193,234,191.2,234.3,190.6,232.3z"/>
	</g>
</g>
</svg>
