<?xml version="1.0" encoding="UTF-8"?><svg id="a" xmlns="http://www.w3.org/2000/svg" viewBox="0 0 460.05 525.61"><defs><style>.f{stroke:#000;stroke-miterlimit:10;}.g,.h,.i,.j,.k,.l,.m,.n{stroke-width:0px;}.h{fill:#4c4c4c;}.i{fill:#4d4d4d;}.j{fill:#a2a2a2;}.k{fill:#c4c4c4;}.l{fill:#939393;}.m{fill:#a1a1a1;}.n{fill:#fff;}</style></defs><g id="b"><path class="n" d="m0,295.07c-.06-74.28,35.81-144.01,96.27-187.16,3.49,12.59,5.72,25.48,6.68,38.51.93,12.25,2.35,22.7-.79,39.91-3.19,17.46,48.03,217.54,101.6,209.3,46.28-7.13,71.59,21.4,133.12-65.82,2.33-3.3,9.41-10.18,11.15-18.24,12.19-56.43,6.45-210.22,14.43-204.59,61.22,43.06,97.64,113.24,97.58,188.09,0,127.04-102.99,230.03-230.03,230.03S0,422.11,0,295.07Z"/></g><g id="c"><path class="f" d="m89.73,394.13c38.73-7.2,60.58,32.78,187.62,32.78s69.18-37.62,90.81-28.97c5.72,2.29,52.1,12.87,58.71,16.21,0,0-3.91,7.33-14.1,20.64-77.18,100.93-221.57,120.18-322.49,42.99-15.47-11.83-29.38-25.58-41.39-40.92-7.66-9.77-13.12-17.28-15.97-23.07-3.2-6.51,52.32-17.79,56.81-19.67"/></g><g id="d"><path class="k" d="m356.14,211.69c0,34.36,3.72,68.65-6.75,92.79-12.73,29.36-19.43,59.95-40.47,59.95s-69.26,28.83-69.26,28.83c0,0-78.4,5.94-78.4-29.85,0-38.08-64.99-255.5-64.99-255.5,0,0,113.93-15.89,133.1-15.89,16.85,0,133.1,14.96,133.1,14.96,0,0-6.33,62.02-6.33,104.71Z"/></g><g id="e"><path class="l" d="m363.32,203.47c-.17,3.9-.29,7.59-.51,11.28-.27,4.43-.64,8.86-.97,13.29.18.43.37.87.55,1.3-.48,1.85-.95,3.7-1.55,6.02-.58-1.73-1.03-3.03-1.66-4.91-1.8,11.09-4.45,21.34-3.21,32.11.65,5.67.16,11.46.18,17.2,0,.39-.02.78-.03,1.16-.83,11.76-1.51,23.52-2.54,35.26-.82,9.26-4.45,17.51-9.78,25.13-5.57,7.97-10.74,16.2-16.21,24.24-2.87,4.21-6.02,8.23-9.04,12.34-.14.14-.27.27-.41.41l.04-.04c-.29.32-.58.64-.88.97-7.66,6.26-15.34,12.48-22.96,18.77-10.29,8.49-21,15.88-34.45,18.99-9.06,2.1-17.9,3.9-27.16,2.44-16.81-2.66-31.77-10.14-46.12-18.7-5.15-3.07-9.22-8.02-13.58-12.32-5.68-5.61-11.21-11.38-16.68-17.2-1.74-2.04-3.38-4.17-4.9-6.39-.12-.63-.7-.72-.82-1.35-.19-.15.08-.38-.11-.52l-.21-.4c-1.31-5.69-4.13-10.92-8.17-15.14-10.88-11.55-16.38-25.5-17.92-41.16-.58-5.94-1.29-11.88-1.96-17.81-.11-.55-.26-1.08-.46-1.6,0-.42,0-.84,0-1.26-.4-4.66-.83-9.32-1.21-13.98-.33-4.02-.62-8.04-.92-12.06,0,0-1.03-1.45-.67-1.55-.43-.61.45-.58.45-.58-.16-3.58-.39-7.17-.45-10.75-.09-5.35-.02-10.71-.09-16.06-.08-1.11-.24-2.21-.46-3.3l.03-.73c-.72-4.46-1.22-8.97-2.22-13.36-.9-3.93-2.35-7.73-3.56-11.58.19-.6.71-1.38.51-1.79-2.65-5.33-5.85-10.25-11.04-13.52.3-2.6.7-5.2.89-7.81,1.26-17.77.99-35.41-3.96-52.74-2.2-7.12-3.1-14.57-2.67-22.01.67-9.46,5.19-18.23,12.51-24.26.28-.15.58-.26.89-.3-.85,2.14-1.57,4.33-2.14,6.56-.2,1.82-.22,3.65-.07,5.47.65-.25.8-.54.79-.82-.16-6.89,2.88-12.41,7.84-16.8,3.81-3.37,8.09-6.19,12.17-9.26.56-.42,1.12-.83,1.68-1.25l-.51-.68c-6.06,3.35-11.61,7.55-16.47,12.48-4.31-.49-7.44-2.28-9.12-5.47,2.59-.66,5.09-1.37,7.61-1.89,1.62-.34,2.13-1.08,2.14-2.77.01-6.75,3.1-13.13,8.38-17.33,4.18-3.49,8.85-6.4,12.95-9.31-1.17-.44-2.87-1.09-5.12-1.94,9.06-8.31,18.95-13.96,29.62-18.59l-4.19-2.83.11-.84c2.56-.63,5.1-1.36,7.69-1.86,16.2-3.17,32.39-6.37,48.62-9.4,5.87-1.09,11.81-1.84,17.75-2.55,5.97-.71,11.11,1.86,16.04,4.74,6.53,3.81,13.7,5.03,21.06,5.76,8.94.88,18.11.76,26.46,4.73,2.86,1.4,5.51,3.17,7.9,5.27,4.22,3.66,8.01,7.81,12.26,11.41,1.99,1.48,4.22,2.59,6.6,3.3,3.11,1.11,5.34,2.95,6.1,6.18,1.35,5.74,4.65,10.14,8.73,14.29,4.6,4.51,7.72,10.31,8.95,16.63.16,1.87.34,3.74.48,5.61.64,8.18-1.73,15.95-3.15,23.86-.08.84-.09,1.69-.02,2.53l.67.03c1.59-8.23,3.88-16.34,4.04-24.83,3.61,4.94,7.59,9.64,10.74,14.86,5.36,8.93,8.89,18.84,10.39,29.15,1.42,9.44,3.72,18.8,3.24,28.46-.53,10.65-1.06,21.29-1.59,31.94-.09.47-.23.92-.43,1.36,0,0-.17-.04-.17-.04l-1.31-5.63c-.12.02,1.61,5.65,1.48,5.67.41,2.12.54-1.16-.78.68-.54.78-2.14,1.42-2.68,2.19m-235-37.56l.46-.4c3.17.28,4.08,1.4,3.48,4.53-.74,3.84-1.39,7.71-2.41,11.48-3.22,11.87-6.6,23.7-9.89,35.55-.41,1.48-.61,3.02-1.03,5.17l3.99-2.79c-.15,2.38-.37,4.44-.39,6.49-.12,13.18-.45,26.38,1.43,39.47,1.61,11.2,3.55,22.35,5.4,33.52.23.84.6,1.63,1.09,2.35.77,1.12,1.45,2.3,2.04,3.53,1.32,3.59,2.39,7.27,3.73,10.85.45.97,1.17,1.8,2.07,2.38,1.61.93,2.71,2.54,2.99,4.37.18.88.7,1.64,1.45,2.13,2.26,1.31,3.7,3.66,3.83,6.27.26.93.65,1.82,1.15,2.64.57,1.34,1.7,2.78,1.54,4.04-.61,4.76,1.48,8.47,4,12.24l1.26-3.77c1.29,3.09,2.37,5.7,3.57,8.56.87-1.31,1.54-2.32,2.44-3.66,2.99,3.37,5.7,6.42,8.5,9.58.95-1.59,1.72-2.88,2.62-4.37l2.79,5.88c1.17-2.39,2.1-4.29,3.03-6.2l.73.2v6.11c.8-.61,1.23-.94,2.01-1.54-1.53,5.51.59,10.03,1.8,14.94l1.73-1.55c-1.19,4.9,2,7.45,4.12,10.47.21.21.46.37.73.48.69.35,1.36.76,1.99,1.22.64.63,1.23,1.3,1.78,2.01l.66-2.84c4.21,2.91,8.22,5.68,12.48,8.62,2.3-.79,3.37-.44,5.21,1.98,1.35,1.77,3.37,3.45,5.26,2.05,2.88-2.13,5.56-1.19,8.37-.67.99.31,1.94.73,2.83,1.25,2.46-1.56,5.46-1.34,7.51,3.18,3.21-3.18,3.78-3.19,6.99-.18.79.74,1.58,1.49,2.05,1.93,1.07-1.46,1.76-3.38,3-3.84,1.3-.48,3.13.44,4.47.7,1-1.2,1.95-3.39,3.33-3.7,1.56-.35,3.5.99,5.42,1.64.19-.77.33-1.37.48-1.97.65-2.61.94-2.82,3.37-1.5,1.76.96,3.35,2.22,5.05,3.37.09-1.62.18-3.26.28-5.14,2.73.43,5.2.81,7.98,1.25-.32-2.42-.6-4.51-.9-6.8,1.56-.13,2.96-.24,4.46-.37-.27-1.9-.51-3.65-.75-5.41l.44-.12c.35.65.7,1.3,1.21,2.25.25-.84.4-1.34.65-2.17.96.91,1.78,1.69,2.64,2.5.27-.9.57-1.9.89-2.99.84.51,1.44.87,2.63,1.59.98-2.61,1.87-4.99,2.8-7.48.43.25.91.54,2.05,1.21.42-2.51.85-4.57,1.1-6.66.26-2.21.22-4.47.54-6.67.3-.95.75-1.85,1.33-2.66.72.41,1.43.81,2.3,1.3.58-2.21,1.14-4.38,1.8-6.91l.51,2.04.58.04c.67-3.07,1.34-6.13,1.9-8.7.39,2.19.87,4.87,1.43,7.99.84-1.05,1.3-1.62,1.93-2.41.26,1.43-.23,3.26,1.99,2.25.11,1.55.21,2.89.34,4.68.78-1.31,1.26-2.11,2.04-3.42.12,1.57.18,2.48.3,4.04,1.01-1.95,1.72-3.35,2.56-4.96.17,1.05.29,1.76.52,3.17,1.51-3.72,2.75-6.77,4.05-9.96.33.46.5.69.41.57.98-1.65,2.03-3.41,3.22-5.39.73.8,1.1,1.19,1.68,1.82.36-1.7.62-3.02.94-4.33.69-2.84,2.64-4.47,4.53-4.11,1.6-3.55,3.18-7.04,4.8-10.64l2.48,1.63c1.91-3.19,3.74-6.25,5.56-9.3,2.47,1.5,3.88.93,4.39-2.01.85-4.95,1.6-9.92,2.11-14.91.55-5.31,1.01-10.65,1.07-15.99.09-7.88-.03-15.77-.38-23.66-.25-5.65-1.3-11.26-1.53-16.9-.28-6.87-.4-13.77-.01-20.63.75-13.37,1.89-26.72,2.89-40.08.1-.54.26-1.08.48-1.59.62-1.5,1.06-3.06,1.32-4.66.23-4.54.19-9.1.25-13.65,3.73,3.39,6.97,7.09,7.01,12.49.07,9.11.01,18.22.04,27.34.06.83.19,1.65.38,2.45l.61-.06c.16-.49.27-1,.32-1.52.02-9.59.3-19.2-.1-28.77-.26-6.27-4.54-10.62-8.94-14.65-1.42-6.42-2.75-12.86-4.28-19.26-.9-3.76-2.11-7.45-3.18-11.17,5.31,1.25,9.52,4.08,12.06,8.95,1.35,2.6,2.27,5.43,3.39,8.15.3.72.65,1.42.97,2.13l.95-.4c-1.32-3.35-2.43-6.8-4.01-10.02-2.87-5.85-7.9-8.95-14.16-10.24-7.46-22.99-24.86-37.36-43.87-50.92-.18,1.77-.31,3.03-.46,4.5-1.01-.65-1.69-1.09-2.46-1.59-.27,2.8-.28,2.79-2.75,3.64-2.42.84-4.8,1.78-7.24,2.53-1.4.43-1.51,1.12-1.35,2.47.43,2.25.47,4.57.11,6.83-1.39,5.76-8.59,10.75-15.36,11.08-6.69.32-13.39.89-20.08.84-11.33-.08-22.68-.31-33.99-.99-5.57-.27-10.91-2.29-15.26-5.77-2.23-1.81-4.28-3.84-6.42-5.75-2.22-2.19-4.97-3.79-7.97-4.63.28,1.95.52,3.59.75,5.23l-.65.32c-2.52-4.2-6.21-7.57-10.62-9.69-4.48-2.29-9.57-3.12-14.54-2.36.52.59.83.93,1.14,1.28,2.54,2.85,2.13,4.28-1.47,5.25-2.98.8-5.96,1.62-8.28,2.26.28,1.84.91,3.5.67,5.03-.29,1.87-2.15,1.81-3.7,1.79-4.31,2.05-8.91,2.02-13.54,1.94-4.51-.08-4.84-.38-4.77-4.95.02-1.03-.15-2.05-.22-3.08l-.7.08c-.14,1.31-.31,2.62-.42,3.94-.28,3.28,1.29,5.1,4.61,5.34,1.5.11,3.01.16,4.51.25-1.38.88-2.72,1.83-4,2.85-.64.56-1.39,1.6-1.28,2.28.67,4.16-1.68,7.24-3.58,10.43-1.52,2.55-3.43,4.87-5.17,7.3l-.07.22.12-.16c2.59-.95,4.75-3.2,8.41-2.66-2.18,2.69-4.1,5.06-6.02,7.44l-.11.11.09-.13c1.18-.15,2.35-.29,4.13-.51-.9,1.39-1.45,2.21-1.98,3.06-1.37,2.18-2.73,4.37-4.09,6.57l-.08.2.12-.16c1.18-.52,2.36-1.05,3.85-1.71-1.42,5.1-2.74,9.86-4.19,15.05,1.64-.59,2.68-.96,3.85-1.38-.24,3.77-.46,7.16-.68,10.56l-.58.04c-.62.45-1.18.97-1.68,1.55-1.99,2.89-3.98,5.8-5.84,8.77-4.07,6.51-7.93,13.13-9.35,20.84-.09.7-.13,1.41-.12,2.11.76-.27,1.11-.62,1.17-1.01.86-6.41,3.8-11.99,7.02-17.43,2.88-4.87,5.98-9.61,8.98-14.4ZM250.56,24.4c1.52.49,3.08.86,4.55,1.48,5.38,2.25,10.88,4.29,16.05,6.95,8.94,4.61,17.9,9.26,26.43,14.58,6.66,4.15,12.01,9.84,13.83,17.98.06.25.3.46.46.69l.63-.18c-.2-1.33-.5-2.64-.9-3.92-3.01-7.86-8.88-13.31-15.89-17.35-9.06-5.22-18.36-10.06-27.78-14.62-10.5-5.12-21.57-8.98-32.98-11.49-.99-.22-2.01-.26-3.02-.39l-.31.79c23.39,6.49,41.52,20,54.56,40.45.07-.73-.09-1.47-.47-2.1-5.49-8.95-12.61-16.8-20.97-23.15-4.56-3.47-9.56-6.35-14.36-9.5l-.51-.31.69.1Zm-133.04,31.79l.35.8c.97-.36,1.96-.66,2.91-1.07,7.74-3.44,15.38-7.13,23.23-10.3,16.14-6.53,32.73-10.72,50.42-9.21,15.28,1.31,28.57,7,39.32,17.82,6.17,6.21,11.43,13.31,17.11,20,.45.53.93,1.04,1.39,1.56l.61-.49c-.39-.72-.83-1.41-1.3-2.08-4.07-5.13-7.97-10.42-12.32-15.3-6.31-7.28-14.1-13.13-22.84-17.16-10.24-4.59-21-6.19-32.2-5.8-11.6.48-23.03,2.85-33.86,7.03-8.37,3.14-16.56,6.78-24.79,10.29-2.73,1.16-5.34,2.6-8.01,3.91Zm117.47,37.56l.53-.56c-.37-.49-.71-1.01-1.11-1.47-7.01-7.99-14.88-15.2-23.46-21.48-6.61-4.92-13.59-9.07-21.97-10.04-5.31-.62-10.63-1.15-15.96-1.41-8.4-.41-16.73.17-23.96,5.03-5.02,3.38-9.69,7.29-14.49,10.99-.11.08-.01.42-.01,1.11.86-.52,1.53-.85,2.11-1.29,2.34-1.8,4.74-3.53,6.97-5.47,7.18-6.27,15.45-9.5,25.02-9.11,5.18.21,10.35.64,15.53.89,7.87.33,15.48,2.89,21.95,7.38,10.07,6.96,19.28,15.07,27.46,24.18.45.45.92.87,1.41,1.27h0Zm44.92-3.86c2.06-2.15,2.65-6.94,2.04-10.95-1.41-9.29-6.53-16.47-13.35-22.37-7.23-6.27-14.81-12.16-22.5-17.86-8.93-6.62-18.67-11.73-29.72-13.9-2.08-.41-4.2-.56-6.31-.83l-.14.9c.53.23,1.08.39,1.65.5,6.87.58,13.55,2.56,19.63,5.8,15.1,7.92,28.83,18.2,40.68,30.46,6.21,6.3,9.71,14.04,8.84,23.21-.16,1.69-.55,3.36-.83,5.04h0Zm-156.35,25.59h.69c.12-.7.18-1.4.19-2.1-.4-7.41-.9-14.81-1.22-22.22-.26-5.79,1.23-11.53,4.29-16.46.22-.45.39-.93.52-1.42l-.51-.32c-.54.57-1.03,1.18-1.47,1.83-2.7,4.57-4.13,9.78-4.11,15.09.09,6.85.62,13.7,1.02,20.55.1,1.68.41,3.35.62,5.03Zm5.09,6.18l-.19-.32c-.61.37-1.18.8-1.71,1.28-2.31,2.42-4.71,4.78-6.83,7.36-4.29,5.21-7.9,10.84-9.31,17.59-.19,1.38-.27,2.77-.25,4.16l.78.09c.5-5.98,2.69-11.7,6.33-16.48,3.49-4.73,7.44-9.13,11.18-13.67Z"/><path class="g" d="m368.16,397.94c.08.76.25,1.5.52,2.21,3.34,6.56,4.6,13.98,3.62,21.27-1.15,10.12-4.99,19.75-11.13,27.88-5.84,7.83-11.94,15.46-18.14,23-7.98,9.72-16.37,19.05-26.15,27.09-9.35,7.77-20.05,13.77-31.56,17.69-8.6,2.99-17.54,4.91-26.6,5.73-8.13.68-20.45,3.18-28.69,2.28,0,0-13.09-.12-21.38-.98-7.16-.74-14.48-1.75-21.56-3.02-9.18-1.65-45.63-13.67-45.63-13.67l-25.71-11.96-21.01-14.35c-8.1-10.76-10.09-25.78-10.79-39.13-.26-4.83-.25-9.68.03-14.51.26-4.75.8-9.48,1.64-14.17,1.16-6.43,2.73-12.79,4.13-19.19,16.11-5.29,32.22-10.59,48.32-15.89,3.59-1.19,7.16-2.47,10.65-3.9.82-.45,1.39-1.26,1.53-2.18.17-3.19.07-6.4.08-9.6l.16.28c.21.31.4.62.56.96.18.33.32.68.41,1.04-.08,13.19-.1,26.39-.28,39.58-.07,5.56-1.55,10.72-5.51,14.94-.15-.47-.1-.97.14-1.4,3.17-4.16,4.32-8.97,4.39-14.07.11-7.84.09-15.68.11-23.51,0-.82-.12-1.63-.21-2.74-8.63,3.52-17.26,6.03-24.51,11.55-5.09,3.87-10.2,7.74-15.41,11.44-4.97,3.53-7.54,8.31-6.96,14.28.48,5.85,1.48,11.65,2.99,17.32,4.73,17.12,14.56,32.4,28.18,43.81,7.9,6.6,16.71,12.03,26.16,16.1,17.37,7.6,35.76,10.93,54.53,12.29,7.22.45,14.47.48,21.7.09,7.54-.33,15.1-.89,22.57-1.96,20.01-2.86,37.01-11.88,51.47-25.91,9.78-9.69,18.51-20.39,26.06-31.91,7.2-10.72,13.23-21.91,12.04-35.53-.49-5.59-2.2-10.76-5.96-14.93-2.63-2.91-5.81-5.26-9.36-6.92-1.63-.77-3.31-1.41-5.04-1.91-3.48-1.03-7.04-1.78-10.93-2.74-.47,9.35-1.11,17.99-1.29,26.64-.19,9.22,1.32,18.16,6,26.32.29.63.53,1.27.72,1.94-.67-.35-.94-.4-1.05-.57-.44-.66-.87-1.34-1.24-2.05-5.6-10.45-5.85-21.81-5.37-33.2.31-7.53,1.26-15.04,1.93-22.56.29-.32.58-.64.88-.97v3.46c1.13.58,3.53-.34,11.69,2.3,16.1,5.21,42.7,15.29,42.7,15.29"/><path class="g" d="m365.39,205.97c.4-.66.81-1.33,1.21-1.99,1.18-1.99,2.53-3.78,5.06-4.37v6.7h-.55c-.09-1.63-.18-3.25-.29-5.14-2.31,1.32-3.87,3.65-4.2,6.29-1.16,6.36,2.01,11.83,3.59,17.63.44-2.73.79-5.42,1-8.12.59-7.79,1.25-15.58,1.59-23.38,0-1.9-.55-3.75-1.6-5.34-1.51-2.3-4.29-1.91-5.43.44l-1.22-.44c.54-.78,1.07-1.55,1.61-2.33.56-.2,1.12-.39,1.68-.59.84-.29.18.04.17.04,4.59,1.37,6.16,3.27,5.99,8.66-.22,6.78-.77,13.56-1.41,20.32-1.27,13.37-2.69,26.72-4.05,40.07-.47,4.61-.81,9.24-1.51,13.82-.98,6.42-4.57,10.77-10.91,12.66,0-.39.02-.78.03-1.16,5.39-1.84,8.82-5.51,9.61-11.16.96-6.96,1.58-13.96,2.33-20.94.32-3,.6-6.01.94-9.42-2.48,4-4.75,7.56-6.91,11.18-1.9,3.19-1.69,6.19.93,8.99.87.93,1.56,2.02,2.03,3.21.18.95.2,1.93.06,2.89-.97-2.03-2.1-3.98-3.37-5.83-2.28-2.84-2.65-5.79-1.04-8.91,1.29-2.39,2.71-4.7,4.25-6.93,4.57-6.84,5.81-14.02,2.69-21.84-2.05-4.72-2.83-9.89-2.27-15Z"/><path class="g" d="m102.16,186.33c5.19,3.27,8.39,8.19,11.04,13.52.2.41-.32,1.18-.51,1.79-.78-1.39-1.54-2.78-2.33-4.16-2.19-3.83-4.49-7.6-8.48-9.86-5.08-2.88-9.85-.98-11.42,4.64-.59,1.91-.83,3.9-.72,5.9.51,5.55,1.24,11.1,2.05,16.61,1.5,10.09,3.2,20.15,4.66,30.24.66,4.52.92,9.13,3.71,12.97,2.48,3.45,4,7.5,4.41,11.73.43,5.4,3.9,10.09,8.93,12.09,2.77,1.22,5.52,2.51,8.28,3.77,0,.42,0,.84,0,1.26-3.26-1.5-6.55-2.94-9.78-4.52-4.63-2.09-7.81-6.46-8.38-11.51-.67-4.57-2.28-8.96-4.71-12.89-1.89-3.23-3-6.86-3.25-10.6-.68-12.43-3.77-24.43-5.73-36.62-.76-5.04-1.14-10.13-1.16-15.23.08-2.23.7-4.4,1.81-6.34,2.14-4,5.99-4.8,11.54-2.82Z"/><path class="h" d="m113.11,74.91c4.86-4.93,10.41-9.13,16.47-12.48l.51.68c-.56.42-1.12.83-1.68,1.25-4.07,3.06-8.36,5.89-12.17,9.26-4.96,4.38-8,9.9-7.84,16.8,0,.28-.14.57-.79.82-.15-1.82-.13-3.65.07-5.47.57-2.23,1.29-4.42,2.14-6.56,1.1-1.43,2.19-2.86,3.29-4.3Z"/><path class="h" d="m345.66,79.63c-.17,8.48-2.45,16.59-4.04,24.83l-.67-.03c-.07-.84-.06-1.69.02-2.53,1.42-7.9,3.79-15.68,3.15-23.86-.15-1.87-.32-3.74-.48-5.61.54,1.47,1.13,2.93,1.59,4.42.21.91.36,1.84.45,2.77Z"/><path class="i" d="m318.14,378.29c.14-.14.27-.27.41-.41-.14.14-.27.27-.41.41Z"/><path class="k" d="m129.05,118.59c1.92-2.37,3.85-4.75,6.02-7.44-3.66-.54-5.82,1.71-8.41,2.66l-.12.16.07-.22c1.74-2.42,3.64-4.75,5.17-7.3,1.9-3.19,4.25-6.27,3.58-10.43-.11-.69.64-1.73,1.28-2.28,1.28-1.02,2.62-1.97,4-2.85,2.93-.54,5.89-.99,8.78-1.69.69-.17,1.18-1.19,1.76-1.82,1.55.02,3.41.07,3.7-1.79.24-1.53-.39-3.19-.67-5.03,2.32-.63,5.29-1.46,8.28-2.26,3.6-.97,4.01-2.4,1.47-5.25-.31-.35-.62-.69-1.14-1.28,4.97-.76,10.06.07,14.54,2.36,4.41,2.12,8.11,5.49,10.62,9.69l.65-.32c-.24-1.64-.47-3.29-.75-5.23,3.01.84,5.75,2.44,7.97,4.63,2.14,1.91,4.19,3.94,6.42,5.75,4.35,3.48,9.69,5.5,15.26,5.77,11.31.68,22.65.91,33.99.99,6.69.05,13.39-.52,20.08-.84,6.77-.32,13.97-5.32,15.36-11.08.36-2.27.32-4.58-.11-6.83-.17-1.35-.06-2.04,1.35-2.47,2.44-.75,4.82-1.69,7.24-2.53,2.47-.85,2.47-.84,2.75-3.64.77.5,1.45.94,2.46,1.59.15-1.46.28-2.73.46-4.5,19.01,13.56,36.4,27.92,43.87,50.92.26.48.53.95.79,1.43,1.07,3.72,2.28,7.41,3.18,11.17,1.53,6.4,2.87,12.84,4.28,19.26.22.9.45,1.81.67,2.71-.06,4.55-.02,9.11-.25,13.65-.26,1.6-.7,3.16-1.32,4.66-.21.51-.37,1.04-.48,1.59-1,13.36-2.14,26.71-2.89,40.08-.38,6.86-.27,13.76.01,20.63.23,5.65,1.27,11.26,1.53,16.9.36,7.88.48,15.76.38,23.66-.06,5.33-.53,10.68-1.07,15.99-.51,4.99-1.26,9.97-2.11,14.91-.51,2.94-1.92,3.51-4.39,2.01-1.83,3.05-3.65,6.11-5.56,9.3l-2.48-1.63c-1.62,3.6-3.2,7.1-4.8,10.64-1.89-.36-3.84,1.27-4.53,4.11-.32,1.31-.57,2.64-.94,4.33-.58-.63-.94-1.03-1.68-1.82-1.18,1.98-2.23,3.75-3.22,5.39.08.12-.08-.11-.41-.57-1.29,3.18-2.53,6.23-4.05,9.96-.23-1.41-.35-2.13-.52-3.17-.83,1.62-1.55,3.01-2.56,4.96-.12-1.56-.18-2.47-.3-4.04-.78,1.3-1.26,2.11-2.04,3.42-.13-1.79-.23-3.13-.34-4.68-2.22,1.01-1.74-.81-1.99-2.25-.64.8-1.1,1.37-1.93,2.41-.56-3.12-1.04-5.79-1.43-7.99-.56,2.57-1.23,5.63-1.9,8.7l-.58-.04-.51-2.04c-.66,2.53-1.23,4.69-1.8,6.91-.87-.49-1.59-.9-2.3-1.3-.58.81-1.03,1.71-1.33,2.66-.32,2.2-.29,4.45-.54,6.67-.24,2.09-.67,4.15-1.1,6.66-1.15-.68-1.63-.96-2.05-1.21-.93,2.48-1.82,4.87-2.8,7.48-1.19-.72-1.79-1.08-2.63-1.59-.33,1.09-.63,2.09-.89,2.99-.85-.81-1.68-1.59-2.64-2.5-.25.84-.4,1.33-.65,2.17-.51-.95-.86-1.6-1.21-2.25l-.44.12c.24,1.75.49,3.51.75,5.41-1.5.12-2.9.24-4.46.37.3,2.29.58,4.38.9,6.8-2.78-.44-5.25-.82-7.98-1.25-.1,1.88-.19,3.52-.28,5.14-1.7-1.15-3.29-2.41-5.05-3.37-2.43-1.32-2.72-1.11-3.37,1.5-.15.6-.29,1.21-.48,1.97-1.92-.65-3.86-1.99-5.42-1.64-1.37.31-2.32,2.5-3.33,3.7-1.35-.26-3.17-1.18-4.47-.7-1.24.46-1.94,2.38-3,3.84-.47-.44-1.26-1.19-2.05-1.93-3.21-3.02-3.78-3-6.99.18-2.05-4.52-5.06-4.73-7.51-3.18-.89-.52-1.84-.94-2.83-1.25-2.81-.52-5.49-1.46-8.37.67-1.9,1.4-3.92-.27-5.26-2.05-1.84-2.42-2.91-2.77-5.21-1.98-4.25-2.94-8.27-5.71-12.48-8.62l-.66,2.84c-.54-.71-1.14-1.38-1.78-2.01-.63-.46-1.29-.87-1.99-1.22-.27-.11-.52-.28-.73-.48-2.13-3.02-5.31-5.56-4.12-10.47l-1.73,1.55c-1.21-4.91-3.34-9.43-1.8-14.94-.78.6-1.21.92-2.01,1.54v-6.11l-.73-.2c-.93,1.9-1.86,3.81-3.03,6.2l-2.79-5.88c-.89,1.49-1.67,2.78-2.62,4.37-2.8-3.15-5.51-6.21-8.5-9.58-.89,1.34-1.57,2.35-2.44,3.66-1.19-2.87-2.28-5.48-3.57-8.56l-1.26,3.77c-2.51-3.77-4.61-7.49-4-12.24.16-1.26-.97-2.7-1.54-4.04-.5-.82-.89-1.71-1.15-2.64-.14-2.6-1.58-4.96-3.83-6.27-.75-.49-1.27-1.26-1.45-2.13-.28-1.84-1.38-3.44-2.99-4.37-.9-.58-1.62-1.41-2.07-2.38-1.34-3.58-2.41-7.26-3.73-10.85-.59-1.23-1.27-2.41-2.04-3.53-.49-.72-.86-1.51-1.09-2.35-1.85-11.17-3.79-22.32-5.4-33.52-1.88-13.09-1.55-26.29-1.43-39.47.02-2.06.24-4.11.39-6.49l-3.99,2.79c.42-2.15.62-3.69,1.03-5.17,3.28-11.85,6.67-23.68,9.89-35.55,1.02-3.77,1.67-7.64,2.41-11.48.6-3.13-.31-4.25-3.48-4.53l-.06-.07c.22-3.39.44-6.78.68-10.56-1.17.42-2.21.8-3.85,1.38,1.44-5.19,2.77-9.95,4.19-15.05-1.49.66-2.67,1.19-3.85,1.71l-.12.16.08-.2c1.36-2.19,2.73-4.38,4.09-6.57.53-.84,1.08-1.67,1.98-3.06m41.77,103.69l5.94,1.95c.57.39,1.19.71,1.83.95,7.21,1.77,14.27.81,21.24-1.31.53-.16.94-.7,1.4-1.06l5.01-1.98c3.32,1.26,6.64,2.52,9.96,3.79l.32-.66c-1.36-.7-2.68-1.49-4.09-2.08-3.57-1.61-7.21-3.03-10.93-4.27-3.34-1-6.78-1.64-10.26-1.89-3.35-.18-6.72-.03-10.04.46-5.15.68-9.17,3.87-13.4,6.57-.07.04,0,.29,0,.76,1.07-.44,2.04-.83,3.01-1.22h0Zm108.13,2.42c.2.13.39.36.59.37,8.82.09,17.62-.13,26.07-3.09.49-.17.83-.8,1.23-1.21l-.03-.78c1.21.57,2.45,1.07,3.71,1.5,3.11.9,6.25,1.74,9.41,2.44.84,0,1.67-.17,2.45-.5l-.02-.74c-6.31,1.03-11.31-2.1-16.44-4.82-.85-.45-1.7-.89-2.58-1.27-8.51-3.68-16.87-4.43-25.22.69-4.35,2.67-9.01,4.83-13.52,7.24-.51.31-1,.66-1.47,1.04l.41.66c3.23-1.63,6.45-3.25,9.68-4.88.99,2.85,1.82,3.33,5.71,3.34h0Zm-106.6,74.41l29.51-54.61c3.28,0,24.35,45.79,26.5,48.34,5.31,6.3,13.13,7.31,19.94,2.58,3.29-2.29,6.54-4.26,10.79-3.68.96.03,1.92-.11,2.84-.39,6.24-1.35,13.13-11.05,6.82-18.38-1.65-2.15-3.19-4.38-4.61-6.69-.23-.27-.48-.51-.75-.73l-.52.27c.21.68.48,1.35.82,1.98,1.55,2.32,3.14,4.62,4.79,6.88,1.49,1.93,1.99,4.45,1.36,6.8-1.68,6.9-8.41,10.72-15.44,8.63.54-.86,1.05-1.68,1.57-2.5l-.78-.62c-1.55,1.65-3.22,3.22-4.64,4.98-4.67,5.93-13.25,6.95-19.18,2.28-.71-.56-1.36-1.19-1.95-1.88-1.38-1.95-2.63-3.99-3.73-6.12-.38-.56-.8-1.1-1.24-1.61l-.58.41c.52,1.1,1.04,2.21,1.56,3.31-.09.08-.17.16-.25.25-1.56-.3-3.15-.46-4.75-.46-6.25.53-11.95-3.96-11.24-12.24.08-.95.14-1.91.23-3.13-3.44,2.89-6.24,5.87-9.61,7.94-6.37,3.92-13.12,7.22-19.6,10.97m25.36-14.04l-15.3,44.9c2.2-.41,4.4-.83,6.6-1.24.37.6.8,1.15,1.29,1.65,2.07,1.74,4.24,3.37,6.31,5.11,11.78,9.9,25.36,13.73,40.54,11.75,12.11-1.59,23.51-6.61,32.85-14.47,1.75-1.58,3.43-3.26,5.01-5.01m-6.28-.6c-.42-.2-.86-.35-1.32-.45-3.95-.48-7.89-1.18-11.86-1.31-5.33-.17-10.68.03-16.02.23-3.07.11-6.32,1.33-9.17.68-9.3-2.12-18.52-1.55-27.79-.35m48.56-107.74c10.81-2.73,21.54-5.99,32.92-4.84,5.94.6,11.9,1.07,17.84,1.71,4.95.54,9.88,1.25,14.72,1.87-2.79-5.49-8.22-9.15-14.35-9.69-2.77-.32-5.54-.66-8.28-1.16-1.21-.32-2.39-.75-3.53-1.29-.76-.44-1.57-.76-2.43-.95-2.77-.12-5.54-.05-8.43-.05.09-.44.22-1.07.48-2.39-5.32.84-10.25,1.58-15.17,2.4-3.73.63-7.37,1.51-10.12,4.41m-5.6,44.91c.18.44.43.85.73,1.21.34-.49.46-1.09.33-1.67-2.36-10.53-3.42-21.31-3.17-32.09m-48.91,82.55c-2.43.62-5.23.68-7.2,1.99-2.49,1.82-5.25,3.25-8.18,4.23-4.77,1.4-7.34,4.99-9,10.01.85-.07,1.68-.24,2.49-.5,1.35-.68,2.6-1.55,3.92-2.3.61-.34,1.6-.98,1.9-.77,1.97,1.44,3.83.18,5.73,0,.45-.04,1.06-.13,1.36.1,2.82,2.28,6.57.57,9.67,2.43,1.64.99,4.52-.57,6.03,1.96.15.26.72.34,1.11.39,2.21.24,4.43.6,6.64.62,2.23.03,4.54-1.68,6.64.5.2.21.78.11,1.17.05,2.51-.39,5.04-.7,7.51-1.27,1.94-.45,4.15-.91,3.76-3.83.71,1.66,1.42,3.33,2.13,4.99l.68-.17c.12-1.42.24-2.84.38-4.38,2.83,1.56,5.36,3.05,7.98,4.35.61.3,1.55-.08,2.33-.14l.05-.23c1.51.34,2.8-2.39,4.33-2.27.5.04,1.28,2.52,1.82,2.05l.13-.13c.39.09.77.19,1.16.26.89.14,1.78.25,2.67.37v-3c3.13.25,6.44.5,9.83.77-.03-.46-.09-1.33-.16-2.27l7.72,4.28c.26-1.37.4-2.1.56-2.95.89.54,1.56.94,2.23,1.35l.09-.75c.85-.08,1.7-.07,2.54.03,1.75.41,3.66,1.55,3.82-1.35,2.56,1.18,4.99,2.31,7.42,3.43l.78-.66c-1.15-2.36-1.96-4.99-3.53-7.03-2.29-2.97-5.69-4.59-9.3-5.6-5.27-1.47-10.3-4.28-15.99-3.51-2.66.36-5.06.61-7.21-1.51l-1.35,1.89-2.4-1.89c-.42.37-.93.61-1.08.99-.98,2.49-3.99-.63-4.98,1.81-.36-.1-.72-.19-1.09-.25-1.07.03-2.42-.24-3.17.29-2.31,1.63-5.15,2.32-7.95,1.94-2.93-.31-5.9-.44-8.78-1.01-2.97-.73-6.11-.28-8.76,1.25-2.18-2.21-4.82-1.83-7.44-1.75.19-1.25.35-2.34.6-3.96-3.64.95-6.73,1.76-9.87,2.58.07-.36.16-.89.26-1.41m13.55-85.63c.77-4.52-.84-8.22-4.62-9.96-9.47-4.37-19.06-7.99-29.85-7.8-4.24.08-8.32.17-12.06,2.05-4.5,2.27-8.76,5.03-13.75,6.22-.54.13-1.33.71-1.39,1.17-.28,2.1-1.85,2.06-3.32,2.24-.95,0-1.89.13-2.81.39-.51.21-.73,1.09-1.08,1.67l.4.41c-2.73,1.21-5.46,2.42-8.46,3.75,3.25,1.95,6.56,1.59,11.52.25,6.47-1.75,12.88-3.73,19.33-5.58,7.14-2.04,14.29-3.46,21.62-.77,1.23.34,2.51.46,3.79.35,7.3-.22,14.49,1.73,20.67,5.61h0Zm-3.73,142.1l.66.21c.85-.55,1.71-1.09,2.84-1.81l5.05,6.81c.32-.4.69-.84,1.02-1.26.63.54,1.15.98,1.71,1.46.67-.86,1.22-1.57,1.9-2.45,1.05,2.05,1.95,3.82,3.05,5.96.84-1.94,1.45-3.32,2.05-4.7l.46.15c.19,1.03.38,2.06.63,3.44,1.06-1.5,1.86-2.62,2.62-3.7l4.22,3.86,4.14-6.39c.5.75.85,1.28,1.23,1.85,1.17-.94,2.2-1.76,3.33-2.66.44,1.38.78,2.46,1.3,4.1,1.61-2.18,2.88-3.92,4.35-5.9l1.26,2.76c.54-.95.95-1.68,1.37-2.42.63.38,1.11.67,1.77,1.07.71-4.35,4.28-8.24.39-12.89l-5.29,5-2.12-1.94c-.37.62-.73,1.21-1.08,1.8l-.35-.65c-1.25.51-2.55.91-3.87,1.18-3.87.56-7.77.88-11.68.97-5.13-.03-10.25-.54-15.37-.92-.76-.14-1.48-.45-2.1-.91-.75-.54-1.47-1.13-2.16-1.75-.5,3.65-.91,6.69-1.32,9.73Zm-48.08-137.19l40.49-.73-55.44,11.04c.85-.34,1.68-.73,2.48-1.18,3.28-2.14,6.55-4.31,9.79-6.51,2.57-1.63,5.51-2.56,8.55-2.71,5.71-.5,11.39-1.32,17.01-2.46,4.56-.97,8.9-1.08,13.11.91,2.81,1.33,5.46,2.99,8.18,4.51.63.35,1.26.69,1.89,1.03m49.7,2.53c3.83-2.59,7.57-5.33,11.46-7.83,1.31-.89,2.82-1.42,4.39-1.56,12.41-.39,24.33,1.64,35.4,7.59.6.29,1.22.55,1.84.77m-106.92,8.82c-3.68,1.68-6.5,3.39-9.56,4.24-3.14.94-6.42,1.34-9.7,1.16-5.7-.46-11.35-1.64-17.02-2.48-2.12-.32-4.25-.54-6.38-.81m120.9,56.74c3.75,2.41,7.82,4.33,11.58,6.73m-17.29-59.56c-5.34-.86-10.57-2.46-15.84-3.74m-51.59,6.8c3.78-.58,6.68-3.66,7.04-7.47.1-2.98-1.46-5.86-3.97-6.56,5.09,6.12,2.79,10.47-3.07,14.03Z"/><path class="k" d="m317.31,379.22c-.66,7.52-1.61,15.02-1.93,22.56-.47,11.39-.23,22.75,5.37,33.2.38.7.8,1.38,1.24,2.05.11.16.38.22,1.05.57-.2-.66-.44-1.31-.72-1.94-4.68-8.17-6.18-17.1-6-26.32.18-8.65.82-17.29,1.29-26.64,3.89.97,7.45,1.72,10.93,2.74,5.53,1.54,10.52,4.6,14.4,8.83,3.76,4.18,5.47,9.34,5.96,14.93,1.19,13.61-4.85,24.81-12.04,35.53-7.55,11.52-16.28,22.21-26.06,31.91-14.45,14.03-31.46,23.05-51.47,25.91-7.47,1.07-15.03,1.63-22.57,1.96-7.23.39-14.47.36-21.7-.09-18.76-1.36-37.15-4.69-54.53-12.29-9.45-4.07-18.27-9.5-26.16-16.1-13.62-11.4-23.45-26.68-28.18-43.81-1.52-5.67-2.52-11.47-2.99-17.32-.59-5.96,1.99-10.74,6.96-14.28,5.21-3.71,10.32-7.57,15.41-11.44,7.26-5.52,15.89-8.02,24.51-11.55.09,1.1.21,1.92.21,2.74-.02,7.84,0,15.68-.11,23.51-.07,5.1-1.22,9.9-4.39,14.07-.24.43-.29.93-.14,1.4,3.96-4.21,5.44-9.38,5.51-14.94.18-13.19.19-26.39.28-39.58,1.52,2.21,3.16,4.35,4.9,6.39,5.47,5.82,11,11.59,16.68,17.2,4.35,4.3,8.43,9.25,13.58,12.32,14.35,8.56,29.31,16.03,46.12,18.7,9.26,1.47,18.11-.34,27.16-2.44,13.45-3.12,24.16-10.5,34.45-18.99,7.63-6.29,15.31-12.52,22.96-18.77Zm-61.85,60.63c-7.86,5.55-16.35,6.66-25.43,3.53,6.19,5.08,22.02,2.42,25.43-3.53Z"/><path class="k" d="m121.8,285.58c-2.76-1.26-5.5-2.55-8.28-3.77-5.04-2-8.5-6.69-8.93-12.09-.41-4.23-1.93-8.28-4.41-11.73-2.79-3.84-3.06-8.45-3.71-12.97-1.47-10.09-3.17-20.15-4.66-30.24-.82-5.52-1.55-11.06-2.05-16.61-.11-1.99.13-3.99.72-5.9,1.58-5.62,6.34-7.52,11.42-4.64,3.99,2.26,6.29,6.02,8.48,9.86.79,1.38,1.55,2.77,2.33,4.16,1.21,3.86,2.66,7.66,3.56,11.58,1,4.37,1.5,8.85,2.21,13.29v.07s-.02.73-.02.73c-.08.01-.16.02-.24,0l.08-.85c-2.5-1.58-4.99-3.15-7.32-4.62-.7,2.81-1.6,5.71-2.1,8.67-.6,3.03-.89,6.11-.86,9.2.2,5.16,1.98,7.1,6.88,8.57,1.39.33,2.28,1.7,1.99,3.11-.1.79-.28,1.57-.55,2.32-.67,2.1-.82,3.9,1.92,4.63.54.15.96.79,1.43,1.2.31,4.02.59,8.04.92,12.06.38,4.66.8,9.32,1.21,13.98Zm-28.26-87.77c3.34,1.5,5.34,4.67,6.21,8.47,1.31,5.69.46,11.31-.75,16.86-2.37,10.83-2.7,21.07,6.25,29.6,1.41,1.35,1.43,4.19,2,6.36.03.56-.05,1.12-.23,1.65l.69.18c.3-.81.53-1.65.68-2.5.32-3.51-1.49-6.15-3.8-8.46-4.4-4.24-6.55-10.31-5.81-16.37.48-4.92,1.38-9.79,2.16-14.68.97-6.11,1.09-12.1-1.95-17.76-1.24-2.52-3.29-4.55-5.81-5.77-1.94,8.65,3.64,16.14,2.76,24.42.59-.62.9-1.45.87-2.3-.47-3.39-1.06-6.76-1.62-10.14-.54-3.2-1.1-6.39-1.65-9.58Z"/><path class="k" d="m365.39,205.97c-.56,5.11.22,10.28,2.27,15,3.12,7.82,1.87,15-2.69,21.84-1.54,2.23-2.96,4.55-4.25,6.93-1.61,3.12-1.24,6.07,1.04,8.91,1.27,1.85,2.4,3.8,3.37,5.83.14-.96.12-1.94-.06-2.89-.46-1.19-1.15-2.28-2.03-3.21-2.62-2.8-2.83-5.8-.93-8.99,2.16-3.62,4.43-7.18,6.91-11.18-.34,3.41-.62,6.41-.94,9.42-.75,6.98-1.36,13.99-2.33,20.94-.78,5.65-4.22,9.32-9.61,11.16-.02-5.74.47-11.54-.18-17.2-1.24-10.76,1.4-21.01,3.21-32.11.64,1.88,1.08,3.19,1.66,4.91.6-2.32,1.07-4.17,1.55-6.02,3.09,1.94,3.56,4.37,1.54,7.44-1.79,2.72-3.52,5.47-5.2,8.26-.32.71-.54,1.46-.67,2.23,2.92-3.74,5.52-7.72,7.79-11.9,1.55-3.02-.51-6.25-4-7.33.33-4.43.7-8.85.97-13.29.23-3.68.34-7.37.51-11.28.81.98,1.44,1.74,2.07,2.5Z"/><path class="k" d="m118.45,227.31c.23,1.09.38,2.19.46,3.3.06,5.35,0,10.71.09,16.06.06,3.59.29,7.17.45,10.75-2.06-.37-2.9-1.37-2-3.5.34-.89.52-1.84.53-2.8.11-2.1-.78-3.67-2.99-3.89-3.63-.37-4.84-2.8-5.63-5.86-1.59-6.17,1.09-11.63,2.52-17.52.74.63,1.53,1.2,2.36,1.71,1.36.67,2.8,1.18,4.21,1.76Z"/><path class="h" d="m250.38,24.62c4.8,3.15,9.81,6.03,14.36,9.5,8.37,6.35,15.48,14.2,20.97,23.15.38.63.55,1.36.47,2.1-13.04-20.44-31.17-33.96-54.56-40.45l.31-.79c1.01.13,2.03.17,3.02.39,11.41,2.51,22.48,6.37,32.98,11.49,9.41,4.56,18.71,9.41,27.78,14.62,7.01,4.04,12.89,9.49,15.89,17.35.39,1.28.69,2.59.9,3.92l-.63.18c-.16-.23-.4-.44-.46-.69-1.82-8.14-7.17-13.82-13.83-17.98-8.53-5.32-17.48-9.97-26.43-14.58-5.17-2.66-10.67-4.7-16.05-6.95-1.46-.61-3.03-.99-4.55-1.48-.23-.03-.46-.07-.69-.1l.51.31Z"/><path class="h" d="m117.51,56.2c2.67-1.31,5.28-2.75,8.01-3.91,8.23-3.51,16.42-7.14,24.79-10.29,10.83-4.17,22.27-6.55,33.86-7.03,11.2-.39,21.96,1.22,32.2,5.8,8.75,4.03,16.53,9.88,22.84,17.16,4.35,4.88,8.24,10.17,12.32,15.3.47.67.91,1.36,1.3,2.08l-.61.49c-.47-.52-.94-1.03-1.39-1.56-5.68-6.7-10.94-13.8-17.11-20-10.75-10.82-24.04-16.51-39.32-17.82-17.69-1.51-34.27,2.68-50.42,9.21-7.85,3.17-15.49,6.86-23.23,10.3-.94.42-1.94.72-2.91,1.07l-.35-.8Z"/><path class="k" d="m363.32,203.47l1.24-15.21,1.22.44c1.14-2.35,3.92-2.74,5.43-.44,1.05,1.58,1.6,3.44,1.6,5.34-.35,7.8-1,15.59-1.59,23.38-.21,2.7-.55,5.39-1,8.12-1.58-5.8-4.76-11.26-3.59-17.63.33-2.64,1.89-4.97,4.2-6.29.11,1.89.2,3.52.29,5.14h.55s0-6.7,0-6.7c-2.54.59-5.09,4.37-6.27,6.36"/><path class="h" d="m234.98,93.76c-.49-.4-.96-.82-1.41-1.27-8.17-9.11-17.39-17.22-27.46-24.18-6.47-4.49-14.08-7.05-21.95-7.38-5.18-.25-10.35-.68-15.53-.89-9.57-.39-17.84,2.84-25.02,9.11-2.22,1.94-4.62,3.68-6.97,5.47-.58.44-1.25.77-2.11,1.29,0-.69-.09-1.03.01-1.11,4.81-3.7,9.47-7.61,14.49-10.99,7.23-4.86,15.57-5.44,23.96-5.03,5.33.26,10.66.8,15.96,1.41,8.38.98,15.37,5.12,21.97,10.04,8.58,6.28,16.44,13.49,23.46,21.48.4.46.74.98,1.11,1.47l-.53.56Z"/><path class="h" d="m279.9,89.9c.28-1.68.67-3.35.83-5.04.86-9.18-2.64-16.91-8.84-23.21-11.85-12.26-25.58-22.54-40.68-30.46-6.08-3.24-12.76-5.21-19.63-5.8-.57-.1-1.12-.27-1.65-.5l.14-.9c2.1.27,4.23.42,6.31.83,11.05,2.17,20.79,7.28,29.72,13.9,7.69,5.7,15.27,11.59,22.5,17.86,6.81,5.91,11.94,13.08,13.35,22.37.61,4.01.02,8.8-2.04,10.95Z"/><path class="g" d="m119.67,259.54c-.47-.41-.88-1.05-1.43-1.2-2.74-.73-2.59-2.54-1.92-4.63.26-.75.45-1.53.55-2.32.29-1.4-.59-2.78-1.99-3.11-4.9-1.47-6.68-3.41-6.88-8.57-.03-3.09.26-6.17.86-9.2.5-2.96,1.4-5.86,2.1-8.67,2.39,1.51,4.77,3.01,7.33,4.63,0,.24-.01.53-.02.77-1.41-.58-2.68-1.02-4.04-1.69-.83-.5-1.62-1.08-2.36-1.71-1.43,5.89-4.11,11.35-2.52,17.52.79,3.06,2.01,5.5,5.63,5.86,2.21.22,3.1,1.79,2.99,3.89-.02.96-.2,1.9-.53,2.8-.9,2.13-.06,3.13,2,3.5"/><path class="h" d="m353.88,150.6c-.22-.9-.45-1.81-.67-2.71,4.4,4.02,8.68,8.38,8.94,14.65.4,9.58.11,19.18.1,28.77-.05.52-.16,1.02-.32,1.52l-.61.06c-.19-.81-.32-1.63-.38-2.45-.03-9.11.04-18.22-.04-27.34-.04-5.4-3.29-9.11-7.01-12.49Z"/><path class="h" d="m123.55,115.48c-.21-1.68-.53-3.35-.62-5.03-.4-6.85-.93-13.7-1.02-20.55-.01-5.31,1.41-10.52,4.11-15.09.44-.65.93-1.26,1.47-1.83l.51.32c-.12.49-.3.96-.52,1.42-3.05,4.93-4.55,10.66-4.29,16.46.32,7.41.83,14.81,1.22,22.22-.01.7-.08,1.4-.19,2.09h-.69Z"/><path class="h" d="m129.56,150.7c-3,4.8-6.1,9.53-8.98,14.4-3.22,5.44-6.15,11.02-7.02,17.43-.05.39-.4.74-1.17,1.01,0-.71.04-1.41.12-2.11,1.42-7.7,5.28-14.33,9.35-20.84,1.86-2.98,3.85-5.88,5.84-8.77.5-.58,1.06-1.1,1.68-1.55l.58-.04.06.07-.46.4Z"/><path class="h" d="m128.63,121.67c-3.75,4.54-7.69,8.94-11.18,13.67-3.64,4.78-5.84,10.5-6.33,16.48l-.78-.09c-.02-1.39.06-2.78.25-4.16,1.41-6.74,5.02-12.37,9.31-17.59,2.12-2.58,4.52-4.94,6.83-7.36.53-.47,1.11-.9,1.71-1.28l.19.32Z"/><path class="h" d="m345.75,117.46c-.26-.48-.53-.95-.79-1.43,6.25,1.3,11.29,4.39,14.16,10.24,1.58,3.22,2.69,6.67,4.01,10.02l-.95.4c-.33-.71-.67-1.41-.97-2.13-1.13-2.72-2.04-5.55-3.39-8.15-2.54-4.88-6.75-7.71-12.06-8.95Z"/><path class="h" d="m151.17,87.38c-.58.63-1.07,1.65-1.76,1.82-2.89.7-5.85,1.15-8.78,1.69-1.5-.08-3.01-.14-4.51-.24-3.32-.24-4.89-2.06-4.61-5.34.11-1.31.28-2.63.42-3.94l.7-.08c.08,1.03.24,2.06.22,3.08-.07,4.57.26,4.87,4.77,4.95,4.63.08,9.22.1,13.54-1.94Z"/><path class="g" d="m361.84,228.04c3.49,1.08,5.55,4.31,4,7.33-2.26,4.17-4.87,8.15-7.79,11.9.13-.77.36-1.52.67-2.23,1.68-2.78,3.41-5.54,5.2-8.26,2.02-3.08,1.55-5.5-1.54-7.44-.18-.43-.37-.87-.55-1.3Z"/><path class="l" d="m257.17,313.48c-.79.07-1.72.44-2.33.14-2.63-1.29-5.15-2.78-7.98-4.35-.13,1.53-.25,2.96-.38,4.38l-.68.17c-.71-1.66-1.42-3.33-2.13-4.99.39,2.92-1.81,3.38-3.76,3.83-2.47.57-5,.88-7.51,1.27-.39.06-.97.15-1.17-.05-2.1-2.18-4.41-.47-6.64-.5-2.22-.03-4.43-.38-6.64-.62-.39-.04-.95-.13-1.11-.39-1.5-2.52-4.39-.97-6.03-1.96-3.09-1.86-6.84-.15-9.67-2.43-.29-.24-.9-.15-1.36-.1-1.9.18-3.75,1.45-5.73,0-.29-.21-1.28.42-1.9.77-1.32.74-2.57,1.61-3.92,2.3-.81.27-1.64.43-2.49.5,1.65-5.02,4.23-8.61,9-10.01,2.93-.98,5.69-2.41,8.18-4.23,1.97-1.31,4.77-1.37,7.2-1.99h0s-.26,1.41-.26,1.41c3.14-.82,6.23-1.63,9.87-2.58-.24,1.62-.41,2.71-.6,3.96,2.62-.08,5.25-.46,7.44,1.75,2.65-1.53,5.79-1.97,8.76-1.25,2.88.57,5.85.7,8.78,1.01,2.8.38,5.64-.31,7.95-1.94.76-.53,2.1-.26,3.17-.29.37.06.73.15,1.09.25,1-2.44,4.01.68,4.98-1.81.15-.38.66-.62,1.08-.99l2.4,1.89,1.35-1.89c2.15,2.12,4.55,1.86,7.21,1.51,5.68-.77,10.72,2.04,15.99,3.51,3.61,1,7.01,2.63,9.3,5.6,1.57,2.04,2.38,4.66,3.53,7.03l-.78.66c-2.43-1.12-4.86-2.25-7.42-3.43-.16,2.9-2.07,1.76-3.82,1.35-.84-.11-1.7-.12-2.54-.03l-.09.75c-.67-.4-1.34-.81-2.23-1.35-.16.85-.3,1.57-.56,2.95l-7.72-4.28c.06.94.12,1.81.16,2.27-3.39-.27-6.7-.52-9.83-.77v3c-.89-.12-1.78-.24-2.67-.37"/><path class="j" d="m287,319.82c-1.58,1.75-3.26,3.42-5.01,5.01-9.35,7.86-20.75,12.88-32.85,14.47-15.18,1.98-28.76-1.85-40.54-11.75-2.07-1.74-4.24-3.37-6.31-5.11-.49-.5-.92-1.06-1.29-1.65,4.87-.35,9.75.44,14.26,2.3,12.4,5.31,25.35,7.45,38.63,4.75,9.35-1.91,18.47-4.96,27.72-7.39,1.78-.34,3.58-.54,5.39-.61Z"/><path class="l" d="m223.71,209.6c-6.18-3.88-13.38-5.84-20.67-5.61-1.27.11-2.55,0-3.79-.35-7.33-2.69-14.49-1.27-21.62.77-6.45,1.84-12.86,3.83-19.33,5.58-4.96,1.34-8.27,1.7-11.52-.25,3-1.33,5.73-2.54,8.46-3.75l-.4-.41c.35-.58.58-1.46,1.08-1.67.91-.25,1.86-.38,2.81-.39,1.47-.18,3.04-.13,3.32-2.24.06-.45.85-1.03,1.39-1.17,4.99-1.19,9.25-3.95,13.75-6.22,3.74-1.88,7.81-1.98,12.06-2.05,10.78-.2,20.38,3.43,29.85,7.8,3.78,1.74,5.39,5.44,4.62,9.96Z"/><path class="l" d="m266.78,200.32c2.75-2.9,6.39-3.78,10.12-4.41,4.92-.83,9.86-1.57,15.17-2.4-.27,1.31-.39,1.95-.48,2.39,2.89,0,5.66-.07,8.43.05.85.19,1.67.51,2.43.95,1.13.54,2.31.97,3.53,1.29,2.74.5,5.51.84,8.28,1.16,6.13.54,11.56,4.2,14.35,9.69-4.85-.62-9.78-1.33-14.72-1.87-5.94-.65-11.9-1.11-17.84-1.71-11.38-1.15-22.11,2.11-32.92,4.84-1.44.36-3,1-2.82-1.54.71-1.28,1.5-2.52,2.34-3.71,1.29-1.64,2.75-3.15,4.14-4.71Z"/><path class="j" d="m203.77,319.71c1.26-.76,9.14-1.47,10.79-1.68.59-.08,1.17-.15,1.76-.22,8.68-1.05,17.32-1.42,26.04.57,2.85.65,6.1-.57,9.17-.68,5.34-.2,10.69-.4,16.02-.23,3.96.13,7.91.83,11.86,1.31.45.05,3.38.36,3.82.52-5.06,1.66-12.59,3.39-17.69,4.89-12.43,3.67-25.02,4.75-37.77,1.75-6.38-1.5-18.45-2.57-23.99-6.23Z"/><path class="l" d="m219.98,351.7c.41-3.04.83-6.08,1.32-9.73.68.63,1.4,1.21,2.16,1.75.62.46,1.34.77,2.1.91,5.12.38,10.25.89,15.37.92,3.91-.09,7.81-.41,11.68-.97,1.32-.27,2.62-.67,3.87-1.18l.35.65c.36-.59.71-1.18,1.08-1.8l2.12,1.94,5.29-5c3.88,4.64.31,8.54-.39,12.89-.66-.4-1.14-.69-1.77-1.07-.42.74-.83,1.47-1.37,2.42l-1.26-2.76c-1.46,1.99-2.74,3.72-4.35,5.9-.52-1.64-.87-2.73-1.3-4.1-1.13.91-2.16,1.73-3.33,2.66-.38-.57-.73-1.09-1.23-1.85l-4.14,6.39-4.22-3.86c-.76,1.08-1.56,2.2-2.62,3.7-.25-1.38-.44-2.41-.63-3.44l-.46-.15c-.6,1.38-1.2,2.76-2.05,4.7-1.1-2.15-2-3.92-3.05-5.96-.68.88-1.23,1.59-1.9,2.45-.55-.47-1.07-.92-1.71-1.46-.33.41-.7.86-1.02,1.26l-5.05-6.81c-1.13.72-1.98,1.27-2.84,1.81l-.66-.21Z"/><path class="g" d="m229.55,287.83c-.52-1.1-1.04-2.21-1.56-3.31l.58-.41c.44.52.86,1.05,1.24,1.61,1.1,2.12,2.35,4.16,3.73,6.12,4.89,5.74,13.51,6.43,19.25,1.54.69-.59,1.32-1.24,1.88-1.95,1.42-1.76,3.09-3.33,4.64-4.98l.78.62c-.52.82-1.03,1.65-1.57,2.5,7.03,2.09,13.76-1.73,15.44-8.63.63-2.36.13-4.87-1.36-6.8-1.64-2.26-3.23-4.56-4.79-6.88-.34-.63-.62-1.29-.82-1.98l.52-.27c.27.22.53.46.75.73,1.42,2.31,2.96,4.55,4.61,6.69,6.3,7.33-.59,17.03-6.82,18.38-.92.29-1.88.42-2.84.39-4.25-.58-7.5,1.39-10.79,3.68-6.81,4.73-14.63,3.72-19.94-2.58-1.91-2.4-4.86-3.74-7.92-3.61-8.01,0-12.13-4.17-12.45-12.27-.01-.31.03-1.34-.05-2.07-.3.29-1.91,1.67-2.6,2.28-5.84,5.19-17.37,10.95-19.44,12.14-4.98,2.25-10.7,5.06-13.17,10.07l-.38-.27c.96-1.56,2.07-3.02,3.32-4.36,1.38-1.22,2.91-2.25,4.55-3.06,6.48-3.75,13.23-7.05,19.6-10.97,3.36-2.07,6.16-5.05,9.61-7.94-.09,1.22-.14,2.17-.23,3.13-.71,8.28,4.99,12.77,11.24,12.24,1.59,0,3.18.16,4.75.46.11.05.22.1.33.15l-.08-.4Z"/><path class="g" d="m277.35,220.83c-3.23,1.63-6.45,3.25-9.68,4.88l-.41-.66c.47-.38.96-.72,1.47-1.04,4.51-2.41,9.17-4.57,13.52-7.24,8.35-5.12,16.71-4.37,25.22-.69.88.38,1.73.82,2.58,1.27,5.13,2.72,10.12,5.85,16.44,4.82l.02.74c-.78.32-1.61.49-2.45.5-3.16-.7-6.29-1.55-9.41-2.44-1.26-.43-2.5-.93-3.71-1.5-2.23-1.26-4.46-2.51-6.92-3.9-.17,2.51-.3,4.37-.44,6.44,1.4-.33,2.55-.61,3.7-.88,1.23-.29,2.46-.58,3.69-.87-.41.41-.74,1.04-1.23,1.21-8.46,2.95-17.25,3.18-26.07,3.09-.2,0-.39-.24-.59-.37,1.07-.29,2.14-.59,3.26-.89-.35-.51-.76-1.12-1.38-2.04l3.38.2c.81.45,1.61,1.28,2.42,1.29,2.53.02,5.07-.3,7.61-.44,2.96-.16,3.44-.76,3.51-3.76.05-2.18-1.31-2.7-2.98-2.96-1.8-.28-2.41.73-2.47,2.36,0,.48-.14.95-.4,1.36-.4.54-.94,1.27-1.48,1.32-.52.05-1.21-.57-1.66-1.05-.31-.46-.53-.98-.66-1.52-.5-1.29-.97-2.64-2.8-2.27-1.72.35-2.68,1.32-2.44,3.19-.71.17-1.42.34-2.2.52l-.4-2.54c-2.49,1.38-4.76,2.64-7.03,3.91Z"/><path class="g" d="m208.68,320.1c1.36.3,12.69,4.34,19.07,5.84,12.75,3,25.34,1.91,37.77-1.75,5.1-1.5,10.12-2.92,15.17-4.58.01,0,.03,0,.04,0,1.44-.13,1.53-.28,2.58-.33,1-.12,1.53-.1,2.63-.19.43-.05.87-.05,1.3.01.19.1.26.34.15.53-.06.11-.17.18-.29.2-.31.04-.12,0-.12,0-1.81.07-3.61.28-5.39.61-9.25,2.44-18.37,5.48-27.72,7.39-13.28,2.71-26.24.56-38.63-4.75-4.51-1.87-9.39-2.66-14.26-2.3-.58-.15-.31-.94,0-1"/><path class="g" d="m205.35,222.27c-.47.36-.88.9-1.4,1.06-6.97,2.12-14.03,3.08-21.24,1.31-.65-.24-1.26-.56-1.83-.95.87-.07,1.75-.14,2.7-.21l-.19-1.83,2.26.66c.59,1.99,2.4,1.67,3.77,1.73,2.21.1,4.46-.4,6.66-.25,2.45.16,3.19-1.01,3.47-3.13.29-2.12-.7-3.13-2.6-3.56-1.88-.42-2.47.65-2.95,2.24-.46.91-1.07,1.75-1.81,2.46-.83-.69-1.54-1.52-2.11-2.44-.57-1.41-.96-2.82-2.83-2.62-1.42-.02-2.58,1.11-2.6,2.52,0,.19.01.37.05.56-2.23.69-1.66-1.3-2.14-2.68-2.67,1.61-5.15,3.1-7.62,4.6-.97.39-1.94.79-3.01,1.22,0-.47-.06-.72,0-.76,4.22-2.69,8.25-5.89,13.4-6.57,3.32-.49,6.69-.64,10.04-.46,3.48.26,6.92.89,10.26,1.89,3.71,1.24,7.36,2.66,10.93,4.27,1.41.58,2.73,1.38,4.09,2.08l-.32.66c-3.32-1.26-6.64-2.52-9.96-3.79-2.79-1.19-5.58-2.37-8.34-3.54-.53,2.37-.97,4.32-1.39,6.23,1.53-.23,3.13-.47,4.72-.7Z"/><path class="g" d="m156.7,224.4c5.12-3.22,10.04-6.58,15.33-9.49,1.9-1.05,4.39-.89,6.67-1.22,4.89-.7,9.95-.77,14.67-2.07,6.91-1.9,12.84-.86,18.82,2.71,2.05,1.22,4.08,2.25,6.1,3.53l-.33.52c-.63-.34-1.26-.68-1.89-1.03-2.72-1.51-5.37-3.18-8.18-4.51-4.21-1.98-8.55-1.87-13.11-.91-5.62,1.14-11.3,1.96-17.01,2.46-3.04.15-5.98,1.09-8.55,2.71-3.24,2.2-6.51,4.37-9.79,6.51-.8.45-1.63.85-2.48,1.18l-.25-.42Z"/><path class="g" d="m278.59,212.63c1.81-1.1,3.88-1.71,5.99-1.78,11.99-.32,23.28,1.84,34.01,7.46.8.42,1.57.75,2.35,1.21l-.19.38c-.63-.23-1.24-.48-1.84-.77-11.07-5.95-22.99-7.97-35.4-7.59-1.57.13-3.09.67-4.39,1.56-3.89,2.5-7.63,5.24-11.46,7.83-.73.49-1.27.39-1.05-.27"/><path class="g" d="m258.54,211.95c.49-.04.52,1.18.51,1.41-.19,10.56.88,21.11,3.18,31.41.13.58,0,1.18-.33,1.67-.3-.36-.55-.77-.73-1.21-2.5-10.61-3.61-21.49-3.3-32.38.01-.37.24-.9.66-.89"/><path class="g" d="m213.84,228.72c-.96.77-2,1.44-3.1,1.98-3.59,1.83-7.45,3.08-11.43,3.71-7.22.66-15.69-1.74-22.76-2.33-1.79-.38-3.6-.48-5.42-.75l.07-.49c2.13.27,4.26.49,6.38.81,5.67.85,11.32,2.03,17.02,2.48,3.28.17,6.56-.22,9.7-1.16,3.06-.85,5.87-2.56,9.56-4.24Z"/><path class="g" d="m283.75,279.3c5.19,6.48,12.91,9.15,19.59,13.39,4.3,2.72,8.15,5.92,10.18,10.79.37,1.05.67,2.12.91,3.2l-.37.16c-.24-.4-.42-.83-.54-1.28-1.43-5.46-5.09-8.86-9.62-11.75-3.76-2.4-8.17-4.73-11.55-6.76-2.71-1.73-5.26-3.7-7.63-5.88-.48-.49-.94-1-1.36-1.54l.37-.32Z"/><path class="n" d="m288.33,221.43l-3.38-.2c.62.92,1.03,1.53,1.38,2.04-1.12.31-2.19.6-3.26.89-3.89-.01-4.72-.5-5.71-3.34,2.27-1.26,4.54-2.52,7.03-3.91l.4,2.54c.78-.19,1.49-.35,2.2-.52,1.11.27,2.22.54,3.32.8l-.05.59c-.64.37-1.28.73-1.93,1.1Z"/><path class="g" d="m270.52,231.01c5.28,1.28,10.5,2.88,15.84,3.74,5.36.86,10.83.97,15.97,1.38-3.08,1.01-24.95-1.45-31.92-4.71l.11-.41Z"/><path class="n" d="m174.93,221.75c2.48-1.49,4.95-2.98,7.62-4.6.48,1.38-.09,3.37,2.14,2.68,1.08.28,2.16.56,3.24.84l-.03.6c-.75.35-1.51.69-2.26,1.04l-2.26-.66.19,1.83c-.95.08-1.83.14-2.7.21-1.98-.65-3.96-1.3-5.94-1.95Z"/><path class="n" d="m205.35,222.27c-1.59.24-3.19.48-4.72.7.43-1.91.86-3.86,1.39-6.23,2.76,1.17,5.55,2.36,8.34,3.54l-5.01,1.98Z"/><path class="n" d="m310.96,220.24c-1.23.29-2.46.58-3.69.87-1.15.27-2.31.55-3.7.88.14-2.07.27-3.93.44-6.44,2.46,1.39,4.69,2.64,6.92,3.9,0,.26.02.52.03.78Z"/><path class="g" d="m218.93,237.81c5.86-3.56,8.16-7.9,3.07-14.03,2.51.7,4.07,3.58,3.97,6.56-.36,3.81-3.26,6.88-7.04,7.47Z"/><path class="g" d="m255.45,439.85c-3.4,5.96-19.24,8.62-25.43,3.53,9.08,3.12,17.56,2.02,25.43-3.53Z"/><path class="g" d="m93.54,197.82c.55,3.19,1.11,6.38,1.65,9.58.57,3.38,1.15,6.75,1.62,10.14.03.85-.28,1.68-.87,2.3.88-8.28-4.7-15.76-2.76-24.42,2.52,1.22,4.57,3.25,5.81,5.77,3.05,5.65,2.93,11.65,1.95,17.76-.78,4.88-1.68,9.76-2.16,14.68-.74,6.07,1.41,12.13,5.81,16.37,2.31,2.3,4.12,4.95,3.8,8.46-.15.85-.38,1.69-.68,2.5l-.69-.18c.18-.53.26-1.09.23-1.65-.57-2.17-.59-5.01-2-6.36-8.95-8.54-8.62-18.77-6.25-29.6,1.21-5.55,2.06-11.17.75-16.86-.87-3.8-2.88-6.97-6.21-8.47Z"/><path class="m" d="m288.33,221.43c.64-.37,1.28-.73,1.93-1.1l.05-.59c-1.11-.27-2.22-.54-3.32-.8-.24-1.87.72-2.83,2.44-3.19,1.83-.37,2.29.98,2.8,2.27.13.54.35,1.05.66,1.52.45.48,1.13,1.1,1.66,1.05.54-.05,1.08-.78,1.48-1.32.26-.41.4-.88.4-1.36.06-1.62.68-2.64,2.47-2.36,1.67.26,3.03.79,2.98,2.96-.07,3-.55,3.6-3.51,3.76-2.54.14-5.07.46-7.61.44-.81,0-1.61-.83-2.42-1.29Z"/><path class="m" d="m185.64,222.31c.75-.35,1.51-.69,2.26-1.04l.03-.6c-1.08-.28-2.16-.56-3.24-.84-.29-1.39.61-2.74,1.99-3.03.18-.04.37-.06.55-.05,1.86-.2,2.26,1.21,2.83,2.62.56.92,1.28,1.75,2.11,2.44.74-.71,1.35-1.54,1.81-2.46.48-1.59,1.07-2.66,2.95-2.24,1.9.43,2.89,1.43,2.6,3.56-.29,2.11-1.03,3.29-3.47,3.13-2.2-.15-4.45.35-6.66.25-1.37-.06-3.17.25-3.77-1.73Z"/></g></svg>